<svg width="395" height="395" viewBox="0 0 395 395" fill="none" xmlns="http://www.w3.org/2000/svg">
<path d="M197.5 2L198.207 1.29289L197.5 0.585786L196.793 1.29289L197.5 2ZM393 197.5L393.707 198.207L394.414 197.5L393.707 196.793L393 197.5ZM197.5 393L196.793 393.707L197.5 394.414L198.207 393.707L197.5 393ZM2 197.5L1.29289 196.793L0.585787 197.5L1.29289 198.207L2 197.5ZM202.719 46.8444L202.016 46.1334L202.719 46.8444ZM202.719 36.2285L202.016 36.9395L202.016 36.9395L202.719 36.2285ZM192.222 36.2285L192.925 36.9395L192.925 36.9395L192.222 36.2285ZM192.222 357.607L192.925 356.896L192.925 356.896L192.222 357.607ZM202.719 357.607L202.016 356.896L202.016 356.896L202.719 357.607ZM237.036 41.5365L237.744 40.8294L237.744 40.8294L237.036 41.5365ZM157.964 41.5365L157.256 40.8294L157.256 40.8294L157.964 41.5365ZM352.299 156.799L353.006 156.091L353.006 156.091L352.299 156.799ZM41.5364 237.036L40.8293 237.744L40.8293 237.744L41.5364 237.036ZM177.776 61.349L178.483 62.0561L178.483 62.0561L177.776 61.349ZM61.349 217.224L62.0561 216.517L62.0561 216.517L61.349 217.224ZM333.651 217.224L332.944 216.517L332.944 216.517L333.651 217.224ZM118.98 274.855L119.687 274.148L119.687 274.148L118.98 274.855ZM265.852 70.352L266.559 69.6449L266.559 69.6449L265.852 70.352ZM246.039 90.1645L245.332 90.8716L245.332 90.8716L246.039 90.1645ZM303.671 147.796L302.963 148.503L302.963 148.503L303.671 147.796ZM324.066 266.434L324.773 267.142L324.773 267.142L324.066 266.434ZM266.434 324.066L267.142 324.773L267.142 324.773L266.434 324.066ZM127.983 323.483L127.276 324.19L127.276 324.19L127.983 323.483ZM91.2704 147.855L91.9776 148.562L91.9776 148.562L91.2704 147.855ZM71.4579 128.042L70.7508 127.335L70.7508 127.335L71.4579 128.042ZM197.886 119.133L198.752 118.633L197.886 117.133L197.02 118.633L197.886 119.133ZM193.69 126.401L192.824 125.901L191.958 127.401H193.69V126.401ZM202.083 126.401V127.401H203.815L202.949 125.901L202.083 126.401ZM197.886 136.278L197.02 136.778L197.886 138.278L198.752 136.778L197.886 136.278ZM195.627 132.364V131.364H193.895L194.761 132.864L195.627 132.364ZM200.146 132.364L201.012 132.864L201.878 131.364H200.146V132.364ZM199.005 161.623L198.154 161.097L198.005 161.339V161.623H199.005ZM199.005 311.084L199.996 311.216L200.005 311.15V311.084H199.005ZM198.259 316.675L197.278 316.871L199.25 316.807L198.259 316.675ZM197.141 311.084L196.141 311.092L196.142 311.187L196.16 311.28L197.141 311.084ZM196.023 161.623L197.023 161.616L197.021 161.354L196.891 161.127L196.023 161.623ZM191.55 153.796L192.418 153.3L190.503 149.948L190.55 153.808L191.55 153.796ZM193.414 306.984L192.414 306.996L192.415 307.092L192.434 307.186L193.414 306.984ZM198.259 330.466L197.28 330.668L199.235 330.682L198.259 330.466ZM203.477 306.984L204.453 307.201L204.477 307.094L204.477 306.984L203.477 306.984ZM203.477 154.398L204.477 154.398L204.477 150.883L202.627 153.872L203.477 154.398ZM201.614 112.424V113.424H202.614V112.424H201.614ZM194.159 112.424H193.159V113.424H194.159V112.424ZM194.159 106.46V105.46H193.159V106.46H194.159ZM201.614 106.46H202.614V105.46H201.614V106.46ZM201.614 105.715V106.715H202.614V105.715H201.614ZM194.159 105.715H193.159V106.715H194.159V105.715ZM194.159 99.7513V98.7513H193.159V99.7513H194.159ZM201.614 99.7513H202.614V98.7513H201.614V99.7513ZM201.614 99.0059V100.006H202.614V99.0059H201.614ZM194.159 99.0059H193.159V100.006H194.159V99.0059ZM194.159 93.7878V92.7878H193.159V93.7878H194.159ZM201.614 93.7878H202.614V92.7878H201.614V93.7878ZM201.614 93.0424V94.0424H202.614V93.0424H201.614ZM194.159 93.0424H193.159V94.0424H194.159V93.0424ZM194.159 87.8243V86.8243H193.159V87.8243H194.159ZM201.614 87.8243H202.614V86.8243H201.614V87.8243ZM201.614 87.0788V88.0788H202.614V87.0788H201.614ZM194.159 87.0788H193.159V88.0788H194.159V87.0788ZM194.159 81.1153V80.1153H193.159V81.1153H194.159ZM201.614 81.1153H202.614V80.1153H201.614V81.1153ZM201.614 80.3698V81.3698H202.614V80.3698H201.614ZM194.159 80.3698H193.159V81.3698H194.159V80.3698ZM194.159 74.4063V73.4063H193.159V74.4063H194.159ZM201.614 74.4063H202.614V73.4063H201.614V74.4063ZM179.25 129.569V128.569H178.836L178.543 128.862L179.25 129.569ZM175.896 132.923L175.132 133.569L175.834 134.399L176.603 133.631L175.896 132.923ZM171.796 128.078L171.059 127.402L170.464 128.052L171.033 128.724L171.796 128.078ZM175.896 123.605L176.451 122.773L175.738 122.298L175.159 122.93L175.896 123.605ZM179.25 125.842L178.696 126.674L178.921 126.824L179.192 126.84L179.25 125.842ZM187.45 125.096L187.124 124.151L187.124 124.151L187.45 125.096ZM197.886 115.033L198.769 114.562L197.95 113.029L197.036 114.507L197.886 115.033ZM207.204 125.096L207.568 124.165L207.568 124.165L207.204 125.096ZM216.15 125.842L216.243 126.837L216.448 126.818L216.629 126.72L216.15 125.842ZM220.25 123.605L221.018 122.965L220.492 122.334L219.771 122.728L220.25 123.605ZM223.977 128.078L224.769 128.688L225.258 128.053L224.745 127.438L223.977 128.078ZM220.25 132.923L219.616 133.697L220.414 134.35L221.042 133.533L220.25 132.923ZM216.15 129.569L216.783 128.795L216.507 128.569H216.15V129.569ZM200.868 138.887L201.866 138.947L201.866 138.947L200.868 138.887ZM204.595 148.205L203.603 148.081L203.603 148.081L204.595 148.205ZM197.514 156.778L196.915 157.579L197.475 157.997L198.06 157.615L197.514 156.778ZM191.177 148.205L192.173 148.108L192.173 148.108L191.177 148.205ZM195.277 138.887L196.276 138.841L196.276 138.841L195.277 138.887ZM262.264 131.229L263.262 131.156L263.225 130.659L262.806 130.388L262.264 131.229ZM253.677 228.035L254.616 228.379L254.616 228.379L253.677 228.035ZM141.123 228.035L142.062 227.692L141.123 228.035ZM132.842 131.229L132.279 130.403L131.882 130.674L131.845 131.152L132.842 131.229ZM163.818 110.091L163.384 109.19L163.316 109.223L163.254 109.265L163.818 110.091ZM229.449 110.091L229.99 109.25L229.948 109.223L229.903 109.2L229.449 110.091ZM257.326 137.238L258.324 137.165L258.287 136.666L257.865 136.396L257.326 137.238ZM249.46 225.332L250.398 225.678L249.46 225.332ZM146.357 225.332L147.295 224.987L146.357 225.332ZM138.772 137.238L138.211 136.411L137.812 136.681L137.775 137.161L138.772 137.238ZM167.146 118.003L166.684 117.116L166.633 117.143L166.585 117.175L167.146 118.003ZM227.266 118.003L227.805 117.161L227.775 117.141L227.743 117.124L227.266 118.003ZM224.017 159.5L223.037 159.303L224.798 160.125L224.017 159.5ZM228.017 154.5L228.582 153.675L227.816 153.15L227.236 153.875L228.017 154.5ZM246.017 183L245.446 183.821L247.505 185.253L246.996 182.797L246.017 183ZM234.517 175L235.088 174.179L233.751 175.642L234.517 175ZM243.017 216.5L242.139 216.979L243.118 218.773L243.934 216.899L243.017 216.5ZM237.017 205.5L237.895 205.021L236.059 205.785L237.017 205.5ZM229.517 232L228.518 231.958L228.422 234.258L230.169 232.759L229.517 232ZM230.017 220L231.016 220.042L229.05 219.745L230.017 220ZM210.017 244.5L209.177 245.042L209.839 246.068L210.714 245.217L210.017 244.5ZM212.017 212L211.2 211.423L211.2 211.423L212.017 212ZM221.017 197.5L220.038 197.297L220.017 197.398V197.5H221.017ZM214.517 177.5L215.018 176.635L212.017 174.897L213.632 177.966L214.517 177.5ZM221.017 222.5L222.013 222.409L220.028 222.352L221.017 222.5ZM217.017 236L216.146 235.509L216.146 235.509L217.017 236ZM221.517 228L222.515 228.059L222.52 227.984L222.513 227.909L221.517 228ZM226.017 230.5L225.155 229.993L225.155 229.993L226.017 230.5ZM238.017 221L237.067 220.688L237.067 220.688L238.017 221ZM215.017 204L214.017 203.979L214.009 204.377L214.276 204.672L215.017 204ZM213.517 193.5L214.471 193.201L212.525 193.372L213.517 193.5ZM204.017 211.5L203.022 211.399L202.879 212.807L204.254 212.471L204.017 211.5ZM203.5 199.5L204.494 199.392L202.516 199.323L203.5 199.5ZM192.517 216.5L191.52 216.424L191.405 217.93L192.837 217.448L192.517 216.5ZM183.017 200.5L183.191 199.515L182.953 199.473L182.723 199.544L183.017 200.5ZM154.517 201.5L153.78 200.824L153.112 201.553L153.833 202.229L154.517 201.5ZM219.017 191L220.016 190.943L220.016 190.943L219.017 191ZM158.517 193.5L159.501 193.677L159.881 191.57L158.021 192.632L158.517 193.5ZM150.017 194.5L149.355 193.75L149.124 193.955L149.048 194.254L150.017 194.5ZM175.017 161.5L174.352 160.754L174.193 160.895L174.106 161.089L175.017 161.5ZM208.017 142L208.768 141.339L206.877 139.191L207.018 142.05L208.017 142ZM212.017 156.5L211.058 156.216L212.843 157.064L212.017 156.5ZM193.517 174L193.977 174.888L195.833 173.927L193.92 173.085L193.517 174ZM178.517 175.5L179.229 176.203L179.472 175.956L179.511 175.611L178.517 175.5ZM172.517 183.5L171.664 182.979L169.856 185.936L172.962 184.396L172.517 183.5ZM179.517 178L180.088 177.179L179.381 176.688L178.79 177.313L179.517 178ZM185.017 176L184.92 175.005L184.513 175.045L184.251 175.358L185.017 176ZM189.338 153.453C189.864 153.284 190.155 152.722 189.986 152.196C189.818 151.669 189.256 151.379 188.73 151.547L189.338 153.453ZM191.707 137.731C192.11 138.108 192.743 138.086 193.12 137.683C193.497 137.279 193.476 136.647 193.072 136.269L191.707 137.731ZM353.375 197.5V198.5H393V197.5V196.5H353.375V197.5ZM41.6251 197.5V196.5H2V197.5V198.5H41.6251V197.5ZM204.935 41.5365H203.935C203.935 43.3349 203.202 44.9604 202.016 46.1334L202.719 46.8444L203.423 47.5554C204.973 46.0222 205.935 43.8908 205.935 41.5365H204.935ZM202.719 46.8444L202.016 46.1334C200.847 47.2894 199.243 48.0014 197.47 48.0014V49.0014V50.0014C199.791 50.0014 201.894 49.0666 203.423 47.5554L202.719 46.8444ZM197.47 49.0014V48.0014C195.711 48.0014 194.117 47.2998 192.951 46.1588L192.251 46.8737L191.552 47.5886C193.077 49.0803 195.167 50.0014 197.47 50.0014V49.0014ZM192.251 46.8737L192.951 46.1588C191.749 44.9839 191.006 43.3479 191.006 41.5365H190.006H189.006C189.006 43.9078 189.982 46.053 191.552 47.5886L192.251 46.8737ZM197.47 344.834V345.834C199.499 345.834 201.309 346.767 202.496 348.232L203.273 347.602L204.05 346.972C202.5 345.059 200.128 343.834 197.47 343.834V344.834ZM203.273 347.602L202.496 348.232C203.397 349.343 203.935 350.756 203.935 352.299H204.935H205.935C205.935 350.281 205.229 348.427 204.05 346.972L203.273 347.602ZM190.006 352.299H191.006C191.006 350.743 191.554 349.319 192.468 348.203L191.694 347.569L190.921 346.935C189.724 348.395 189.006 350.264 189.006 352.299H190.006ZM191.694 347.569L192.468 348.203C193.655 346.755 195.455 345.834 197.47 345.834V344.834V343.834C194.83 343.834 192.472 345.044 190.921 346.935L191.694 347.569ZM197.47 34.0715L198.47 34.0725L198.5 2.00092L197.5 2L196.5 1.99908L196.47 34.0706L197.47 34.0715ZM197.47 359.764L196.47 359.764L196.5 393.001L197.5 393L198.5 392.999L198.47 359.763L197.47 359.764ZM197.47 34.0715V35.0715C199.243 35.0715 200.847 35.7836 202.016 36.9395L202.719 36.2285L203.423 35.5175C201.894 34.0063 199.791 33.0715 197.47 33.0715V34.0715ZM202.719 36.2285L202.016 36.9395C203.202 38.1126 203.935 39.738 203.935 41.5365H204.935H205.935C205.935 39.1821 204.973 37.0508 203.423 35.5175L202.719 36.2285ZM197.5 2L196.793 2.70711L216.517 22.431L217.224 21.7239L217.931 21.0168L198.207 1.29289L197.5 2ZM202.719 36.2285L203.426 36.9356L217.931 22.431L217.224 21.7239L216.517 21.0168L202.012 35.5214L202.719 36.2285ZM190.006 41.5365H191.006C191.006 39.738 191.739 38.1125 192.925 36.9395L192.222 36.2285L191.518 35.5175C189.968 37.0508 189.006 39.1822 189.006 41.5365H190.006ZM192.222 36.2285L192.925 36.9395C194.094 35.7836 195.698 35.0715 197.47 35.0715V34.0715V33.0715C195.15 33.0715 193.046 34.0063 191.518 35.5175L192.222 36.2285ZM177.776 21.7239L178.483 22.431L198.207 2.70711L197.5 2L196.793 1.29289L177.069 21.0168L177.776 21.7239ZM192.222 36.2285L192.93 35.5229L178.485 21.0183L177.776 21.7239L177.068 22.4296L191.513 36.9342L192.222 36.2285ZM197.47 359.764V358.764C195.698 358.764 194.094 358.052 192.925 356.896L192.222 357.607L191.518 358.318C193.046 359.829 195.15 360.764 197.47 360.764V359.764ZM192.222 357.607L192.925 356.896C191.739 355.723 191.006 354.097 191.006 352.299H190.006H189.006C189.006 354.653 189.968 356.784 191.518 358.318L192.222 357.607ZM197.5 393L198.207 392.293L178.483 372.569L177.776 373.276L177.069 373.983L196.793 393.707L197.5 393ZM192.222 357.607L191.486 356.929L177.041 372.598L177.776 373.276L178.511 373.954L192.957 358.284L192.222 357.607ZM204.935 352.299H203.935C203.935 354.097 203.202 355.723 202.016 356.896L202.719 357.607L203.423 358.318C204.973 356.784 205.935 354.653 205.935 352.299H204.935ZM202.719 357.607L202.016 356.896C200.847 358.052 199.243 358.764 197.47 358.764V359.764V360.764C199.791 360.764 201.894 359.829 203.423 358.318L202.719 357.607ZM217.224 373.276L216.517 372.569L196.793 392.293L197.5 393L198.207 393.707L217.931 373.983L217.224 373.276ZM202.719 357.607L201.986 358.286L216.49 373.955L217.224 373.276L217.958 372.597L203.453 356.927L202.719 357.607ZM217.224 21.7239L216.517 22.431L236.329 42.2436L237.036 41.5365L237.744 40.8294L217.931 21.0168L217.224 21.7239ZM204.935 41.5365V42.5365H237.036V41.5365V40.5365H204.935V41.5365ZM157.964 41.5365L158.671 42.2436L178.483 22.431L177.776 21.7239L177.069 21.0168L157.256 40.8294L157.964 41.5365ZM190.006 41.5365V40.5365H157.964V41.5365V42.5365H190.006V41.5365ZM177.776 373.276L178.483 372.569L157.506 351.591L156.799 352.299L156.091 353.006L177.069 373.983L177.776 373.276ZM190.006 352.299V351.299H156.799V352.299V353.299H190.006V352.299ZM238.201 352.299L237.494 351.591L216.517 372.569L217.224 373.276L217.931 373.983L238.909 353.006L238.201 352.299ZM204.935 352.299V353.299H238.201V352.299V351.299H204.935V352.299ZM2 197.5L2.70711 198.207L43.4085 157.506L42.7014 156.799L41.9943 156.091L1.29289 196.793L2 197.5ZM352.299 156.799L351.591 157.506L392.293 198.207L393 197.5L393.707 196.793L353.006 156.091L352.299 156.799ZM41.5364 237.036L42.2435 236.329L2.70711 196.793L2 197.5L1.29289 198.207L40.8293 237.744L41.5364 237.036ZM393 197.5L392.293 196.793L352.756 236.329L353.464 237.036L354.171 237.744L393.707 198.207L393 197.5ZM157.964 41.5365L157.256 42.2436L177.069 62.0561L177.776 61.349L178.483 60.6419L158.671 40.8294L157.964 41.5365ZM177.776 61.349L178.483 62.0561L192.958 47.5808L192.251 46.8737L191.544 46.1666L177.069 60.6419L177.776 61.349ZM237.036 41.5365L236.329 40.8294L216.561 60.5976L217.268 61.3047L217.975 62.0118L237.744 42.2436L237.036 41.5365ZM41.6251 197.5L42.3322 198.207L63.221 177.318L62.5139 176.611L61.8068 175.904L40.918 196.793L41.6251 197.5ZM62.5139 176.611L63.221 175.904L43.4085 156.091L42.7014 156.799L41.9943 157.506L61.8068 177.318L62.5139 176.611ZM61.349 217.224L60.6419 216.517L40.8293 236.329L41.5364 237.036L42.2435 237.744L62.0561 217.931L61.349 217.224ZM61.349 217.224L62.0561 216.517L42.3322 196.793L41.6251 197.5L40.918 198.207L60.6419 217.931L61.349 217.224ZM191.694 347.569L192.402 346.862L177.318 331.779L176.611 332.486L175.904 333.193L190.987 348.277L191.694 347.569ZM156.799 352.299L157.506 353.006L177.318 333.193L176.611 332.486L175.904 331.779L156.091 351.591L156.799 352.299ZM238.201 352.299L238.909 351.591L219.096 331.779L218.389 332.486L217.682 333.193L237.494 353.006L238.201 352.299ZM218.389 332.486L217.682 331.779L202.566 346.895L203.273 347.602L203.98 348.309L219.096 333.193L218.389 332.486ZM353.375 197.5L352.668 196.793L332.944 216.517L333.651 217.224L334.358 217.931L354.082 198.207L353.375 197.5ZM333.651 217.224L332.944 217.931L352.756 237.744L353.464 237.036L354.171 236.329L334.358 216.517L333.651 217.224ZM332.486 176.611L333.193 177.318L353.006 157.506L352.299 156.799L351.591 156.091L331.779 175.904L332.486 176.611ZM332.486 176.611L331.779 177.318L352.668 198.207L353.375 197.5L354.082 196.793L333.193 175.904L332.486 176.611ZM274.973 275.902L274.262 276.605L293.956 296.535L294.667 295.832L295.379 295.13L275.684 275.199L274.973 275.902ZM100.332 99.1675L99.6212 99.8704L119.316 119.801L120.027 119.098L120.738 118.395L101.044 98.4647L100.332 99.1675ZM99.1675 294.667L99.8746 295.375L119.687 275.562L118.98 274.855L118.273 274.148L98.4604 293.96L99.1675 294.667ZM274.973 119.098L275.684 119.801L295.379 99.8704L294.667 99.1675L293.956 98.4647L274.262 118.395L274.973 119.098ZM237.036 41.5365L236.329 42.2436L265.145 71.0591L265.852 70.352L266.559 69.6449L237.744 40.8294L237.036 41.5365ZM265.852 70.352L265.145 71.0591L293.96 99.8746L294.667 99.1675L295.375 98.4604L266.559 69.6449L265.852 70.352ZM202.719 46.8444L202.012 47.5515L245.332 90.8716L246.039 90.1645L246.747 89.4574L203.426 46.1373L202.719 46.8444ZM246.039 90.1645L245.332 90.8716L274.266 119.805L274.973 119.098L275.68 118.391L246.747 89.4574L246.039 90.1645ZM265.852 70.352L265.145 69.6449L245.332 89.4574L246.039 90.1645L246.747 90.8716L266.559 71.0591L265.852 70.352ZM294.667 99.1675L293.96 99.8746L322.776 128.69L323.483 127.983L324.19 127.276L295.375 98.4604L294.667 99.1675ZM323.483 127.983L322.776 128.69L351.591 157.506L352.299 156.799L353.006 156.091L324.19 127.276L323.483 127.983ZM274.973 119.098L274.266 119.805L302.963 148.503L303.671 147.796L304.378 147.088L275.68 118.391L274.973 119.098ZM303.671 147.796L302.963 148.503L331.779 177.318L332.486 176.611L333.193 175.904L304.378 147.088L303.671 147.796ZM323.483 127.983L322.776 127.276L302.963 147.088L303.671 147.796L304.378 148.503L324.19 128.69L323.483 127.983ZM353.464 237.036L352.756 236.329L323.358 265.727L324.066 266.434L324.773 267.142L354.171 237.744L353.464 237.036ZM324.066 266.434L323.358 265.727L293.96 295.125L294.667 295.832L295.375 296.54L324.773 267.142L324.066 266.434ZM333.651 217.224L332.944 216.517L303.546 245.915L304.253 246.622L304.96 247.329L334.358 217.931L333.651 217.224ZM304.253 246.622L303.546 245.915L274.266 275.195L274.973 275.902L275.68 276.609L304.96 247.329L304.253 246.622ZM324.066 266.434L324.773 265.727L304.96 245.915L304.253 246.622L303.546 247.329L323.358 267.142L324.066 266.434ZM294.667 295.832L293.96 295.125L265.727 323.358L266.434 324.066L267.142 324.773L295.375 296.54L294.667 295.832ZM266.434 324.066L265.727 323.358L237.494 351.591L238.201 352.299L238.909 353.006L267.142 324.773L266.434 324.066ZM274.973 275.902L274.266 275.195L245.915 303.546L246.622 304.253L247.329 304.96L275.68 276.609L274.973 275.902ZM246.622 304.253L245.915 303.546L217.682 331.779L218.389 332.486L219.096 333.193L247.329 304.96L246.622 304.253ZM266.434 324.066L267.142 323.358L247.329 303.546L246.622 304.253L245.915 304.96L265.727 324.773L266.434 324.066ZM156.799 352.299L157.506 351.591L128.69 322.776L127.983 323.483L127.276 324.19L156.091 353.006L156.799 352.299ZM127.983 323.483L128.69 322.776L99.8746 293.96L99.1675 294.667L98.4604 295.375L127.276 324.19L127.983 323.483ZM176.611 332.486L177.318 331.779L148.503 302.963L147.796 303.671L147.088 304.378L175.904 333.193L176.611 332.486ZM147.796 303.671L148.503 302.963L119.687 274.148L118.98 274.855L118.273 275.562L147.088 304.378L147.796 303.671ZM127.983 323.483L128.69 324.19L148.503 304.378L147.796 303.671L147.088 302.963L127.276 322.776L127.983 323.483ZM118.98 274.855L119.687 274.148L90.8716 245.332L90.1645 246.039L89.4574 246.747L118.273 275.562L118.98 274.855ZM90.1645 246.039L90.8716 245.332L62.0561 216.517L61.349 217.224L60.6419 217.931L89.4574 246.747L90.1645 246.039ZM99.1675 294.667L99.8746 293.96L71.0591 265.145L70.352 265.852L69.6449 266.559L98.4604 295.375L99.1675 294.667ZM70.352 265.852L71.0591 265.145L42.2435 236.329L41.5364 237.036L40.8293 237.744L69.6449 266.559L70.352 265.852ZM90.1645 246.039L89.4574 245.332L69.6449 265.145L70.352 265.852L71.0591 266.559L90.8716 246.747L90.1645 246.039ZM62.5139 176.611L63.221 177.318L91.9776 148.562L91.2704 147.855L90.5633 147.148L61.8068 175.904L62.5139 176.611ZM91.2704 147.855L91.9776 148.562L120.734 119.805L120.027 119.098L119.32 118.391L90.5633 147.148L91.2704 147.855ZM42.7014 156.799L43.4085 157.506L72.165 128.749L71.4579 128.042L70.7508 127.335L41.9943 156.091L42.7014 156.799ZM71.4579 128.042L72.165 128.749L101.04 99.8746L100.332 99.1675L99.6254 98.4604L70.7508 127.335L71.4579 128.042ZM91.2704 147.855L91.9776 147.148L72.165 127.335L71.4579 128.042L70.7508 128.749L90.5633 148.562L91.2704 147.855ZM120.027 119.098L120.734 119.805L149.609 90.9306L148.901 90.2235L148.194 89.5164L119.32 118.391L120.027 119.098ZM148.901 90.2235L149.609 90.9306L178.483 62.0561L177.776 61.349L177.069 60.6419L148.194 89.5164L148.901 90.2235ZM100.332 99.1675L101.04 99.8746L129.796 71.1181L129.089 70.411L128.382 69.7039L99.6254 98.4604L100.332 99.1675ZM129.089 70.411L129.796 71.1181L158.671 42.2436L157.964 41.5365L157.256 40.8294L128.382 69.7039L129.089 70.411ZM148.901 90.2235L149.609 89.5164L129.796 69.7039L129.089 70.411L128.382 71.1181L148.194 90.9306L148.901 90.2235ZM157.964 41.5365L156.98 41.3535L147.918 90.0406L148.901 90.2235L149.885 90.4065L158.947 41.7195L157.964 41.5365ZM148.901 90.2235L148.72 89.2401L100.151 98.1841L100.332 99.1675L100.514 100.151L149.083 91.207L148.901 90.2235ZM100.332 99.1675L99.3493 98.9846L90.2873 147.672L91.2704 147.855L92.2536 148.038L101.316 99.3505L100.332 99.1675ZM91.2704 147.855L91.0893 146.871L42.5203 155.815L42.7014 156.799L42.8825 157.782L91.4516 148.838L91.2704 147.855ZM41.5364 237.036L42.5363 237.051L43.7013 156.813L42.7014 156.799L41.7015 156.784L40.5365 237.022L41.5364 237.036ZM237.036 41.5365L236.053 41.7185L245.056 90.3466L246.039 90.1645L247.023 89.9825L238.02 41.3544L237.036 41.5365ZM294.667 99.1675L294.85 98.1843L246.222 89.1812L246.039 90.1645L245.857 91.1478L294.485 100.151L294.667 99.1675ZM294.667 99.1675L293.684 99.3496L302.687 147.978L303.671 147.796L304.654 147.614L295.651 98.9855L294.667 99.1675ZM303.671 147.796L303.488 148.779L352.117 157.782L352.299 156.799L352.481 155.815L303.853 146.812L303.671 147.796ZM352.299 156.799L351.299 156.813L352.464 237.051L353.464 237.036L354.463 237.022L353.298 156.784L352.299 156.799ZM353.464 237.036L353.272 236.055L304.062 245.64L304.253 246.622L304.444 247.604L353.655 238.018L353.464 237.036ZM304.253 246.622L303.271 246.431L293.686 295.641L294.667 295.832L295.649 296.024L305.235 246.813L304.253 246.622ZM294.667 295.832L294.495 294.847L246.449 303.268L246.622 304.253L246.795 305.238L294.84 296.817L294.667 295.832ZM246.622 304.253L245.637 304.08L237.216 352.126L238.201 352.299L239.186 352.471L247.607 304.426L246.622 304.253ZM41.5364 237.036L41.3544 238.02L89.9824 247.023L90.1645 246.039L90.3465 245.056L41.7185 236.053L41.5364 237.036ZM99.1675 294.667L100.151 294.485L91.1478 245.857L90.1645 246.039L89.1812 246.222L98.1843 294.85L99.1675 294.667ZM99.1675 294.667L98.9855 295.651L147.613 304.654L147.796 303.671L147.978 302.687L99.3496 293.684L99.1675 294.667ZM147.796 303.671L146.812 303.853L155.815 352.481L156.799 352.299L157.782 352.117L148.779 303.488L147.796 303.671ZM197.886 119.133L197.02 118.633L192.824 125.901L193.69 126.401L194.556 126.901L198.752 119.633L197.886 119.133ZM193.69 126.401V127.401H202.083V126.401V125.401H193.69V126.401ZM202.083 126.401L202.949 125.901L198.752 118.633L197.886 119.133L197.02 119.633L201.216 126.901L202.083 126.401ZM197.886 136.278L198.752 135.778L196.493 131.864L195.627 132.364L194.761 132.864L197.02 136.778L197.886 136.278ZM195.627 132.364V133.364H200.146V132.364V131.364H195.627V132.364ZM200.146 132.364L199.28 131.864L197.02 135.778L197.886 136.278L198.752 136.778L201.012 132.864L200.146 132.364ZM199.005 161.623H198.005V311.084H199.005H200.005V161.623H199.005ZM199.005 311.084L198.013 310.952L197.268 316.543L198.259 316.675L199.25 316.807L199.996 311.216L199.005 311.084ZM198.259 316.675L199.24 316.479L198.121 310.888L197.141 311.084L196.16 311.28L197.278 316.871L198.259 316.675ZM197.141 311.084L198.141 311.077L197.023 161.616L196.023 161.623L195.023 161.63L196.141 311.092L197.141 311.084ZM196.023 161.623L196.891 161.127L192.418 153.3L191.55 153.796L190.682 154.292L195.154 162.119L196.023 161.623ZM191.55 153.796L190.55 153.808L192.414 306.996L193.414 306.984L194.414 306.972L192.55 153.784L191.55 153.796ZM193.414 306.984L192.434 307.186L197.28 330.668L198.259 330.466L199.238 330.263L194.393 306.782L193.414 306.984ZM198.259 330.466L199.235 330.682L204.453 307.201L203.477 306.984L202.501 306.767L197.283 330.249L198.259 330.466ZM203.477 154.398L202.627 153.872L198.154 161.097L199.005 161.623L199.855 162.149L204.327 154.924L203.477 154.398ZM203.477 306.984L204.477 306.984L204.477 154.398L203.477 154.398L202.477 154.398L202.477 306.984L203.477 306.984ZM201.614 112.424V111.424H194.159V112.424V113.424H201.614V112.424ZM194.159 112.424H195.159V106.46H194.159H193.159V112.424H194.159ZM194.159 106.46V107.46H201.614V106.46V105.46H194.159V106.46ZM201.614 106.46H200.614V112.424H201.614H202.614V106.46H201.614ZM201.614 105.715V104.715H194.159V105.715V106.715H201.614V105.715ZM194.159 105.715H195.159V99.7513H194.159H193.159V105.715H194.159ZM194.159 99.7513V100.751H201.614V99.7513V98.7513H194.159V99.7513ZM201.614 99.7513H200.614V105.715H201.614H202.614V99.7513H201.614ZM201.614 99.0059V98.0059H194.159V99.0059V100.006H201.614V99.0059ZM194.159 99.0059H195.159V93.7878H194.159H193.159V99.0059H194.159ZM194.159 93.7878V94.7878H201.614V93.7878V92.7878H194.159V93.7878ZM201.614 93.7878H200.614V99.0059H201.614H202.614V93.7878H201.614ZM201.614 93.0424V92.0424H194.159V93.0424V94.0424H201.614V93.0424ZM194.159 93.0424H195.159V87.8243H194.159H193.159V93.0424H194.159ZM194.159 87.8243V88.8243H201.614V87.8243V86.8243H194.159V87.8243ZM201.614 87.8243H200.614V93.0424H201.614H202.614V87.8243H201.614ZM201.614 87.0788V86.0788H194.159V87.0788V88.0788H201.614V87.0788ZM194.159 87.0788H195.159V81.1153H194.159H193.159V87.0788H194.159ZM194.159 81.1153V82.1153H201.614V81.1153V80.1153H194.159V81.1153ZM201.614 81.1153H200.614V87.0788H201.614H202.614V81.1153H201.614ZM201.614 80.3698V79.3698H194.159V80.3698V81.3698H201.614V80.3698ZM194.159 80.3698H195.159V74.4063H194.159H193.159V80.3698H194.159ZM194.159 74.4063V75.4063H201.614V74.4063V73.4063H194.159V74.4063ZM201.614 74.4063H200.614V80.3698H201.614H202.614V74.4063H201.614ZM179.25 129.569L178.543 128.862L175.189 132.216L175.896 132.923L176.603 133.631L179.957 130.276L179.25 129.569ZM175.896 132.923L176.659 132.278L172.559 127.432L171.796 128.078L171.033 128.724L175.132 133.569L175.896 132.923ZM171.796 128.078L172.533 128.754L176.633 124.281L175.896 123.605L175.159 122.93L171.059 127.402L171.796 128.078ZM175.896 123.605L175.341 124.438L178.696 126.674L179.25 125.842L179.805 125.01L176.451 122.773L175.896 123.605ZM179.25 125.842C179.192 126.84 179.192 126.84 179.192 126.84C179.192 126.84 179.192 126.84 179.192 126.84C179.193 126.84 179.193 126.84 179.193 126.84C179.194 126.84 179.196 126.84 179.197 126.84C179.2 126.841 179.205 126.841 179.21 126.841C179.221 126.842 179.237 126.843 179.258 126.844C179.299 126.846 179.359 126.849 179.436 126.852C179.588 126.858 179.809 126.866 180.081 126.873C180.627 126.885 181.386 126.89 182.243 126.862C183.93 126.806 186.107 126.618 187.776 126.042L187.45 125.096L187.124 124.151C185.754 124.624 183.831 124.808 182.177 124.863C181.365 124.89 180.644 124.885 180.127 124.873C179.868 124.867 179.662 124.86 179.52 124.854C179.45 124.851 179.396 124.848 179.36 124.846C179.342 124.845 179.329 124.845 179.32 124.844C179.316 124.844 179.313 124.844 179.311 124.844C179.31 124.844 179.309 124.844 179.309 124.844C179.309 124.844 179.309 124.844 179.309 124.844C179.309 124.844 179.309 124.844 179.309 124.844C179.309 124.844 179.309 124.844 179.25 125.842ZM187.45 125.096L187.776 126.042C190.727 125.024 193.485 122.32 195.438 120.019C196.432 118.847 197.254 117.737 197.827 116.92C198.114 116.51 198.339 116.173 198.494 115.937C198.571 115.819 198.631 115.726 198.672 115.662C198.692 115.63 198.708 115.605 198.719 115.588C198.724 115.579 198.728 115.572 198.731 115.568C198.733 115.565 198.734 115.563 198.735 115.562C198.735 115.561 198.736 115.561 198.736 115.56C198.736 115.56 198.736 115.56 198.736 115.559C198.737 115.559 198.737 115.559 197.886 115.033C197.036 114.507 197.036 114.507 197.036 114.506C197.036 114.507 197.036 114.506 197.036 114.506C197.036 114.507 197.036 114.507 197.036 114.507C197.035 114.508 197.035 114.509 197.034 114.51C197.032 114.513 197.029 114.518 197.024 114.525C197.016 114.539 197.002 114.561 196.984 114.589C196.948 114.646 196.893 114.732 196.821 114.842C196.676 115.062 196.463 115.382 196.19 115.772C195.642 116.553 194.858 117.612 193.913 118.725C191.986 120.995 189.526 123.322 187.124 124.151L187.45 125.096ZM197.886 115.033C197.004 115.504 197.004 115.504 197.004 115.504C197.004 115.504 197.005 115.504 197.005 115.505C197.005 115.505 197.005 115.506 197.006 115.506C197.006 115.508 197.007 115.51 197.009 115.512C197.011 115.517 197.015 115.524 197.02 115.532C197.029 115.55 197.042 115.574 197.06 115.606C197.095 115.67 197.146 115.762 197.213 115.879C197.345 116.113 197.539 116.447 197.788 116.853C198.283 117.663 198.998 118.766 199.875 119.934C201.593 122.222 204.065 124.943 206.84 126.028L207.204 125.096L207.568 124.165C205.355 123.3 203.168 120.989 201.474 118.733C200.645 117.629 199.966 116.581 199.494 115.809C199.258 115.424 199.075 115.109 198.952 114.892C198.89 114.783 198.843 114.699 198.813 114.643C198.797 114.615 198.786 114.594 198.778 114.58C198.775 114.573 198.772 114.568 198.77 114.565C198.77 114.564 198.769 114.563 198.769 114.562C198.769 114.562 198.768 114.562 198.768 114.562C198.768 114.562 198.768 114.562 198.768 114.562C198.769 114.562 198.769 114.562 197.886 115.033ZM207.204 125.096L206.84 126.028C208.65 126.735 211.04 126.92 212.887 126.947C213.828 126.961 214.662 126.934 215.262 126.903C215.562 126.888 215.805 126.872 215.973 126.859C216.058 126.853 216.124 126.848 216.169 126.844C216.192 126.842 216.21 126.84 216.222 126.839C216.228 126.839 216.233 126.838 216.236 126.838C216.238 126.838 216.24 126.838 216.241 126.838C216.241 126.838 216.242 126.838 216.242 126.838C216.242 126.838 216.242 126.838 216.242 126.837C216.243 126.837 216.243 126.837 216.15 125.842C216.057 124.846 216.057 124.846 216.057 124.846C216.057 124.846 216.057 124.846 216.057 124.846C216.057 124.846 216.057 124.846 216.057 124.846C216.056 124.846 216.056 124.846 216.055 124.846C216.053 124.846 216.049 124.847 216.045 124.847C216.035 124.848 216.021 124.849 216.001 124.851C215.962 124.854 215.902 124.859 215.825 124.865C215.67 124.876 215.443 124.892 215.16 124.906C214.593 124.935 213.803 124.961 212.916 124.948C211.106 124.921 209.023 124.734 207.568 124.165L207.204 125.096ZM216.15 125.842L216.629 126.72L220.728 124.483L220.25 123.605L219.771 122.728L215.671 124.964L216.15 125.842ZM220.25 123.605L219.481 124.246L223.209 128.718L223.977 128.078L224.745 127.438L221.018 122.965L220.25 123.605ZM223.977 128.078L223.184 127.468L219.457 132.314L220.25 132.923L221.042 133.533L224.769 128.688L223.977 128.078ZM220.25 132.923L220.883 132.15L216.783 128.795L216.15 129.569L215.516 130.343L219.616 133.697L220.25 132.923ZM216.15 129.569V128.569H206.459V129.569V130.569H216.15V129.569ZM206.459 129.569C205.769 128.845 205.769 128.845 205.769 128.845C205.769 128.845 205.769 128.846 205.768 128.846C205.768 128.846 205.768 128.846 205.767 128.847C205.766 128.848 205.765 128.849 205.763 128.851C205.76 128.854 205.755 128.858 205.749 128.864C205.738 128.875 205.721 128.891 205.7 128.912C205.658 128.953 205.597 129.013 205.52 129.091C205.367 129.245 205.149 129.468 204.889 129.749C204.368 130.309 203.671 131.102 202.963 132.035C201.586 133.85 200.017 136.387 199.87 138.827L200.868 138.887L201.866 138.947C201.975 137.151 203.202 135.029 204.556 133.244C205.214 132.377 205.866 131.635 206.354 131.11C206.597 130.848 206.799 130.641 206.938 130.501C207.008 130.431 207.062 130.377 207.098 130.342C207.116 130.325 207.129 130.312 207.138 130.303C207.142 130.299 207.145 130.296 207.147 130.295C207.148 130.294 207.149 130.293 207.149 130.293C207.149 130.293 207.149 130.293 207.149 130.293C207.149 130.293 207.149 130.293 207.149 130.293C207.149 130.293 207.149 130.293 206.459 129.569ZM200.868 138.887L199.87 138.827C199.726 141.205 201.041 142.85 202.028 144.157C203.071 145.539 203.79 146.586 203.603 148.081L204.595 148.205L205.588 148.329C205.887 145.936 204.625 144.279 203.624 142.952C202.567 141.551 201.774 140.481 201.866 138.947L200.868 138.887ZM204.595 148.205L203.603 148.081C203.495 148.941 203.076 149.863 202.436 150.797C201.801 151.724 200.986 152.607 200.166 153.379C199.349 154.149 198.545 154.793 197.944 155.245C197.644 155.47 197.396 155.646 197.225 155.765C197.14 155.824 197.074 155.869 197.03 155.899C197.008 155.913 196.991 155.924 196.981 155.931C196.975 155.935 196.972 155.937 196.97 155.939C196.968 155.939 196.968 155.94 196.967 155.94C196.967 155.94 196.967 155.94 196.967 155.94C196.967 155.94 196.967 155.94 196.967 155.94C196.967 155.94 196.968 155.94 197.514 156.778C198.06 157.615 198.06 157.615 198.06 157.615C198.06 157.615 198.06 157.615 198.061 157.615C198.061 157.614 198.062 157.614 198.062 157.614C198.063 157.613 198.065 157.612 198.067 157.61C198.071 157.608 198.077 157.604 198.084 157.599C198.098 157.59 198.119 157.576 198.145 157.559C198.197 157.524 198.272 157.473 198.366 157.407C198.555 157.276 198.823 157.085 199.145 156.844C199.787 156.361 200.652 155.669 201.538 154.835C202.421 154.003 203.343 153.012 204.086 151.928C204.824 150.85 205.425 149.624 205.588 148.329L204.595 148.205ZM197.514 156.778C198.112 155.976 198.112 155.977 198.112 155.977C198.112 155.977 198.112 155.977 198.112 155.977C198.112 155.977 198.112 155.977 198.112 155.977C198.112 155.976 198.111 155.976 198.11 155.975C198.108 155.974 198.105 155.971 198.1 155.968C198.091 155.96 198.076 155.949 198.056 155.934C198.016 155.903 197.957 155.857 197.879 155.796C197.725 155.673 197.501 155.491 197.23 155.26C196.687 154.797 195.961 154.138 195.225 153.359C194.487 152.577 193.756 151.689 193.191 150.769C192.621 149.841 192.254 148.936 192.173 148.108L191.177 148.205L190.182 148.303C190.304 149.546 190.83 150.748 191.487 151.816C192.147 152.891 192.975 153.888 193.77 154.731C194.568 155.577 195.35 156.285 195.931 156.781C196.223 157.03 196.465 157.227 196.637 157.363C196.722 157.431 196.79 157.483 196.838 157.52C196.861 157.538 196.88 157.552 196.893 157.562C196.899 157.567 196.905 157.571 196.908 157.574C196.91 157.575 196.912 157.576 196.913 157.577C196.913 157.577 196.914 157.578 196.914 157.578C196.914 157.578 196.915 157.578 196.915 157.579C196.915 157.579 196.915 157.579 197.514 156.778ZM191.177 148.205L192.173 148.108C192.024 146.59 192.802 145.556 193.924 144.185C194.982 142.893 196.388 141.265 196.276 138.841L195.277 138.887L194.278 138.933C194.35 140.48 193.512 141.533 192.377 142.918C191.307 144.224 189.943 145.863 190.182 148.303L191.177 148.205ZM206.459 129.569V128.569H189.686V129.569V130.569H206.459V129.569ZM189.686 129.569V128.569H179.25V129.569V130.569H189.686V129.569ZM195.277 138.887L196.276 138.841C196.163 136.39 194.588 133.846 193.204 132.032C192.491 131.098 191.787 130.305 191.262 129.745C190.999 129.464 190.779 129.241 190.624 129.087C190.546 129.009 190.485 128.949 190.442 128.908C190.421 128.887 190.404 128.871 190.392 128.86C190.386 128.854 190.381 128.85 190.378 128.847C190.376 128.845 190.375 128.844 190.374 128.843C190.373 128.842 190.373 128.842 190.373 128.842C190.373 128.841 190.372 128.841 190.372 128.841C190.372 128.841 190.372 128.841 189.686 129.569C189.001 130.297 189.001 130.297 189.001 130.297C189.001 130.297 189.001 130.297 189.001 130.297C189.001 130.297 189.001 130.297 189.001 130.297C189.001 130.297 189.002 130.298 189.003 130.299C189.004 130.3 189.008 130.303 189.012 130.307C189.021 130.316 189.034 130.329 189.052 130.346C189.088 130.381 189.143 130.434 189.213 130.504C189.354 130.644 189.558 130.851 189.803 131.113C190.296 131.638 190.953 132.379 191.614 133.245C192.976 135.03 194.196 137.145 194.278 138.933L195.277 138.887ZM207.5 71.5V70.5H203.5V71.5V72.5H207.5V71.5ZM203.5 71.5C204.405 71.0742 204.405 71.0741 204.405 71.074C204.405 71.0739 204.405 71.0737 204.405 71.0736C204.404 71.0732 204.404 71.0727 204.404 71.0721C204.403 71.0709 204.402 71.0692 204.401 71.067C204.399 71.0626 204.396 71.0561 204.392 71.0477C204.384 71.0309 204.373 71.0063 204.357 70.9744C204.327 70.9106 204.283 70.8177 204.226 70.6997C204.112 70.4638 203.948 70.1277 203.746 69.7247C203.344 68.9197 202.789 67.8426 202.185 66.7622C201.585 65.6883 200.921 64.583 200.298 63.7357C199.989 63.3152 199.665 62.9245 199.344 62.6289C199.182 62.4807 198.999 62.335 198.796 62.222C198.599 62.112 198.324 62 198 62L198 63L198 64C197.863 64 197.796 63.9544 197.822 63.9689C197.843 63.9804 197.899 64.0173 197.99 64.1016C198.175 64.2708 198.41 64.5442 198.687 64.9205C199.235 65.667 199.852 66.6867 200.44 67.7378C201.023 68.7824 201.563 69.8303 201.957 70.6191C202.154 71.0129 202.314 71.3409 202.425 71.5698C202.48 71.6843 202.523 71.774 202.552 71.8347C202.566 71.865 202.577 71.8882 202.585 71.9035C202.588 71.9112 202.591 71.9169 202.593 71.9207C202.594 71.9225 202.594 71.9239 202.595 71.9248C202.595 71.9252 202.595 71.9255 202.595 71.9257C202.595 71.9258 202.595 71.9258 202.595 71.9258C202.595 71.9258 202.595 71.9258 203.5 71.5ZM203.5 71.5V70.5H193V71.5V72.5H203.5V71.5ZM193 71.5V70.5H189V71.5V72.5H193V71.5ZM198 63L198 62C197.389 62 196.918 62.3948 196.658 62.648C196.347 62.9494 196.043 63.3455 195.758 63.7678C195.182 64.6194 194.58 65.7281 194.043 66.8028C193.502 67.8846 193.011 68.9628 192.655 69.7682C192.477 70.1716 192.333 70.508 192.233 70.7441C192.183 70.8622 192.144 70.9553 192.117 71.0192C192.104 71.0511 192.093 71.0758 192.086 71.0926C192.083 71.101 192.08 71.1075 192.078 71.112C192.077 71.1142 192.077 71.1159 192.076 71.1172C192.076 71.1178 192.076 71.1182 192.076 71.1186C192.076 71.1188 192.075 71.1189 192.075 71.119C192.075 71.1191 192.075 71.1193 193 71.5C193.925 71.8807 193.925 71.8808 193.925 71.8808C193.925 71.8807 193.925 71.8807 193.925 71.8806C193.925 71.8805 193.925 71.8802 193.925 71.8798C193.925 71.8789 193.926 71.8776 193.927 71.8757C193.928 71.872 193.931 71.8663 193.934 71.8586C193.94 71.8433 193.95 71.8202 193.962 71.7899C193.988 71.7293 194.025 71.6398 194.074 71.5254C194.171 71.2967 194.312 70.969 194.485 70.5755C194.833 69.7872 195.31 68.7404 195.832 67.6972C196.357 66.6469 196.912 65.6306 197.414 64.8884C197.668 64.5139 197.883 64.2459 198.051 64.0825C198.269 63.8709 198.236 64 198 64L198 63ZM262.264 131.229C261.267 131.302 261.267 131.302 261.267 131.302C261.267 131.303 261.267 131.303 261.267 131.304C261.267 131.306 261.268 131.308 261.268 131.312C261.268 131.319 261.269 131.33 261.27 131.344C261.272 131.373 261.275 131.417 261.279 131.474C261.287 131.59 261.299 131.762 261.313 131.989C261.343 132.443 261.384 133.114 261.432 133.982C261.528 135.718 261.651 138.239 261.758 141.377C261.972 147.652 262.121 156.391 261.864 166.239C261.349 185.968 259.203 210.031 252.738 227.691L253.677 228.035L254.616 228.379C261.199 210.394 263.347 186.055 263.863 166.291C264.122 156.394 263.972 147.614 263.757 141.308C263.65 138.155 263.526 135.62 263.429 133.871C263.381 132.997 263.339 132.32 263.309 131.86C263.294 131.63 263.283 131.455 263.274 131.337C263.27 131.278 263.267 131.233 263.265 131.203C263.264 131.188 263.263 131.176 263.263 131.169C263.262 131.165 263.262 131.162 263.262 131.16C263.262 131.159 263.262 131.158 263.262 131.157C263.262 131.157 263.262 131.156 262.264 131.229ZM141.123 228.035L142.062 227.692C135.61 210.034 133.54 185.972 133.099 166.244C132.878 156.395 133.063 147.657 133.304 141.381C133.424 138.243 133.558 135.722 133.662 133.987C133.714 133.119 133.759 132.447 133.79 131.994C133.806 131.767 133.818 131.594 133.827 131.479C133.831 131.421 133.834 131.378 133.836 131.349C133.837 131.334 133.838 131.324 133.839 131.317C133.839 131.313 133.839 131.31 133.839 131.309C133.839 131.308 133.839 131.307 133.839 131.307C133.839 131.307 133.839 131.306 132.842 131.229C131.845 131.152 131.845 131.152 131.845 131.153C131.845 131.153 131.845 131.154 131.845 131.155C131.845 131.157 131.845 131.16 131.844 131.164C131.844 131.172 131.843 131.183 131.842 131.198C131.84 131.229 131.836 131.273 131.832 131.332C131.823 131.451 131.811 131.626 131.795 131.856C131.763 132.315 131.718 132.993 131.666 133.867C131.561 135.616 131.426 138.151 131.306 141.304C131.064 147.61 130.877 156.391 131.099 166.288C131.542 186.052 133.612 210.393 140.184 228.378L141.123 228.035ZM132.842 131.229L133.406 132.055L164.381 110.917L163.818 110.091L163.254 109.265L132.279 130.403L132.842 131.229ZM229.449 110.091L228.907 110.932L261.723 132.07L262.264 131.229L262.806 130.388L229.99 109.25L229.449 110.091ZM163.818 110.091L164.251 110.992L189.374 98.9011L188.94 98L188.507 97.0989L163.384 109.19L163.818 110.091ZM205.697 98L205.243 98.8912L228.995 110.982L229.449 110.091L229.903 109.2L206.15 97.1088L205.697 98ZM253.677 228.035L252.738 227.691C243.502 252.925 219.126 282.388 205.776 297.334L206.521 298L207.267 298.666C220.601 283.739 245.232 254.017 254.616 228.379L253.677 228.035ZM188.513 298L189.256 297.331C175.814 282.398 151.298 252.967 142.062 227.692L141.123 228.035L140.184 228.378C149.569 254.063 174.345 283.755 187.77 298.669L188.513 298ZM257.326 137.238C256.329 137.312 256.329 137.312 256.329 137.312C256.329 137.312 256.329 137.313 256.329 137.314C256.329 137.315 256.329 137.318 256.33 137.321C256.33 137.327 256.331 137.337 256.332 137.35C256.334 137.376 256.336 137.416 256.34 137.468C256.347 137.573 256.358 137.73 256.371 137.936C256.398 138.349 256.436 138.96 256.48 139.749C256.568 141.328 256.681 143.621 256.779 146.476C256.974 152.186 257.111 160.135 256.876 169.095C256.404 187.046 254.438 208.93 248.522 224.986L249.46 225.332L250.398 225.678C256.434 209.296 258.402 187.134 258.875 169.148C259.112 160.138 258.974 152.147 258.777 146.407C258.679 143.537 258.566 141.229 258.477 139.638C258.433 138.842 258.394 138.225 258.367 137.807C258.353 137.597 258.343 137.438 258.335 137.33C258.331 137.276 258.329 137.235 258.327 137.208C258.326 137.194 258.325 137.184 258.324 137.176C258.324 137.173 258.324 137.17 258.324 137.168C258.324 137.167 258.324 137.167 258.324 137.166C258.324 137.166 258.324 137.165 257.326 137.238ZM146.357 225.332L147.295 224.987C141.391 208.934 139.495 187.051 139.09 169.1C138.888 160.14 139.058 152.19 139.278 146.48C139.389 143.626 139.511 141.332 139.606 139.754C139.654 138.964 139.695 138.354 139.723 137.941C139.738 137.735 139.749 137.578 139.757 137.473C139.761 137.42 139.764 137.381 139.766 137.355C139.767 137.342 139.767 137.332 139.768 137.325C139.768 137.322 139.768 137.32 139.768 137.318C139.769 137.318 139.769 137.317 139.769 137.317C139.769 137.316 139.769 137.316 138.772 137.238C137.775 137.161 137.775 137.161 137.775 137.162C137.775 137.162 137.775 137.163 137.774 137.164C137.774 137.166 137.774 137.168 137.774 137.172C137.773 137.179 137.772 137.189 137.771 137.203C137.769 137.231 137.766 137.272 137.762 137.325C137.754 137.433 137.743 137.593 137.728 137.802C137.699 138.221 137.658 138.837 137.61 139.633C137.514 141.225 137.391 143.533 137.28 146.403C137.058 152.143 136.888 160.135 137.091 169.145C137.496 187.131 139.393 209.295 145.418 225.677L146.357 225.332ZM138.772 137.238L139.333 138.066L167.707 118.831L167.146 118.003L166.585 117.175L138.211 136.411L138.772 137.238ZM227.266 118.003L226.727 118.845L256.787 138.081L257.326 137.238L257.865 136.396L227.805 117.161L227.266 118.003ZM167.146 118.003L167.608 118.89L188.712 107.887L188.25 107L187.788 106.113L166.684 117.116L167.146 118.003ZM207 107L206.523 107.879L226.789 118.882L227.266 118.003L227.743 117.124L207.477 106.121L207 107ZM249.46 225.332L248.522 224.986C240.063 247.942 218.841 274.753 206.631 288.331L207.375 289L208.119 289.669C220.353 276.063 241.8 249.014 250.398 225.678L249.46 225.332ZM189 289L189.741 288.329C177.441 274.754 155.751 247.976 147.295 224.987L146.357 225.332L145.418 225.677C154.019 249.061 175.948 276.085 188.259 289.671L189 289ZM217.5 135.5L216.658 136.04C220.066 141.351 222.166 144.318 223.194 147.414C224.192 150.418 224.181 153.596 223.037 159.303L224.017 159.5L224.998 159.697C226.166 153.871 226.254 150.281 225.092 146.784C223.962 143.379 221.647 140.112 218.342 134.96L217.5 135.5ZM224.017 159.5L224.798 160.125L228.798 155.125L228.017 154.5L227.236 153.875L223.236 158.875L224.017 159.5ZM228.017 154.5L227.452 155.325C233.301 159.33 236.967 162.92 239.533 167.15C242.106 171.393 243.619 176.356 245.038 183.203L246.017 183L246.996 182.797C245.565 175.887 243.997 170.653 241.243 166.113C238.48 161.558 234.572 157.777 228.582 153.675L228.017 154.5ZM246.017 183L246.588 182.179L235.088 174.179L234.517 175L233.946 175.821L245.446 183.821L246.017 183ZM234.517 175L233.751 175.642C240.828 184.083 244.426 190.614 245.528 196.772C246.625 202.904 245.273 208.819 242.1 216.101L243.017 216.5L243.934 216.899C247.177 209.455 248.694 203.11 247.497 196.419C246.304 189.753 242.444 182.898 235.283 174.358L234.517 175ZM243.017 216.5L243.895 216.021L237.895 205.021L237.017 205.5L236.139 205.979L242.139 216.979L243.017 216.5ZM229.517 232L230.516 232.042L231.016 220.042L230.017 220L229.018 219.958L228.518 231.958L229.517 232ZM210.017 244.5C210.857 243.958 210.858 243.958 210.858 243.959C210.858 243.959 210.858 243.959 210.858 243.959C210.858 243.959 210.858 243.959 210.858 243.959C210.857 243.958 210.856 243.956 210.855 243.954C210.851 243.948 210.846 243.94 210.838 243.927C210.823 243.902 210.798 243.863 210.766 243.809C210.702 243.701 210.607 243.538 210.488 243.321C210.251 242.887 209.921 242.242 209.559 241.413C208.834 239.752 207.987 237.363 207.504 234.461C206.539 228.673 207.012 220.825 212.834 212.577L212.017 212L211.2 211.423C205.023 220.175 204.495 228.577 205.531 234.789C206.047 237.887 206.95 240.435 207.726 242.212C208.114 243.102 208.471 243.8 208.734 244.281C208.865 244.521 208.973 244.707 209.049 244.835C209.088 244.899 209.118 244.948 209.14 244.983C209.15 245 209.159 245.014 209.165 245.024C209.168 245.029 209.171 245.033 209.173 245.036C209.174 245.037 209.175 245.039 209.175 245.04C209.176 245.04 209.176 245.041 209.176 245.041C209.177 245.042 209.177 245.042 210.017 244.5ZM212.017 212L212.834 212.577C213.73 211.307 214.724 210.183 215.735 209.092C216.732 208.016 217.775 206.942 218.69 205.838C220.552 203.592 222.017 201.072 222.017 197.5H221.017H220.017C220.017 200.428 218.853 202.508 217.15 204.562C216.282 205.609 215.31 206.609 214.268 207.733C213.241 208.842 212.174 210.043 211.2 211.423L212.017 212ZM221.017 197.5L221.996 197.703C223.55 190.195 221.874 184.933 219.739 181.531C218.679 179.841 217.518 178.629 216.615 177.835C216.164 177.438 215.775 177.144 215.495 176.947C215.355 176.848 215.241 176.773 215.16 176.722C215.119 176.696 215.087 176.676 215.063 176.661C215.051 176.654 215.041 176.648 215.034 176.644C215.03 176.642 215.027 176.64 215.024 176.638C215.023 176.637 215.022 176.637 215.021 176.636C215.02 176.636 215.02 176.635 215.019 176.635C215.019 176.635 215.018 176.635 214.517 177.5C214.016 178.365 214.016 178.365 214.015 178.365C214.015 178.365 214.015 178.365 214.014 178.364C214.014 178.364 214.014 178.364 214.013 178.364C214.013 178.364 214.013 178.364 214.014 178.364C214.016 178.365 214.02 178.368 214.026 178.371C214.038 178.378 214.058 178.391 214.086 178.409C214.143 178.445 214.23 178.502 214.344 178.582C214.571 178.742 214.902 178.992 215.294 179.337C216.079 180.027 217.105 181.096 218.045 182.594C219.911 185.567 221.485 190.305 220.038 197.297L221.017 197.5ZM221.017 222.5C220.028 222.352 220.028 222.352 220.028 222.352C220.028 222.352 220.028 222.352 220.028 222.352C220.028 222.353 220.028 222.353 220.028 222.353C220.028 222.354 220.028 222.355 220.027 222.357C220.027 222.361 220.026 222.366 220.025 222.374C220.022 222.389 220.019 222.413 220.014 222.444C220.004 222.507 219.989 222.6 219.969 222.721C219.929 222.963 219.869 223.316 219.788 223.755C219.627 224.633 219.383 225.854 219.057 227.222C218.398 229.983 217.424 233.243 216.146 235.509L217.017 236L217.888 236.491C219.311 233.967 220.336 230.477 221.002 227.686C221.339 226.277 221.589 225.021 221.755 224.117C221.839 223.664 221.901 223.299 221.943 223.046C221.964 222.92 221.979 222.821 221.99 222.754C221.995 222.72 221.999 222.694 222.002 222.676C222.003 222.667 222.004 222.66 222.005 222.656C222.005 222.653 222.006 222.651 222.006 222.65C222.006 222.649 222.006 222.649 222.006 222.648C222.006 222.648 222.006 222.648 222.006 222.648C222.006 222.648 222.006 222.648 221.017 222.5ZM217.017 236L216.146 235.509C215.147 237.282 213.458 239.34 211.981 240.987C211.249 241.803 210.582 242.504 210.098 243.001C209.856 243.249 209.66 243.446 209.525 243.58C209.458 243.647 209.406 243.699 209.371 243.733C209.354 243.75 209.341 243.763 209.332 243.771C209.328 243.776 209.325 243.779 209.322 243.781C209.321 243.782 209.321 243.782 209.32 243.783C209.32 243.783 209.32 243.783 209.32 243.783C209.32 243.783 209.32 243.783 209.32 243.783C209.32 243.783 209.32 243.783 210.017 244.5C210.714 245.217 210.714 245.217 210.715 245.217C210.715 245.217 210.715 245.217 210.715 245.216C210.715 245.216 210.715 245.216 210.716 245.216C210.717 245.215 210.718 245.214 210.719 245.212C210.722 245.21 210.725 245.206 210.73 245.201C210.74 245.191 210.755 245.177 210.774 245.159C210.812 245.121 210.867 245.067 210.937 244.997C211.078 244.856 211.281 244.652 211.53 244.396C212.029 243.885 212.715 243.163 213.47 242.322C214.964 240.656 216.776 238.464 217.888 236.491L217.017 236ZM221.517 236.5V235.5C221.897 235.5 222.136 235.712 222.234 235.827C222.326 235.935 222.362 236.03 222.369 236.047C222.385 236.089 222.377 236.085 222.363 235.989C222.338 235.817 222.317 235.532 222.306 235.142C222.283 234.376 222.298 233.338 222.329 232.279C222.36 231.226 222.407 230.17 222.446 229.377C222.465 228.981 222.483 228.651 222.495 228.42C222.501 228.304 222.507 228.214 222.51 228.152C222.512 228.121 222.513 228.098 222.514 228.082C222.515 228.074 222.515 228.068 222.515 228.064C222.515 228.062 222.515 228.061 222.515 228.06C222.515 228.06 222.515 228.059 222.515 228.059C222.515 228.059 222.515 228.059 222.515 228.059C222.515 228.059 222.515 228.059 221.517 228C220.519 227.941 220.519 227.941 220.519 227.941C220.519 227.942 220.519 227.942 220.519 227.942C220.519 227.942 220.519 227.943 220.519 227.943C220.519 227.944 220.519 227.946 220.518 227.948C220.518 227.952 220.518 227.958 220.517 227.967C220.516 227.983 220.515 228.007 220.513 228.039C220.51 228.102 220.505 228.194 220.498 228.311C220.485 228.545 220.468 228.879 220.448 229.279C220.409 230.08 220.362 231.149 220.33 232.221C220.299 233.287 220.282 234.374 220.307 235.201C220.319 235.609 220.341 235.988 220.384 236.28C220.404 236.417 220.437 236.595 220.501 236.762C220.531 236.841 220.593 236.984 220.712 237.125C220.838 237.271 221.106 237.5 221.517 237.5V236.5ZM221.517 228L222.513 227.909L222.013 222.409L221.017 222.5L220.021 222.591L220.521 228.091L221.517 228ZM230.017 220C229.05 219.745 229.05 219.744 229.05 219.744C229.05 219.744 229.05 219.744 229.05 219.745C229.05 219.745 229.05 219.745 229.05 219.745C229.05 219.746 229.05 219.747 229.049 219.748C229.049 219.751 229.047 219.755 229.046 219.761C229.043 219.773 229.038 219.791 229.031 219.816C229.018 219.864 228.999 219.936 228.973 220.029C228.921 220.216 228.844 220.489 228.745 220.828C228.547 221.508 228.259 222.453 227.903 223.514C227.185 225.654 226.212 228.196 225.155 229.993L226.017 230.5L226.879 231.007C228.047 229.022 229.074 226.314 229.8 224.15C230.166 223.058 230.461 222.088 230.665 221.389C230.767 221.04 230.846 220.758 230.9 220.563C230.927 220.465 230.948 220.389 230.962 220.337C230.969 220.311 230.974 220.291 230.978 220.277C230.98 220.271 230.981 220.265 230.982 220.262C230.983 220.26 230.983 220.258 230.983 220.257C230.984 220.257 230.984 220.256 230.984 220.256C230.984 220.256 230.984 220.256 230.984 220.256C230.984 220.256 230.984 220.255 230.017 220ZM226.017 230.5L225.155 229.993C224.432 231.223 223.452 232.693 222.594 233.852C222.164 234.433 221.778 234.917 221.48 235.248C221.328 235.416 221.219 235.522 221.152 235.579C221.117 235.608 221.116 235.604 221.143 235.589C221.147 235.587 221.29 235.5 221.517 235.5V236.5V237.5C221.807 237.5 222.028 237.386 222.125 237.331C222.244 237.264 222.35 237.184 222.435 237.113C222.606 236.969 222.787 236.784 222.965 236.587C223.325 236.187 223.755 235.645 224.201 235.042C225.098 233.831 226.117 232.302 226.879 231.007L226.017 230.5ZM237.017 205.5C236.059 205.785 236.059 205.785 236.059 205.785C236.059 205.785 236.059 205.785 236.059 205.785C236.059 205.785 236.059 205.785 236.059 205.785C236.059 205.786 236.059 205.788 236.06 205.789C236.061 205.793 236.063 205.799 236.065 205.808C236.07 205.825 236.078 205.85 236.088 205.885C236.107 205.954 236.136 206.057 236.173 206.192C236.246 206.461 236.349 206.855 236.468 207.346C236.705 208.329 237.001 209.698 237.239 211.242C237.723 214.376 237.935 218.047 237.067 220.688L238.017 221L238.967 221.312C239.994 218.19 239.706 214.111 239.216 210.937C238.967 209.325 238.658 207.9 238.412 206.877C238.289 206.365 238.18 205.953 238.103 205.667C238.064 205.524 238.033 205.413 238.011 205.337C238 205.298 237.991 205.269 237.985 205.248C237.983 205.238 237.98 205.23 237.979 205.225C237.978 205.222 237.977 205.22 237.977 205.218C237.976 205.217 237.976 205.217 237.976 205.216C237.976 205.216 237.976 205.216 237.976 205.215C237.976 205.215 237.976 205.215 237.017 205.5ZM238.017 221L237.067 220.688C236.29 223.053 234.291 225.671 232.391 227.761C231.456 228.791 230.571 229.664 229.92 230.28C229.595 230.587 229.329 230.83 229.145 230.994C229.053 231.077 228.982 231.139 228.935 231.181C228.911 231.202 228.893 231.218 228.881 231.228C228.876 231.233 228.871 231.236 228.869 231.239C228.867 231.24 228.867 231.241 228.866 231.241C228.866 231.241 228.866 231.241 228.866 231.241C228.866 231.241 228.866 231.241 228.866 231.241C228.866 231.241 228.866 231.241 229.517 232C230.169 232.759 230.169 232.759 230.169 232.758C230.169 232.758 230.169 232.758 230.169 232.758C230.17 232.758 230.17 232.757 230.171 232.757C230.172 232.756 230.173 232.754 230.175 232.753C230.179 232.749 230.185 232.745 230.192 232.738C230.206 232.726 230.227 232.708 230.253 232.685C230.306 232.639 230.383 232.571 230.481 232.483C230.676 232.308 230.955 232.054 231.294 231.733C231.972 231.092 232.894 230.182 233.871 229.106C235.798 226.986 238.049 224.105 238.967 221.312L238.017 221ZM215.017 204L216.017 204.021C216.103 199.925 215.826 197.528 214.471 193.201L213.517 193.5L212.563 193.799C213.849 197.908 214.099 200.088 214.017 203.979L215.017 204ZM213.517 193.5L212.525 193.372C211.668 199.998 210.691 203.991 209.321 206.484C208.65 207.706 207.893 208.549 207.017 209.165C206.136 209.785 205.085 210.21 203.78 210.529L204.017 211.5L204.254 212.471C205.714 212.115 207.019 211.609 208.169 210.8C209.325 209.986 210.276 208.899 211.074 207.447C212.643 204.591 213.651 200.259 214.509 193.628L213.517 193.5ZM204.017 211.5L205.012 211.601C205.506 206.759 205.04 204.424 204.494 199.392L203.5 199.5L202.506 199.608C203.061 204.725 203.49 206.815 203.022 211.399L204.017 211.5ZM192.517 216.5L193.514 216.576C193.689 214.279 193.832 212.19 193.777 210.339C193.722 208.487 193.469 206.798 192.805 205.318C191.43 202.252 188.474 200.449 183.191 199.515L183.017 200.5L182.843 201.485C187.859 202.371 190.005 203.961 190.98 206.137C191.492 207.278 191.726 208.672 191.778 210.399C191.829 212.127 191.696 214.114 191.52 216.424L192.517 216.5ZM183.017 200.5L182.723 199.544C173.866 202.273 168.053 203.606 163.89 203.731C159.816 203.853 157.384 202.819 155.202 200.771L154.517 201.5L153.833 202.229C156.436 204.672 159.397 205.867 163.95 205.73C168.412 205.596 174.456 204.184 183.312 201.456L183.017 200.5ZM214.517 177.5C213.632 177.966 213.632 177.966 213.632 177.966C213.632 177.966 213.632 177.966 213.632 177.966C213.632 177.966 213.632 177.966 213.633 177.966C213.633 177.967 213.634 177.968 213.634 177.97C213.636 177.973 213.639 177.978 213.642 177.985C213.65 177.999 213.661 178.021 213.675 178.049C213.705 178.106 213.749 178.191 213.805 178.303C213.917 178.525 214.078 178.851 214.274 179.26C214.665 180.079 215.189 181.227 215.722 182.545C216.802 185.21 217.872 188.456 218.019 191.057L219.017 191L220.016 190.943C219.849 187.995 218.669 184.492 217.576 181.794C217.024 180.43 216.482 179.244 216.079 178.398C215.876 177.975 215.709 177.636 215.591 177.402C215.532 177.285 215.485 177.194 215.453 177.132C215.437 177.101 215.425 177.077 215.416 177.061C215.412 177.053 215.408 177.046 215.406 177.042C215.405 177.04 215.404 177.038 215.403 177.037C215.403 177.036 215.403 177.035 215.402 177.035C215.402 177.035 215.402 177.035 215.402 177.034C215.402 177.034 215.402 177.034 214.517 177.5ZM219.017 191L218.019 191.057C218.166 193.655 217.282 196.797 216.283 199.332C215.79 200.584 215.282 201.653 214.891 202.386C214.694 202.756 214.535 203.024 214.429 203.182C214.371 203.269 214.352 203.288 214.366 203.273C214.372 203.267 214.387 203.251 214.411 203.23C214.432 203.211 214.479 203.172 214.549 203.131C214.608 203.098 214.762 203.017 214.98 203.006C215.247 202.993 215.542 203.09 215.758 203.328L215.017 204L214.276 204.672C214.498 204.917 214.802 205.017 215.079 205.004C215.308 204.992 215.473 204.907 215.546 204.866C215.694 204.78 215.795 204.674 215.833 204.633C215.929 204.529 216.019 204.403 216.093 204.293C216.25 204.057 216.443 203.726 216.656 203.327C217.084 202.525 217.623 201.387 218.144 200.065C219.173 197.454 220.188 193.983 220.016 190.943L219.017 191ZM154.517 201.5L155.254 202.176C156.555 200.757 157.466 199.546 158.129 198.208C158.793 196.869 159.18 195.458 159.501 193.677L158.517 193.5L157.533 193.323C157.229 195.011 156.884 196.217 156.337 197.32C155.79 198.424 155.014 199.478 153.78 200.824L154.517 201.5ZM158.517 193.5L158.021 192.632C154.285 194.765 151.227 198.376 150.81 198.793L151.517 199.5L152.224 200.207C152.808 199.624 155.582 196.327 159.013 194.368L158.517 193.5ZM151.517 199.5L150.81 198.793C150.984 198.619 151.288 198.481 151.633 198.558C151.887 198.614 152.019 198.76 152.033 198.774C152.072 198.816 152.04 198.794 151.959 198.613C151.814 198.293 151.642 197.777 151.48 197.18C151.32 196.593 151.181 195.973 151.094 195.468C151.05 195.214 151.021 195.003 151.008 194.847C150.991 194.645 151.011 194.649 150.986 194.746L150.017 194.5L149.048 194.254C148.98 194.521 148.999 194.825 149.015 195.015C149.035 195.25 149.074 195.523 149.123 195.809C149.223 196.383 149.376 197.065 149.55 197.705C149.722 198.336 149.926 198.973 150.137 199.438C150.232 199.649 150.373 199.927 150.571 200.139C150.664 200.239 150.873 200.437 151.199 200.51C151.616 200.603 151.988 200.444 152.224 200.207L151.517 199.5ZM150.017 194.5L150.679 195.25C163.234 184.168 169.21 176.809 175.929 161.911L175.017 161.5L174.106 161.089C167.524 175.684 161.738 182.821 149.355 193.75L150.017 194.5ZM207.017 156L207.993 156.219C209.061 151.464 209.334 148.37 209.016 141.95L208.017 142L207.018 142.05C207.329 148.32 207.064 151.23 206.041 155.781L207.017 156ZM208.017 142L207.267 142.661C209.352 145.03 210.736 146.767 211.404 148.715C212.055 150.612 212.061 152.832 211.058 156.216L212.017 156.5L212.976 156.784C214.048 153.166 214.128 150.491 213.296 148.066C212.482 145.692 210.829 143.68 208.768 141.339L208.017 142ZM212.017 156.5C212.843 157.064 212.843 157.064 212.843 157.064C212.843 157.064 212.843 157.064 212.843 157.064C212.843 157.065 212.842 157.065 212.842 157.065C212.842 157.065 212.842 157.065 212.842 157.066C212.842 157.066 212.842 157.066 212.842 157.065C212.843 157.064 212.844 157.062 212.847 157.059C212.851 157.052 212.86 157.04 212.871 157.025C212.894 156.993 212.93 156.945 212.977 156.886C213.071 156.767 213.203 156.611 213.355 156.46C213.511 156.305 213.668 156.176 213.809 156.091C213.957 156.001 214.023 156 214.017 156V155V154C213.523 154 213.095 154.186 212.776 154.378C212.451 154.574 212.169 154.82 211.947 155.04C211.721 155.264 211.536 155.483 211.408 155.645C211.343 155.727 211.292 155.796 211.255 155.846C211.237 155.872 211.222 155.892 211.211 155.907C211.206 155.915 211.202 155.921 211.198 155.926C211.196 155.929 211.195 155.931 211.194 155.932C211.193 155.933 211.193 155.934 211.192 155.935C211.192 155.935 211.192 155.935 211.192 155.936C211.192 155.936 211.191 155.936 211.191 155.936C211.191 155.936 211.191 155.936 212.017 156.5ZM214.017 155V156C214.011 156 214.077 156.001 214.225 156.091C214.367 156.176 214.523 156.305 214.679 156.46C214.832 156.611 214.963 156.767 215.058 156.886C215.104 156.945 215.14 156.993 215.163 157.025C215.175 157.04 215.183 157.052 215.188 157.059C215.19 157.062 215.192 157.064 215.192 157.065C215.193 157.066 215.193 157.066 215.192 157.066C215.192 157.065 215.192 157.065 215.192 157.065C215.192 157.065 215.192 157.065 215.192 157.064C215.192 157.064 215.191 157.064 215.191 157.064C215.191 157.064 215.191 157.064 216.017 156.5C216.843 155.936 216.843 155.936 216.843 155.936C216.843 155.936 216.843 155.936 216.843 155.936C216.842 155.935 216.842 155.935 216.842 155.935C216.842 155.934 216.841 155.933 216.84 155.932C216.839 155.931 216.838 155.929 216.836 155.926C216.833 155.921 216.828 155.915 216.823 155.907C216.812 155.892 216.798 155.872 216.779 155.846C216.743 155.796 216.691 155.727 216.626 155.645C216.498 155.483 216.313 155.264 216.088 155.04C215.866 154.82 215.583 154.574 215.258 154.378C214.94 154.186 214.511 154 214.017 154V155ZM193.517 174L193.92 173.085C191.316 171.938 189.087 171.04 187.198 170.447C185.322 169.857 183.701 169.541 182.338 169.622C180.929 169.705 179.76 170.22 178.921 171.286C178.122 172.3 177.712 173.704 177.523 175.389L178.517 175.5L179.511 175.611C179.683 174.073 180.032 173.107 180.493 172.523C180.913 171.989 181.504 171.675 182.457 171.618C183.457 171.559 184.802 171.79 186.598 172.355C188.381 172.915 190.531 173.778 193.114 174.915L193.517 174ZM178.517 175.5L177.806 174.797C175.655 176.975 174.74 177.975 174.046 178.982C173.701 179.484 173.417 179.977 173.072 180.58C172.725 181.188 172.303 181.933 171.664 182.979L172.517 183.5L173.37 184.021C174.027 182.947 174.462 182.179 174.809 181.572C175.158 180.961 175.402 180.539 175.693 180.117C176.272 179.278 177.061 178.397 179.229 176.203L178.517 175.5ZM172.517 183.5L172.962 184.396C173.358 184.199 173.594 184.141 173.874 184.067C174.207 183.978 174.58 183.87 175.087 183.556C175.992 182.994 177.342 181.758 180.244 178.687L179.517 178L178.79 177.313C175.844 180.431 174.675 181.458 174.033 181.856C173.766 182.022 173.607 182.068 173.358 182.134C173.056 182.215 172.657 182.314 172.073 182.604L172.517 183.5ZM179.517 178L178.946 178.821C180.699 180.04 182.588 179.217 183.726 178.464C184.331 178.063 184.841 177.611 185.196 177.265C185.375 177.09 185.518 176.939 185.618 176.83C185.668 176.775 185.707 176.73 185.735 176.698C185.749 176.682 185.76 176.67 185.768 176.66C185.773 176.655 185.776 176.651 185.778 176.648C185.78 176.647 185.781 176.646 185.782 176.645C185.782 176.644 185.783 176.644 185.783 176.643C185.783 176.643 185.783 176.643 185.783 176.643C185.784 176.642 185.784 176.642 185.017 176C184.251 175.358 184.251 175.358 184.251 175.357C184.251 175.357 184.251 175.357 184.251 175.357C184.251 175.357 184.251 175.357 184.252 175.357C184.252 175.357 184.252 175.357 184.251 175.357C184.251 175.357 184.25 175.359 184.248 175.361C184.244 175.365 184.238 175.373 184.229 175.383C184.21 175.405 184.181 175.437 184.142 175.48C184.064 175.565 183.947 175.689 183.799 175.833C183.501 176.125 183.089 176.487 182.622 176.796C181.614 177.464 180.752 177.641 180.088 177.179L179.517 178ZM185.017 176L185.115 176.995C187.718 176.74 189.426 176.482 190.738 176.15C192.076 175.812 192.981 175.404 193.977 174.888L193.517 174L193.057 173.112C192.144 173.585 191.389 173.923 190.249 174.211C189.083 174.505 187.495 174.752 184.92 175.005L185.017 176ZM175.017 161.5L175.683 162.246C180.819 157.667 185.386 154.716 189.338 153.453L189.034 152.5L188.73 151.547C184.388 152.935 179.574 156.098 174.352 160.754L175.017 161.5ZM203.5 199.5L202.516 199.323C201.474 205.118 200.455 208.617 198.929 210.953L199.766 211.5L200.603 212.047C202.374 209.337 203.443 205.469 204.484 199.677L203.5 199.5ZM196 215.002L195.507 214.132C194.575 214.66 193.489 215.117 192.198 215.552L192.517 216.5L192.837 217.448C194.203 216.987 195.416 216.482 196.493 215.872L196 215.002ZM180.312 129.858L179.317 129.956C179.843 135.313 180.806 139.396 182.596 142.432C184.418 145.521 187.048 147.447 190.704 148.58L191 147.625L191.296 146.67C188.046 145.663 185.854 144.019 184.319 141.416C182.753 138.76 181.825 135.029 181.307 129.761L180.312 129.858ZM192.389 137L193.072 136.269C190.07 133.463 187.743 131.361 185.157 129.105L184.5 129.858L183.843 130.612C186.409 132.851 188.719 134.938 191.707 137.731L192.389 137Z" fill="#AB904E"/>
</svg>
