<svg width="178" height="178" viewBox="0 0 178 178" fill="none" xmlns="http://www.w3.org/2000/svg">
<circle cx="89" cy="89" r="88" fill="#1F3138" stroke="#AB904E" stroke-width="2"/>
<circle cx="89" cy="89" r="78" fill="#1F3138" stroke="#AB904E" stroke-width="2"/>
<path d="M86.5 153.203L75.1436 121.27L74.7725 120.227L73.7725 120.701L43.1602 135.253L86.5 91.9141V153.203ZM131.839 135.253L101.228 120.701L100.228 120.227L99.8564 121.27L88.5 153.203V91.9141L131.839 135.253ZM85.0859 90.5L41.7461 133.839L56.2988 103.228L56.7734 102.228L55.7305 101.856L23.7969 90.5H85.0859ZM151.203 90.5L119.27 101.856L118.227 102.228L118.701 103.228L133.253 133.839L89.9141 90.5H151.203ZM118.701 75.7725L118.227 76.7725L119.27 77.1436L151.203 88.5H89.9141L133.253 45.1602L118.701 75.7725ZM85.0859 88.5H23.7969L55.7305 77.1436L56.7734 76.7725L56.2988 75.7725L41.7461 45.1602L85.0859 88.5ZM86.5 87.0859L43.1602 43.7461L73.7725 58.2988L74.7725 58.7734L75.1436 57.7305L86.5 25.7959V87.0859ZM99.8564 57.7305L100.228 58.7734L101.228 58.2988L131.839 43.7461L88.5 87.0859V25.7959L99.8564 57.7305Z" stroke="#AB904E" stroke-width="2"/>
<path d="M107.746 104.627C103.189 100.069 94.7178 93.9078 89.6463 90.3529C88.7498 89.7245 87.7245 90.7498 88.3529 91.6463C91.9078 96.7178 98.0692 105.189 102.627 109.746C107.125 114.244 120.764 125.634 129.448 132.801C130.377 133.568 131.568 132.377 130.801 131.448C123.634 122.764 112.244 109.125 107.746 104.627Z" fill="#AB904E"/>
<path d="M98.6445 95.7306C98.9013 95.8956 99.2202 96.1221 99.5628 96.3774C100.318 96.9391 101.181 97.6397 101.729 98.0928C101.744 98.1048 101.759 98.1168 101.773 98.1289C101.962 98.2842 102.144 98.4315 102.355 98.6027C102.428 98.6622 102.504 98.7245 102.587 98.7918C103.069 99.1882 103.742 99.7408 104.906 100.789C105.117 100.968 105.321 101.143 105.529 101.324C105.728 101.497 105.919 101.665 106.118 101.841C106.888 102.527 107.665 103.25 108.391 103.982C109.788 105.399 111.103 106.882 112.404 108.366C113.707 109.858 114.978 111.352 116.245 112.859C116.73 113.437 117.219 114.022 117.699 114.598C117.746 114.653 117.794 114.709 117.843 114.765C118.554 115.587 119.393 116.562 120.061 117.365C120.273 117.62 120.471 117.86 120.639 118.069C121.528 119.177 122.123 119.936 122.611 120.56C122.993 121.029 123.376 121.498 123.758 121.966C125.002 123.49 126.244 125.017 127.484 126.541C128.725 128.065 129.97 129.594 131.209 131.11C131.209 131.11 131.209 131.111 131.209 131.111C131.33 131.249 131.485 131.52 131.533 131.75C131.593 131.995 131.584 132.263 131.51 132.503C131.436 132.744 131.303 132.958 131.13 133.13C130.957 133.302 130.743 133.434 130.502 133.507C130.262 133.58 129.996 133.587 129.752 133.527C129.522 133.477 129.255 133.323 129.118 133.202C129.118 133.202 129.118 133.202 129.118 133.202C128.513 132.702 127.941 132.228 127.385 131.768C125.836 130.487 124.465 129.352 123.175 128.283C122.969 128.117 122.767 127.955 122.577 127.803C122.045 127.377 121.553 126.984 121.09 126.615C120.207 125.911 119.455 125.31 118.846 124.809C118.328 124.382 117.786 123.927 117.273 123.489C116.354 122.707 115.489 121.953 114.797 121.348C114.621 121.194 114.456 121.049 114.303 120.915C113.755 120.458 113.215 120.006 112.69 119.567C112.387 119.312 112.086 119.06 111.79 118.812C111.741 118.761 111.691 118.709 111.641 118.657C111.017 118.007 110.186 117.293 108.967 116.233C108.869 116.147 108.768 116.06 108.664 115.969C108.212 115.574 107.713 115.135 107.169 114.647C106.737 114.259 106.547 114.044 106.39 113.866C106.343 113.814 106.3 113.765 106.255 113.717C106.102 113.551 105.914 113.413 105.695 113.252C105.52 113.123 105.326 112.98 105.119 112.802C104.989 112.689 104.848 112.557 104.707 112.408C103.562 111.194 103.063 110.819 102.678 110.534C102.565 110.449 102.466 110.375 102.372 110.295C102.322 110.252 102.27 110.205 102.218 110.155C101.738 109.69 101.2 109.084 100.795 108.592C100.519 108.258 100.023 107.721 99.5394 107.197C99.3461 106.988 99.1521 106.779 98.9743 106.589C98.7425 106.341 98.443 105.987 98.0964 105.57C97.766 105.173 97.3901 104.715 96.9827 104.232C96.9493 104.193 96.9158 104.153 96.882 104.113C95.756 102.78 95.1801 102.064 94.7138 101.489C94.6453 101.405 94.5794 101.323 94.5148 101.242C94.4543 101.167 94.3948 101.093 94.3355 101.02C93.9476 100.537 93.4743 99.9329 93.0004 99.3208C92.7108 98.9467 92.4193 98.5677 92.1474 98.2142C91.8852 97.8732 91.642 97.557 91.4278 97.281C90.9145 96.5648 90.4096 95.8509 89.9081 95.1341C89.3591 94.3493 88.8217 93.5716 88.2875 92.7913C88.1169 92.5419 87.9449 92.2778 87.7968 92.0361C87.6941 91.8861 87.5641 91.5897 87.5398 91.3663C87.5015 91.1095 87.534 90.8464 87.6211 90.6231C87.715 90.3797 87.8674 90.1822 88.0396 90.0396C88.1583 89.9413 88.2868 89.8679 88.416 89.8179C88.4994 89.7856 88.5827 89.7632 88.6632 89.7495C88.9248 89.7048 89.1518 89.7522 89.3109 89.8239C89.684 90.0072 89.734 90.2285 89.6795 90.3055C89.6187 90.3951 89.4265 90.3674 89.1957 90.4147C89.0982 90.4358 88.9975 90.4745 88.9095 90.5391C88.8822 90.559 88.8561 90.5813 88.8316 90.6059C88.7939 90.6439 88.7606 90.6872 88.734 90.734C88.6952 90.8021 88.6717 90.8776 88.6674 90.9495C88.6634 91.0162 88.6743 91.0785 88.6989 91.1403C88.7313 91.2153 88.7382 91.2203 88.8143 91.3228C88.9907 91.5441 89.1804 91.7946 89.3573 92.0378C89.91 92.7986 90.4669 93.5582 91.0336 94.3246C91.5897 95.0767 92.1466 95.8234 92.7124 96.576C92.9097 96.8385 93.1039 97.096 93.3025 97.3585C94.0668 98.3692 94.841 99.3815 95.6233 100.391C96.0686 100.965 96.5164 101.538 96.9682 102.111C97.3105 102.545 97.6546 102.978 98.0019 103.409C98.684 104.257 99.3764 105.1 100.086 105.935C100.197 106.065 100.307 106.194 100.417 106.322C100.436 106.343 100.455 106.363 100.474 106.384C101.4 107.391 102.338 108.352 103.033 109.035C103.086 109.087 103.137 109.137 103.187 109.186C103.46 109.452 103.679 109.692 103.865 109.894C104.01 110.051 104.143 110.193 104.287 110.327C104.365 110.399 104.474 110.498 104.611 110.622C104.936 110.916 105.422 111.352 105.977 111.857C106.351 112.199 106.757 112.572 107.155 112.949C107.589 113.36 108.105 113.864 108.615 114.357C108.887 114.619 109.155 114.878 109.409 115.118C109.833 115.52 110.209 115.866 110.455 116.068C111.142 116.633 111.926 117.336 112.643 117.975C112.925 118.226 113.197 118.468 113.445 118.685C113.796 118.992 114.103 119.252 114.326 119.42C114.777 119.762 115.145 120.093 115.696 120.587C116.085 120.935 116.554 121.354 117.237 121.94C117.521 122.184 117.775 122.405 118.012 122.613C118.422 122.972 118.757 123.272 119.069 123.551C119.749 124.159 120.277 124.629 121.134 125.297C121.837 125.845 122.573 126.43 123.254 126.992C123.485 127.182 123.724 127.383 123.939 127.566C124.307 127.88 124.761 128.257 125.229 128.644C125.862 129.167 126.554 129.738 127.196 130.29C127.753 130.767 128.186 131.167 128.615 131.559C128.748 131.68 128.857 131.781 128.996 131.906C129.236 132.103 129.472 132.298 129.705 132.49C129.705 132.49 129.705 132.49 129.705 132.49C129.82 132.579 129.868 132.599 129.969 132.628C129.992 132.633 130.015 132.637 130.037 132.639C130.072 132.637 130.107 132.632 130.142 132.622C130.17 132.614 130.197 132.604 130.225 132.59C130.296 132.556 130.368 132.501 130.426 132.426C130.475 132.362 130.513 132.285 130.529 132.206C130.534 132.184 130.537 132.162 130.538 132.14C130.54 132.089 130.534 132.042 130.521 131.995C130.49 131.909 130.485 131.89 130.4 131.779C130.087 131.402 129.777 131.007 129.476 130.624C129.107 130.154 128.733 129.679 128.274 129.133C127.97 128.772 127.6 128.347 127.249 127.944C127.043 127.708 126.832 127.466 126.64 127.242C126.339 126.894 126.058 126.563 125.85 126.302C125.722 126.14 125.623 125.991 125.525 125.842C125.525 125.841 125.525 125.841 125.524 125.84C125.517 125.83 125.511 125.82 125.504 125.81C124.63 124.785 123.752 123.759 122.874 122.739C122.868 122.733 122.863 122.727 122.857 122.721C122.783 122.64 122.709 122.56 122.636 122.479C122.251 122.058 121.875 121.647 121.616 121.392C121.336 121.116 120.685 120.374 119.997 119.595C119.622 119.169 119.237 118.734 118.894 118.353C118.825 118.277 118.759 118.204 118.694 118.133C118.47 117.887 118.277 117.627 118.081 117.365C117.898 117.119 117.712 116.868 117.484 116.609C117.371 116.479 117.244 116.344 117.109 116.199C116.99 116.073 116.864 115.939 116.734 115.794C116.612 115.66 116.363 115.35 116.04 114.953C115.84 114.705 115.613 114.426 115.375 114.137C115.287 114.037 115.198 113.937 115.11 113.837C114.541 113.194 113.964 112.545 113.387 111.897C113.237 111.752 113.104 111.636 112.985 111.546C112.901 111.483 112.823 111.433 112.744 111.383C112.636 111.315 112.525 111.244 112.389 111.134C112.282 111.047 112.173 110.938 112.106 110.848C112.076 110.807 112.057 110.772 112.039 110.74C112.019 110.704 112.001 110.672 111.972 110.639C111.951 110.616 111.925 110.595 111.893 110.57C111.841 110.53 111.774 110.477 111.69 110.383C111.484 110.152 111.239 109.873 111.008 109.609C110.899 109.485 110.79 109.359 110.676 109.23C110.293 108.794 109.906 108.356 109.605 108.033C109.251 107.652 108.782 107.105 108.303 106.563C107.979 106.196 107.635 105.813 107.335 105.499C107.259 105.419 107.182 105.341 107.107 105.267C106.885 105.047 106.64 104.821 106.411 104.615C106.033 104.275 105.663 103.953 105.367 103.657C105.306 103.597 105.244 103.506 105.168 103.396C105.114 103.317 105.05 103.227 104.974 103.127C104.78 102.955 104.593 102.79 104.399 102.62C104.187 102.435 103.978 102.253 103.763 102.068C103.746 102.058 103.729 102.049 103.712 102.039C103.712 102.039 103.712 102.038 103.711 102.038C103.326 101.814 102.796 101.508 102.183 100.92C102.027 100.77 101.941 100.66 101.864 100.562C101.788 100.465 101.72 100.379 101.601 100.275C101.561 100.241 101.517 100.206 101.471 100.171C101.361 100.087 101.235 100 101.101 99.9087C100.832 99.7251 100.534 99.5239 100.266 99.2778C100.248 99.261 100.228 99.2429 100.207 99.2241C100.014 99.0472 99.7249 98.7844 99.4545 98.5027C99.1396 98.2503 98.824 97.9987 98.5077 97.7479C97.9235 97.2847 97.3376 96.8244 96.7487 96.3659C96.3283 96.0386 95.9077 95.713 95.4857 95.3883C94.472 94.6083 93.4513 93.8337 92.4293 93.0684C92.3433 93.004 92.2577 92.94 92.1725 92.8763C91.4252 92.3177 90.7392 91.7376 90.2692 91.2574C89.8019 90.7789 89.5835 90.4356 89.6795 90.3055C89.769 90.171 90.1669 90.2587 90.7758 90.5397C91.3873 90.8226 92.1644 91.2813 92.9357 91.8135C93.0237 91.8742 93.112 91.9353 93.2008 91.9967C94.2555 92.7263 95.3098 93.466 96.3565 94.2143C96.4677 94.2938 96.579 94.3736 96.6906 94.4537C96.7571 94.499 96.8239 94.5448 96.8902 94.5904C97.3809 94.9283 97.8512 95.2251 98.3208 95.5238C98.4285 95.5923 98.5365 95.6611 98.6445 95.7306Z" fill="#AB904E"/>
<path d="M91.0038 113.879C91.0038 107.433 89.3708 97.0866 88.2984 90.9868C88.1088 89.9086 86.6588 89.9086 86.4692 90.9868C85.3968 97.0866 83.7638 107.433 83.7638 113.879C83.7638 120.24 85.3545 137.937 86.427 149.147C86.5416 150.345 88.226 150.345 88.3406 149.147C89.4131 137.937 91.0038 120.24 91.0038 113.879Z" fill="#AB904E"/>
<path d="M90.8585 101.152C90.9234 101.45 90.9887 101.836 91.0504 102.259C91.187 103.19 91.3018 104.295 91.3695 105.004C91.3714 105.023 91.3732 105.042 91.3751 105.061C91.3984 105.303 91.4231 105.537 91.4511 105.807C91.4608 105.9 91.4709 105.999 91.4814 106.104C91.542 106.725 91.6272 107.592 91.7092 109.156C91.7316 109.432 91.7521 109.7 91.7714 109.975C91.7899 110.239 91.8063 110.492 91.8218 110.757C91.8817 111.787 91.92 112.848 91.9162 113.879C91.9012 115.868 91.7825 117.847 91.6533 119.816C91.5199 121.793 91.3619 123.747 91.1918 125.709C91.1265 126.461 91.0586 127.221 90.9903 127.967C90.9851 128.039 90.9798 128.113 90.9744 128.187C90.8959 129.271 90.7996 130.553 90.7044 131.593C90.6742 131.924 90.6438 132.234 90.6147 132.5C90.4605 133.912 90.3445 134.87 90.2477 135.656C90.1873 136.258 90.1264 136.86 90.0654 137.461C89.8669 139.419 89.6657 141.376 89.4652 143.331C89.2647 145.287 89.064 147.248 88.8677 149.195C88.8676 149.196 88.8676 149.197 88.8675 149.197C88.8551 149.38 88.7734 149.68 88.6447 149.878C88.5133 150.093 88.3181 150.276 88.0959 150.393C87.8735 150.512 87.6276 150.569 87.3838 150.569C87.1399 150.568 86.8946 150.509 86.6733 150.39C86.4521 150.273 86.2584 150.09 86.1286 149.874C86.0013 149.677 85.9214 149.379 85.9099 149.196C85.9099 149.196 85.9099 149.196 85.9099 149.196C85.836 148.415 85.7661 147.675 85.6983 146.957C85.5094 144.957 85.3428 143.184 85.1861 141.516C85.1576 141.253 85.1295 140.995 85.1027 140.754C85.028 140.076 84.9573 139.451 84.8912 138.862C84.7649 137.74 84.6578 136.783 84.582 135.998C84.5173 135.331 84.4562 134.625 84.4021 133.953C84.3053 132.75 84.227 131.605 84.166 130.688C84.1505 130.455 84.136 130.235 84.1225 130.032C84.0585 129.322 83.9958 128.621 83.9356 127.939C83.9007 127.544 83.8665 127.153 83.833 126.768C83.8341 126.697 83.8354 126.626 83.8368 126.554C83.8551 125.653 83.7721 124.56 83.6603 122.949C83.6513 122.819 83.6422 122.686 83.6329 122.548C83.5924 121.949 83.5496 121.285 83.5103 120.556C83.4791 119.976 83.497 119.689 83.5113 119.452C83.5155 119.383 83.5195 119.317 83.522 119.252C83.5307 119.027 83.4953 118.796 83.4542 118.527C83.4216 118.312 83.3854 118.074 83.3656 117.801C83.3531 117.63 83.3467 117.436 83.3524 117.231C83.4014 115.563 83.3133 114.946 83.2432 114.472C83.2232 114.332 83.2056 114.209 83.1959 114.087C83.1906 114.02 83.187 113.95 83.1852 113.879C83.1749 113.21 83.2228 112.401 83.2846 111.768C83.3256 111.336 83.3549 110.605 83.3832 109.893C83.3942 109.609 83.4047 109.324 83.4138 109.063C83.4253 108.724 83.4635 108.262 83.5131 107.722C83.5602 107.208 83.6182 106.618 83.6719 105.989C83.6762 105.937 83.6806 105.885 83.6849 105.833C83.8312 104.094 83.9301 103.181 84.007 102.445C84.0185 102.336 84.0297 102.232 84.0408 102.13C84.0512 102.034 84.0614 101.939 84.0717 101.845C84.1387 101.229 84.2311 100.468 84.3289 99.6999C84.3885 99.2306 84.4504 98.7564 84.5081 98.3142C84.5639 97.8877 84.6155 97.4922 84.6592 97.1455C84.8026 96.2762 84.9505 95.4143 85.1027 94.5529C85.2694 93.6096 85.4393 92.6798 85.6133 91.7503C85.6691 91.4533 85.7342 91.1449 85.8003 90.8693C85.8338 90.6907 85.9514 90.3891 86.0922 90.2139C86.2467 90.0053 86.4558 89.8422 86.6753 89.746C86.9137 89.6402 87.1612 89.6083 87.3838 89.6293C87.5372 89.6436 87.68 89.6826 87.8067 89.7386C87.8886 89.7748 87.9633 89.8178 88.0299 89.865C88.2464 90.0184 88.3734 90.2125 88.4352 90.3757C88.5695 90.7691 88.4484 90.961 88.3554 90.9768C88.249 90.9973 88.1327 90.8417 87.9361 90.712C87.8521 90.658 87.7536 90.6141 87.6457 90.5975C87.6124 90.5923 87.5781 90.5896 87.5434 90.5897C87.4899 90.5899 87.4357 90.5969 87.3838 90.6113C87.3082 90.632 87.2382 90.6688 87.1843 90.7166C87.1343 90.7609 87.0979 90.8126 87.0717 90.8738C87.0415 90.9497 87.0429 90.9581 87.0242 91.0844C86.9925 91.3656 86.9495 91.6768 86.9026 91.9739C86.7554 92.9028 86.6122 93.8336 86.4709 94.7763C86.3323 95.7014 86.1981 96.6231 86.066 97.5553C86.0199 97.8805 85.9752 98.1999 85.9299 98.5259C85.7558 99.781 85.5874 101.044 85.427 102.311C85.3357 103.032 85.247 103.754 85.1613 104.479C85.0964 105.028 85.0339 105.577 84.9743 106.128C84.8572 107.209 84.7509 108.295 84.6623 109.387C84.6485 109.557 84.6352 109.727 84.6225 109.895C84.6213 109.923 84.6202 109.951 84.619 109.979C84.5618 111.346 84.5449 112.688 84.5541 113.663C84.5547 113.737 84.5552 113.809 84.5557 113.879C84.5606 114.26 84.5463 114.584 84.5349 114.859C84.5264 115.072 84.52 115.266 84.5274 115.463C84.5314 115.57 84.5382 115.717 84.5474 115.901C84.5691 116.339 84.6049 116.991 84.6398 117.74C84.6633 118.246 84.6861 118.797 84.701 119.345C84.717 119.943 84.7257 120.664 84.738 121.373C84.7445 121.751 84.7518 122.124 84.7612 122.472C84.7769 123.057 84.7984 123.567 84.8292 123.884C84.9154 124.77 84.9725 125.821 85.0278 126.78C85.0494 127.156 85.0708 127.521 85.0928 127.849C85.1241 128.314 85.1573 128.715 85.1955 128.992C85.2729 129.552 85.2993 130.047 85.3397 130.785C85.3685 131.306 85.4034 131.935 85.472 132.832C85.5005 133.206 85.5241 133.542 85.5448 133.855C85.5806 134.399 85.6054 134.849 85.629 135.267C85.6801 136.178 85.7209 136.883 85.8546 137.962C85.9642 138.845 86.0709 139.78 86.1549 140.659C86.1835 140.956 86.211 141.267 86.2332 141.549C86.271 142.031 86.3263 142.619 86.3837 143.224C86.4612 144.041 86.5464 144.934 86.6104 145.778C86.6665 146.509 86.6901 147.099 86.7167 147.679C86.7248 147.858 86.7305 148.007 86.7408 148.194C86.7704 148.503 86.7998 148.808 86.8288 149.108C86.8288 149.108 86.8288 149.108 86.8288 149.108C86.8472 149.253 86.8672 149.301 86.9181 149.392C86.9303 149.412 86.9438 149.431 86.9582 149.448C86.9838 149.472 87.0127 149.493 87.0447 149.51C87.0695 149.524 87.0965 149.537 87.1254 149.547C87.2001 149.573 87.2901 149.584 87.3838 149.572C87.4637 149.563 87.5451 149.535 87.612 149.49C87.6309 149.478 87.6488 149.464 87.6654 149.449C87.7028 149.415 87.732 149.378 87.7556 149.335C87.7948 149.252 87.8045 149.235 87.8228 149.097C87.8682 148.608 87.9277 148.11 87.9861 147.627C88.0572 147.033 88.1294 146.433 88.1905 145.723C88.2309 145.252 88.2702 144.69 88.3067 144.157C88.3282 143.844 88.3503 143.524 88.3718 143.23C88.4054 142.771 88.4409 142.338 88.4786 142.007C88.5019 141.801 88.5381 141.626 88.574 141.452C88.5742 141.451 88.5744 141.45 88.5746 141.45C88.5771 141.438 88.5795 141.426 88.5819 141.414C88.6888 140.071 88.7927 138.725 88.8932 137.383C88.8936 137.374 88.8939 137.366 88.8943 137.358C88.8991 137.249 88.904 137.14 88.9089 137.031C88.9344 136.46 88.959 135.904 88.9565 135.541C88.9539 135.147 89.0175 134.163 89.0824 133.126C89.1179 132.559 89.1536 131.979 89.1802 131.467C89.1855 131.365 89.1904 131.266 89.1949 131.17C89.2103 130.837 89.2572 130.517 89.3048 130.194C89.3493 129.891 89.3947 129.582 89.4171 129.237C89.4283 129.065 89.4345 128.879 89.4409 128.682C89.4465 128.509 89.4524 128.325 89.4624 128.13C89.4716 127.949 89.5138 127.554 89.5672 127.045C89.6003 126.728 89.6375 126.37 89.6736 125.998C89.6818 125.864 89.6901 125.731 89.6982 125.598C89.7506 124.741 89.8021 123.874 89.8514 123.008C89.8475 122.799 89.8358 122.623 89.8154 122.476C89.8007 122.371 89.7807 122.282 89.7602 122.19C89.7323 122.065 89.7035 121.937 89.685 121.763C89.6707 121.626 89.6713 121.472 89.6881 121.361C89.6958 121.31 89.7068 121.272 89.7166 121.237C89.728 121.198 89.738 121.162 89.7406 121.118C89.7424 121.087 89.7382 121.054 89.7333 121.013C89.7253 120.948 89.715 120.864 89.7223 120.738C89.74 120.428 89.7642 120.058 89.7874 119.708C89.7983 119.543 89.8093 119.377 89.8205 119.205C89.8584 118.626 89.8935 118.043 89.9096 117.601C89.929 117.082 89.9833 116.363 90.0283 115.641C90.0594 115.153 90.0864 114.639 90.0963 114.205C90.0988 114.094 90.0997 113.985 90.0991 113.879C90.0975 113.567 90.0838 113.234 90.0676 112.926C90.0411 112.418 90.0072 111.929 90.007 111.51C90.007 111.425 90.0266 111.317 90.0509 111.185C90.0681 111.091 90.0874 110.982 90.1036 110.858C90.0884 110.599 90.0729 110.351 90.0557 110.093C90.0369 109.811 90.0174 109.536 89.9962 109.253C89.9913 109.234 89.9864 109.215 89.9813 109.196C89.9812 109.196 89.9811 109.196 89.981 109.195C89.867 108.764 89.7085 108.173 89.6914 107.324C89.6869 107.107 89.7036 106.968 89.7187 106.845C89.7334 106.723 89.7465 106.614 89.7352 106.456C89.7314 106.404 89.7254 106.348 89.7176 106.291C89.6992 106.153 89.6711 106.003 89.6409 105.843C89.5806 105.524 89.5126 105.171 89.4968 104.807C89.4957 104.782 89.4946 104.755 89.4933 104.728C89.4816 104.466 89.463 104.076 89.471 103.685C89.4268 103.284 89.3816 102.883 89.3353 102.482C89.2497 101.741 89.1608 101.002 89.0687 100.261C89.0029 99.7322 88.9357 99.2046 88.8669 98.6765C88.7016 97.4082 88.5276 96.1387 88.3461 94.875C88.3308 94.7686 88.3155 94.6627 88.3003 94.5575C88.1669 93.6341 88.092 92.7388 88.0992 92.0669C88.1072 91.3982 88.1954 91.001 88.3554 90.9769C88.5137 90.945 88.7331 91.2884 88.965 91.9177C89.1973 92.5501 89.4224 93.4239 89.5915 94.3457C89.6108 94.4508 89.6301 94.5564 89.6494 94.6627C89.8793 95.9244 90.1018 97.1929 90.3127 98.4622C90.3351 98.597 90.3575 98.7322 90.3797 98.8677C90.3947 98.9467 90.4096 99.0263 90.4242 99.1054C90.5323 99.6914 90.655 100.234 90.7758 100.777C90.8035 100.902 90.8312 101.027 90.8585 101.152Z" fill="#AB904E"/>
<path d="M67.2537 104.627C71.8114 100.069 80.2822 93.9078 85.3537 90.3529C86.2502 89.7245 87.2755 90.7498 86.6471 91.6463C83.0922 96.7178 76.9308 105.189 72.3731 109.746C67.875 114.244 54.2363 125.634 45.5519 132.801C44.6234 133.568 43.4324 132.377 44.1987 131.448C51.3665 122.764 62.7555 109.125 67.2537 104.627Z" fill="#AB904E"/>
<path d="M76.3555 95.7306C76.0987 95.8956 75.7798 96.1221 75.4372 96.3774C74.6823 96.9391 73.8194 97.6397 73.2705 98.0928C73.2559 98.1048 73.2412 98.1168 73.2266 98.1289C73.0383 98.2842 72.856 98.4315 72.6453 98.6027C72.572 98.6622 72.4955 98.7245 72.4133 98.7918C71.9313 99.1882 71.2581 99.7408 70.0941 100.789C69.8835 100.968 69.6792 101.143 69.4712 101.324C69.2718 101.497 69.081 101.665 68.8824 101.841C68.1122 102.527 67.3345 103.25 66.6086 103.982C65.2123 105.399 63.8969 106.882 62.5962 108.366C61.2926 109.858 60.0223 111.352 58.7555 112.859C58.27 113.437 57.7808 114.022 57.3013 114.598C57.254 114.653 57.2059 114.709 57.1572 114.765C56.4463 115.587 55.6074 116.562 54.9393 117.365C54.7268 117.62 54.5294 117.86 54.3614 118.069C53.4719 119.177 52.8769 119.936 52.3894 120.56C52.0067 121.029 51.6237 121.498 51.2417 121.966C49.9979 123.49 48.7562 125.017 47.5158 126.541C46.2747 128.065 45.0297 129.594 43.7915 131.11C43.7911 131.11 43.7908 131.111 43.7905 131.111C43.6699 131.249 43.5153 131.52 43.4668 131.75C43.4071 131.995 43.4159 132.263 43.4902 132.503C43.5637 132.744 43.697 132.958 43.8698 133.13C44.0426 133.302 44.2575 133.434 44.4981 133.507C44.7379 133.58 45.0043 133.587 45.2484 133.527C45.4778 133.477 45.7453 133.323 45.8825 133.202C45.8825 133.202 45.8825 133.202 45.8825 133.202C46.4867 132.702 47.0594 132.228 47.6152 131.768C49.1635 130.487 50.5348 129.352 51.8251 128.283C52.0312 128.117 52.2331 127.955 52.4228 127.803C52.9547 127.377 53.4471 126.984 53.9104 126.615C54.7926 125.911 55.5449 125.31 56.1536 124.809C56.6716 124.382 57.2136 123.927 57.7274 123.489C58.6465 122.707 59.5113 121.953 60.2028 121.348C60.3787 121.194 60.5443 121.049 60.6971 120.915C61.2447 120.458 61.7851 120.006 62.3096 119.567C62.6133 119.312 62.9141 119.06 63.2098 118.812C63.2593 118.761 63.3088 118.709 63.359 118.657C63.9831 118.007 64.8142 117.293 66.0326 116.233C66.1313 116.147 66.2318 116.06 66.3357 115.969C66.7876 115.574 67.2874 115.135 67.8307 114.647C68.2632 114.259 68.453 114.044 68.6105 113.866C68.6569 113.814 68.7002 113.765 68.7448 113.717C68.8978 113.551 69.0861 113.413 69.3049 113.252C69.4802 113.123 69.6743 112.98 69.8811 112.802C70.0108 112.689 70.1524 112.557 70.2933 112.408C71.4383 111.194 71.9374 110.819 72.322 110.534C72.4349 110.449 72.5342 110.375 72.6276 110.295C72.6783 110.252 72.7303 110.205 72.7823 110.155C73.2624 109.69 73.8003 109.084 74.2046 108.592C74.4809 108.258 74.977 107.721 75.4606 107.197C75.6539 106.988 75.8479 106.779 76.0257 106.589C76.2575 106.341 76.557 105.987 76.9036 105.57C77.234 105.173 77.6099 104.715 78.0173 104.232C78.0507 104.193 78.0842 104.153 78.118 104.113C79.244 102.78 79.8199 102.064 80.2862 101.489C80.3547 101.405 80.4206 101.323 80.4852 101.242C80.5457 101.167 80.6052 101.093 80.6645 101.02C81.0524 100.537 81.5257 99.9329 81.9996 99.3208C82.2892 98.9467 82.5807 98.5677 82.8526 98.2142C83.1148 97.8732 83.358 97.557 83.5722 97.281C84.0855 96.5648 84.5904 95.8509 85.0919 95.1341C85.6409 94.3493 86.1783 93.5716 86.7125 92.7913C86.8831 92.5419 87.0551 92.2778 87.2032 92.0361C87.3059 91.8861 87.4359 91.5897 87.4602 91.3663C87.4985 91.1095 87.466 90.8464 87.3789 90.6231C87.285 90.3797 87.1326 90.1822 86.9604 90.0396C86.8417 89.9413 86.7132 89.8679 86.584 89.8179C86.5006 89.7856 86.4173 89.7632 86.3368 89.7495C86.0752 89.7048 85.8482 89.7522 85.6891 89.8239C85.316 90.0072 85.266 90.2285 85.3205 90.3055C85.3813 90.3951 85.5735 90.3674 85.8043 90.4147C85.9018 90.4358 86.0025 90.4745 86.0905 90.5391C86.1178 90.559 86.1439 90.5813 86.1684 90.6059C86.2061 90.6439 86.2394 90.6872 86.266 90.734C86.3048 90.8021 86.3283 90.8776 86.3326 90.9495C86.3366 91.0162 86.3257 91.0785 86.3011 91.1403C86.2687 91.2153 86.2618 91.2203 86.1857 91.3228C86.0093 91.5441 85.8196 91.7946 85.6427 92.0378C85.09 92.7986 84.5331 93.5582 83.9664 94.3246C83.4103 95.0767 82.8534 95.8234 82.2876 96.576C82.0903 96.8385 81.8961 97.096 81.6975 97.3585C80.9332 98.3692 80.159 99.3815 79.3767 100.391C78.9314 100.965 78.4836 101.538 78.0318 102.111C77.6895 102.545 77.3454 102.978 76.9981 103.409C76.316 104.257 75.6236 105.1 74.914 105.935C74.8032 106.065 74.6928 106.194 74.5829 106.322C74.564 106.343 74.5452 106.363 74.5257 106.384C73.5999 107.391 72.6625 108.352 71.9665 109.035C71.9138 109.087 71.8628 109.137 71.8132 109.186C71.5404 109.452 71.3213 109.692 71.1349 109.894C70.9901 110.051 70.8572 110.193 70.7129 110.327C70.6348 110.399 70.5258 110.498 70.3893 110.622C70.0641 110.916 69.578 111.352 69.0234 111.857C68.6488 112.199 68.2433 112.572 67.8451 112.949C67.4111 113.36 66.8954 113.864 66.3852 114.357C66.1135 114.619 65.8445 114.878 65.5913 115.118C65.1669 115.52 64.7907 115.866 64.545 116.068C63.8578 116.633 63.0742 117.336 62.3566 117.975C62.0755 118.226 61.8027 118.468 61.555 118.685C61.2038 118.992 60.897 119.252 60.6744 119.42C60.2231 119.762 59.8547 120.093 59.304 120.587C58.9154 120.935 58.4464 121.354 57.7634 121.94C57.4788 122.184 57.2247 122.405 56.9881 122.613C56.5784 122.972 56.2427 123.272 55.9306 123.551C55.2505 124.159 54.7229 124.629 53.8656 125.297C53.1631 125.845 52.4267 126.43 51.7462 126.992C51.5153 127.182 51.2761 127.383 51.0613 127.566C50.6933 127.88 50.2389 128.257 49.7705 128.644C49.1379 129.167 48.4462 129.738 47.8041 130.29C47.2473 130.767 46.8137 131.167 46.3847 131.559C46.2522 131.68 46.1432 131.781 46.0038 131.906C45.7642 132.103 45.5277 132.298 45.295 132.49C45.295 132.49 45.295 132.49 45.295 132.49C45.1796 132.579 45.1317 132.599 45.0309 132.628C45.0083 132.633 44.9853 132.637 44.9628 132.639C44.9282 132.637 44.893 132.632 44.8577 132.622C44.8304 132.614 44.8026 132.604 44.7752 132.59C44.7039 132.556 44.6321 132.501 44.5741 132.426C44.5246 132.362 44.4868 132.285 44.4709 132.206C44.4663 132.184 44.4634 132.162 44.4622 132.14C44.4596 132.089 44.4656 132.042 44.4793 131.995C44.5099 131.909 44.5151 131.89 44.5999 131.779C44.9133 131.402 45.2234 131.007 45.5241 130.624C45.8933 130.154 46.2668 129.679 46.726 129.133C47.0304 128.772 47.3997 128.347 47.7508 127.944C47.9569 127.708 48.1675 127.466 48.3603 127.242C48.6614 126.894 48.9418 126.563 49.1498 126.302C49.2784 126.14 49.377 125.991 49.4747 125.842C49.4751 125.841 49.4755 125.841 49.4759 125.84C49.4825 125.83 49.4892 125.82 49.4959 125.81C50.3696 124.785 51.2482 123.759 52.1264 122.739C52.1319 122.733 52.1373 122.727 52.1428 122.721C52.2167 122.64 52.2906 122.56 52.364 122.479C52.7493 122.058 53.1254 121.647 53.3838 121.392C53.664 121.116 54.3154 120.374 55.0028 119.595C55.3782 119.169 55.7632 118.734 56.1061 118.353C56.1747 118.277 56.2415 118.204 56.306 118.133C56.5304 117.887 56.7235 117.627 56.9187 117.365C57.1015 117.119 57.2878 116.868 57.5157 116.609C57.6294 116.479 57.7563 116.344 57.8914 116.199C58.01 116.073 58.136 115.939 58.2664 115.794C58.3876 115.66 58.6374 115.35 58.9596 114.953C59.1603 114.705 59.3871 114.426 59.6246 114.137C59.7133 114.037 59.8017 113.937 59.8898 113.837C60.4591 113.194 61.0355 112.545 61.613 111.897C61.7635 111.752 61.8961 111.636 62.0147 111.546C62.0994 111.483 62.1768 111.433 62.2561 111.383C62.3639 111.315 62.4751 111.244 62.6112 111.134C62.7183 111.047 62.8265 110.938 62.8935 110.848C62.9237 110.807 62.943 110.772 62.9606 110.74C62.9807 110.704 62.9986 110.672 63.0277 110.639C63.0488 110.616 63.0752 110.595 63.1075 110.57C63.159 110.53 63.2259 110.477 63.3098 110.383C63.5162 110.152 63.7609 109.873 63.992 109.609C64.1008 109.485 64.2104 109.359 64.324 109.23C64.7069 108.794 65.0943 108.356 65.3954 108.033C65.7487 107.652 66.2184 107.105 66.6972 106.563C67.0206 106.196 67.3649 105.813 67.6649 105.499C67.7414 105.419 67.8178 105.341 67.8934 105.267C68.1152 105.047 68.3601 104.821 68.5892 104.615C68.967 104.275 69.3368 103.953 69.6333 103.657C69.6937 103.597 69.7561 103.506 69.832 103.396C69.8864 103.317 69.9497 103.227 70.0264 103.127C70.2204 102.955 70.4067 102.79 70.6014 102.62C70.8134 102.435 71.0221 102.253 71.2372 102.068C71.254 102.058 71.2707 102.049 71.2878 102.039C71.2881 102.039 71.2884 102.038 71.2887 102.038C71.6741 101.814 72.2044 101.508 72.8169 100.92C72.9733 100.77 73.0595 100.66 73.1362 100.562C73.212 100.465 73.28 100.379 73.3992 100.275C73.4392 100.241 73.4826 100.206 73.5288 100.171C73.6389 100.087 73.7648 100 73.8992 99.9087C74.168 99.7251 74.4655 99.5239 74.734 99.2778C74.7523 99.261 74.772 99.2429 74.7925 99.2241C74.986 99.0472 75.2751 98.7844 75.5455 98.5027C75.8604 98.2503 76.176 97.9987 76.4923 97.7479C77.0765 97.2847 77.6624 96.8244 78.2513 96.3659C78.6717 96.0386 79.0923 95.713 79.5143 95.3883C80.528 94.6083 81.5487 93.8337 82.5707 93.0684C82.6567 93.004 82.7423 92.94 82.8275 92.8763C83.5748 92.3177 84.2608 91.7376 84.7308 91.2574C85.1981 90.7789 85.4165 90.4356 85.3205 90.3055C85.231 90.171 84.8331 90.2587 84.2242 90.5397C83.6127 90.8226 82.8356 91.2813 82.0643 91.8135C81.9763 91.8742 81.888 91.9353 81.7992 91.9967C80.7445 92.7263 79.6902 93.466 78.6435 94.2143C78.5323 94.2938 78.421 94.3736 78.3094 94.4537C78.2429 94.499 78.1761 94.5448 78.1098 94.5904C77.6191 94.9283 77.1488 95.2251 76.6792 95.5238C76.5715 95.5923 76.4635 95.6611 76.3555 95.7306Z" fill="#AB904E"/>
<path d="M62.3709 85.6501C68.8164 85.6501 79.163 87.283 85.2628 88.3554C86.341 88.545 86.341 89.995 85.2628 90.1846C79.163 91.257 68.8164 92.89 62.3709 92.89C56.0095 92.89 38.3122 91.2993 27.1031 90.2268C25.9046 90.1122 25.9046 88.4279 27.1031 88.3132C38.3122 87.2407 56.0095 85.6501 62.3709 85.6501Z" fill="#AB904E"/>
<path d="M75.0974 85.7953C74.7992 85.7304 74.4135 85.6651 73.9908 85.6034C73.0598 85.4668 71.9542 85.352 71.2457 85.2843C71.2269 85.2824 71.208 85.2806 71.1891 85.2787C70.9462 85.2554 70.7131 85.2307 70.443 85.2027C70.3492 85.193 70.251 85.1829 70.1453 85.1724C69.5241 85.1119 68.6574 85.0266 67.0933 84.9446C66.8178 84.9222 66.5493 84.9017 66.2746 84.8824C66.011 84.8639 65.7575 84.8475 65.4921 84.832C64.4629 84.7721 63.4014 84.7339 62.3709 84.7376C60.3813 84.7526 58.4024 84.8713 56.4336 85.0005C54.4568 85.1339 52.5022 85.2919 50.5406 85.462C49.7886 85.5274 49.0291 85.5952 48.2826 85.6635C48.2105 85.6687 48.1371 85.674 48.0629 85.6794C46.9791 85.7579 45.6963 85.8542 44.6564 85.9494C44.3256 85.9797 44.016 86.01 43.7493 86.0391C42.3372 86.1933 41.3798 86.3093 40.5934 86.4061C39.9918 86.4666 39.3893 86.5274 38.7881 86.5884C36.8306 86.7869 34.8734 86.9881 32.9187 87.1886C30.963 87.3892 29.0016 87.5898 27.0542 87.7861C27.0537 87.7862 27.0531 87.7862 27.0527 87.7863C26.8696 87.7987 26.5693 87.8804 26.372 88.0091C26.1562 88.1405 25.9734 88.3357 25.8562 88.5579C25.7379 88.7803 25.6806 89.0262 25.6811 89.27C25.6817 89.5139 25.7401 89.7592 25.8592 89.9805C25.9771 90.2017 26.1601 90.3955 26.3755 90.5252C26.5727 90.6525 26.871 90.7325 27.0536 90.7439C27.0536 90.7439 27.0536 90.7439 27.0536 90.7439C27.8342 90.8178 28.5742 90.8877 29.2924 90.9555C31.2931 91.1444 33.0658 91.311 34.7339 91.4677C34.9969 91.4962 35.2543 91.5243 35.4958 91.5511C36.1732 91.6258 36.799 91.6965 37.388 91.7627C38.5094 91.8889 39.4662 91.996 40.2512 92.0718C40.919 92.1365 41.6244 92.1976 42.297 92.2517C43.4999 92.3485 44.6447 92.4268 45.5616 92.4878C45.7949 92.5033 46.0146 92.5178 46.2172 92.5313C46.9276 92.5954 47.6291 92.658 48.3107 92.7182C48.7053 92.7531 49.0965 92.7874 49.4812 92.8208C49.5522 92.8197 49.6235 92.8184 49.696 92.817C50.5968 92.7987 51.6893 92.8817 53.3006 92.9935C53.4311 93.0025 53.5641 93.0116 53.7017 93.0209C54.3003 93.0614 54.9644 93.1042 55.6934 93.1435C56.2737 93.1748 56.5602 93.1568 56.7972 93.1425C56.8671 93.1383 56.9323 93.1343 56.9979 93.1318C57.2229 93.1231 57.4538 93.1585 57.7222 93.1996C57.9374 93.2322 58.1758 93.2684 58.4484 93.2882C58.6193 93.3008 58.8132 93.3071 59.0182 93.3014C60.6864 93.2524 61.3041 93.3405 61.7779 93.4106C61.9177 93.4306 62.0405 93.4482 62.1627 93.4579C62.2292 93.4633 62.2992 93.4668 62.3709 93.4686C63.0395 93.4789 63.8481 93.431 64.4818 93.3692C64.9135 93.3282 65.6444 93.2989 66.3566 93.2706C66.6411 93.2596 66.9259 93.2491 67.1864 93.24C67.5257 93.2285 67.9874 93.1903 68.5272 93.1407C69.0416 93.0936 69.6312 93.0356 70.2611 92.982C70.3125 92.9776 70.3644 92.9732 70.4165 92.9689C72.1551 92.8226 73.0685 92.7237 73.8049 92.6468C73.9132 92.6353 74.0177 92.6241 74.1201 92.613C74.2161 92.6026 74.3103 92.5924 74.4045 92.5821C75.0201 92.5151 75.7818 92.4227 76.5498 92.325C77.0191 92.2653 77.4932 92.2034 77.9354 92.1457C78.3619 92.0899 78.7575 92.0383 79.1041 91.9946C79.9735 91.8512 80.8353 91.7034 81.6967 91.5511C82.64 91.3844 83.5699 91.2145 84.4994 91.0405C84.7963 90.9847 85.1047 90.9196 85.3804 90.8535C85.559 90.82 85.8605 90.7024 86.0357 90.5616C86.2444 90.4071 86.4074 90.1981 86.5037 89.9785C86.6094 89.7401 86.6413 89.4926 86.6203 89.27C86.606 89.1166 86.567 88.9738 86.511 88.8471C86.4749 88.7652 86.4318 88.6905 86.3846 88.6239C86.2312 88.4074 86.0371 88.2804 85.8739 88.2186C85.4806 88.0843 85.2887 88.2054 85.2728 88.2985C85.2524 88.4048 85.4079 88.5211 85.5377 88.7177C85.5917 88.8017 85.6355 88.9002 85.6521 89.0081C85.6573 89.0415 85.6601 89.0757 85.6599 89.1104C85.6597 89.1639 85.6527 89.2181 85.6383 89.27C85.6176 89.3456 85.5809 89.4156 85.533 89.4695C85.4887 89.5195 85.437 89.5559 85.3758 89.5821C85.2999 89.6123 85.2915 89.6109 85.1652 89.6296C84.884 89.6614 84.5728 89.7043 84.2757 89.7512C83.3469 89.8984 82.416 90.0416 81.4734 90.1829C80.5483 90.3215 79.6265 90.4557 78.6943 90.5878C78.3692 90.6339 78.0498 90.6786 77.7237 90.7239C76.4686 90.898 75.2053 91.0664 73.9386 91.2268C73.2175 91.3181 72.4955 91.4068 71.7709 91.4925C71.222 91.5574 70.6728 91.6199 70.1221 91.6795C69.0403 91.7966 67.9548 91.9029 66.8628 91.9915C66.6922 92.0053 66.5228 92.0186 66.3546 92.0313C66.3267 92.0325 66.2991 92.0336 66.2703 92.0348C64.9038 92.092 63.5611 92.1089 62.5862 92.0997C62.5122 92.0991 62.4405 92.0986 62.3709 92.0981C61.99 92.0932 61.6658 92.1075 61.3908 92.1189C61.1776 92.1274 60.9833 92.1338 60.7866 92.1264C60.68 92.1225 60.5327 92.1156 60.3488 92.1064C59.9108 92.0847 59.2591 92.0489 58.5096 92.014C58.0034 91.9905 57.4527 91.9677 56.9044 91.9528C56.3067 91.9368 55.5861 91.9281 54.8768 91.9158C54.4991 91.9093 54.126 91.902 53.7774 91.8926C53.1929 91.8769 52.6823 91.8554 52.3656 91.8246C51.48 91.7384 50.4289 91.6813 49.4693 91.626C49.0933 91.6045 48.7291 91.583 48.4007 91.561C47.9354 91.5297 47.5347 91.4965 47.258 91.4583C46.6973 91.3809 46.2026 91.3546 45.4643 91.3141C44.9435 91.2853 44.3151 91.2504 43.4178 91.1818C43.0439 91.1533 42.708 91.1297 42.3942 91.109C41.8505 91.0732 41.4006 91.0485 40.9828 91.0249C40.0721 90.9737 39.3668 90.9329 38.2881 90.7993C37.4041 90.6896 36.4694 90.5829 35.5911 90.4989C35.2932 90.4703 34.9823 90.4428 34.7008 90.4207C34.2182 90.3828 33.6309 90.3275 33.0259 90.2701C32.2087 90.1926 31.3157 90.1074 30.4716 90.0434C29.7403 89.9874 29.1507 89.9637 28.5705 89.9371C28.3914 89.929 28.2428 89.9233 28.056 89.913C27.7467 89.8834 27.4417 89.854 27.1416 89.825C27.1416 89.825 27.1416 89.825 27.1416 89.825C26.9968 89.8067 26.9491 89.7866 26.8574 89.7357C26.8376 89.7235 26.8187 89.71 26.8012 89.6956C26.7779 89.67 26.757 89.6411 26.7391 89.6091C26.7253 89.5843 26.713 89.5573 26.7031 89.5284C26.677 89.4537 26.6653 89.3638 26.6772 89.27C26.6871 89.1901 26.7149 89.1087 26.7594 89.0418C26.7718 89.0229 26.7856 89.005 26.8005 88.9884C26.8342 88.9511 26.8718 88.9218 26.9148 88.8982C26.9973 88.859 27.0143 88.8493 27.1526 88.831C27.6412 88.7856 28.1392 88.7261 28.6229 88.6677C29.2162 88.5966 29.8166 88.5244 30.5271 88.4633C30.9979 88.423 31.5594 88.3836 32.0925 88.3472C32.4055 88.3257 32.7254 88.3036 33.0196 88.282C33.4791 88.2484 33.9111 88.2129 34.243 88.1752C34.4482 88.1519 34.6237 88.1157 34.7978 88.0798C34.7986 88.0796 34.7993 88.0794 34.8001 88.0792C34.8119 88.0768 34.8238 88.0743 34.8356 88.0719C36.1783 87.965 37.5246 87.8611 38.8671 87.7606C38.8752 87.7602 38.8833 87.7599 38.8913 87.7595C39.0006 87.7547 39.11 87.7498 39.2188 87.7449C39.7892 87.7194 40.3456 87.6948 40.7085 87.6973C41.1022 87.6999 42.0871 87.6363 43.1241 87.5714C43.6905 87.536 44.2707 87.5002 44.7822 87.4736C44.8845 87.4683 44.9839 87.4634 45.0795 87.4589C45.4123 87.4435 45.7323 87.3966 46.0561 87.349C46.3591 87.3045 46.6678 87.2591 47.0127 87.2367C47.1846 87.2255 47.3702 87.2193 47.5676 87.2129C47.741 87.2073 47.9251 87.2014 48.1195 87.1915C48.3001 87.1822 48.6957 87.14 49.2047 87.0866C49.5217 87.0535 49.8796 87.0163 50.2516 86.9802C50.3852 86.972 50.5184 86.9638 50.6512 86.9556C51.5087 86.9032 52.3754 86.8517 53.2413 86.8024C53.4503 86.8063 53.6262 86.818 53.7734 86.8384C53.8785 86.8531 53.968 86.8731 54.0596 86.8936C54.1842 86.9215 54.3126 86.9503 54.4867 86.9688C54.6238 86.9831 54.7774 86.9825 54.889 86.9657C54.9394 86.958 54.9777 86.947 55.0124 86.9372C55.0521 86.9258 55.0875 86.9158 55.1313 86.9132C55.1628 86.9114 55.196 86.9156 55.2367 86.9206C55.3016 86.9285 55.386 86.9388 55.5119 86.9315C55.8215 86.9138 56.1918 86.8896 56.5418 86.8664C56.7065 86.8555 56.8726 86.8445 57.0444 86.8333C57.6238 86.7955 58.2068 86.7603 58.6487 86.7442C59.1676 86.7248 59.8863 86.6705 60.6084 86.6255C61.0968 86.5944 61.6107 86.5674 62.0449 86.5575C62.1556 86.555 62.2645 86.5542 62.3709 86.5547C62.6829 86.5563 63.0156 86.57 63.3234 86.5862C63.8312 86.6127 64.3202 86.6466 64.7393 86.6468C64.8247 86.6468 64.9326 86.6272 65.0643 86.6029C65.1584 86.5858 65.2673 86.5664 65.3919 86.5502C65.6511 86.5654 65.8989 86.5809 66.1571 86.5981C66.4381 86.6169 66.7138 86.6365 66.9968 86.6576C67.0158 86.6625 67.0344 86.6674 67.0535 86.6725C67.0538 86.6726 67.0541 86.6727 67.0544 86.6728C67.4854 86.7868 68.077 86.9453 68.9261 86.9624C69.1427 86.9669 69.2813 86.9502 69.4049 86.9351C69.5269 86.9204 69.6361 86.9073 69.7934 86.9186C69.8461 86.9224 69.9014 86.9284 69.9591 86.9362C70.0963 86.9546 70.2462 86.9827 70.4062 87.0129C70.7261 87.0732 71.0787 87.1412 71.4427 87.157C71.4675 87.1581 71.4942 87.1592 71.5219 87.1605C71.7838 87.1722 72.1741 87.1908 72.5645 87.1828C72.9656 87.227 73.3667 87.2723 73.7677 87.3185C74.5084 87.4041 75.2481 87.493 75.9887 87.5851C76.5175 87.6509 77.0451 87.7181 77.5731 87.7869C78.8415 87.9522 80.1109 88.1262 81.3746 88.3077C81.481 88.323 81.5869 88.3383 81.6921 88.3535C82.6155 88.4869 83.5108 88.5618 84.1827 88.5546C84.8514 88.5466 85.2486 88.4584 85.2728 88.2985C85.3046 88.1401 84.9613 87.9207 84.332 87.6888C83.6996 87.4565 82.8257 87.2314 81.9039 87.0623C81.7989 87.043 81.6932 87.0237 81.587 87.0044C80.3252 86.7745 79.0567 86.552 77.7874 86.3411C77.6527 86.3187 77.5175 86.2963 77.3819 86.2741C77.3029 86.2591 77.2233 86.2442 77.1442 86.2296C76.5582 86.1215 76.0158 85.9988 75.4725 85.878C75.3479 85.8503 75.223 85.8226 75.0974 85.7953Z" fill="#AB904E"/>
<path d="M112.254 59.6269C116.811 55.0692 125.282 48.9078 130.354 45.3529C131.25 44.7245 132.276 45.7498 131.647 46.6463C128.092 51.7178 121.931 60.1886 117.373 64.7463C112.875 69.2445 99.2363 80.6335 90.5519 87.8013C89.6234 88.5676 88.4324 87.3766 89.1987 86.4481C96.3665 77.7637 107.756 64.125 112.254 59.6269Z" fill="#AB904E"/>
<path d="M121.355 50.7306C121.099 50.8956 120.78 51.1221 120.437 51.3774C119.682 51.9391 118.819 52.6397 118.271 53.0928C118.256 53.1048 118.241 53.1168 118.227 53.1289C118.038 53.2842 117.856 53.4315 117.645 53.6027C117.572 53.6622 117.496 53.7245 117.413 53.7918C116.931 54.1882 116.258 54.7408 115.094 55.7888C114.883 55.9677 114.679 56.1431 114.471 56.3238C114.272 56.4971 114.081 56.6647 113.882 56.8414C113.112 57.5268 112.335 58.2504 111.609 58.9817C110.212 60.3991 108.897 61.8824 107.596 63.3659C106.293 64.858 105.022 66.3518 103.755 67.8592C103.27 68.4371 102.781 69.0221 102.301 69.5983C102.254 69.6529 102.206 69.7086 102.157 69.7649C101.446 70.5867 100.607 71.5619 99.9393 72.3646C99.7268 72.6199 99.5294 72.8603 99.3614 73.0694C98.4719 74.177 97.8769 74.936 97.3894 75.5605C97.0067 76.0286 96.6237 76.4977 96.2417 76.9659C94.9979 78.4905 93.7562 80.0167 92.5158 81.5406C91.2747 83.0653 90.0297 84.5942 88.7915 86.11C88.7911 86.1104 88.7908 86.1108 88.7905 86.1112C88.6699 86.2494 88.5153 86.5195 88.4668 86.75C88.4071 86.9955 88.4159 87.2628 88.4902 87.5028C88.5637 87.7437 88.697 87.9581 88.8698 88.1302C89.0426 88.3022 89.2575 88.4343 89.4981 88.5067C89.7379 88.5797 90.0043 88.5873 90.2484 88.5267C90.4778 88.4773 90.7453 88.3229 90.8825 88.2019C90.8825 88.2019 90.8825 88.2019 90.8825 88.2019C91.4867 87.7022 92.0594 87.2283 92.6152 86.7684C94.1635 85.4873 95.5348 84.3516 96.8251 83.2829C97.0312 83.117 97.2331 82.955 97.4228 82.8031C97.9547 82.3769 98.4471 81.9844 98.9104 81.6147C99.7926 80.911 100.545 80.3102 101.154 79.8088C101.672 79.3822 102.214 78.9267 102.727 78.4893C103.646 77.7072 104.511 76.9531 105.203 76.3478C105.379 76.1939 105.544 76.0488 105.697 75.915C106.245 75.458 106.785 75.0063 107.31 74.5669C107.613 74.3125 107.914 74.0601 108.21 73.8117C108.259 73.7608 108.309 73.7094 108.359 73.6572C108.983 73.0072 109.814 72.2935 111.033 71.2331C111.131 71.1472 111.232 71.0597 111.336 70.9689C111.788 70.5743 112.287 70.1349 112.831 69.6473C113.263 69.259 113.453 69.0438 113.61 68.866C113.657 68.8136 113.7 68.7647 113.745 68.7165C113.898 68.5513 114.086 68.4131 114.305 68.2523C114.48 68.1232 114.674 67.9803 114.881 67.8015C115.011 67.6895 115.152 67.5569 115.293 67.4079C116.438 66.1937 116.937 65.8192 117.322 65.5337C117.435 65.4491 117.534 65.3746 117.628 65.2951C117.678 65.2519 117.73 65.2048 117.782 65.1555C118.262 64.6899 118.8 64.0843 119.205 63.5925C119.481 63.2583 119.977 62.7207 120.461 62.1971C120.654 61.9882 120.848 61.7793 121.026 61.5887C121.258 61.3406 121.557 60.9871 121.904 60.5704C122.234 60.1733 122.61 59.7155 123.017 59.2321C123.051 59.1926 123.084 59.1529 123.118 59.113C124.244 57.7801 124.82 57.0643 125.286 56.4893C125.355 56.4046 125.421 56.3227 125.485 56.2425C125.546 56.1673 125.605 56.0934 125.665 56.0195C126.052 55.5368 126.526 54.9329 127 54.3208C127.289 53.9467 127.581 53.5677 127.853 53.2142C128.115 52.8732 128.358 52.557 128.572 52.281C129.085 51.5648 129.59 50.8509 130.092 50.1341C130.641 49.3493 131.178 48.5716 131.713 47.7913C131.883 47.5419 132.055 47.2778 132.203 47.0361C132.306 46.8861 132.436 46.5897 132.46 46.3663C132.499 46.1095 132.466 45.8464 132.379 45.6231C132.285 45.3797 132.133 45.1822 131.96 45.0396C131.842 44.9413 131.713 44.8679 131.584 44.8179C131.501 44.7856 131.417 44.7632 131.337 44.7495C131.075 44.7048 130.848 44.7522 130.689 44.8239C130.316 45.0072 130.266 45.2285 130.321 45.3055C130.381 45.3951 130.574 45.3674 130.804 45.4147C130.902 45.4358 131.003 45.4745 131.091 45.5391C131.118 45.559 131.144 45.5813 131.168 45.6059C131.206 45.6439 131.239 45.6872 131.266 45.734C131.305 45.8021 131.328 45.8776 131.333 45.9495C131.337 46.0162 131.326 46.0785 131.301 46.1403C131.269 46.2153 131.262 46.2203 131.186 46.3228C131.009 46.5441 130.82 46.7946 130.643 47.0378C130.09 47.7986 129.533 48.5582 128.966 49.3246C128.41 50.0767 127.853 50.8234 127.288 51.576C127.09 51.8385 126.896 52.096 126.698 52.3585C125.933 53.3692 125.159 54.3815 124.377 55.3907C123.931 55.9651 123.484 56.5384 123.032 57.1113C122.69 57.5453 122.345 57.9778 121.998 58.4095C121.316 59.2572 120.624 60.0998 119.914 60.9347C119.803 61.0651 119.693 61.1943 119.583 61.3222C119.564 61.3427 119.545 61.3631 119.526 61.3843C118.6 62.391 117.662 63.3524 116.967 64.0352C116.914 64.0871 116.863 64.1374 116.813 64.1864C116.54 64.4522 116.321 64.6915 116.135 64.8941C115.99 65.0508 115.857 65.1928 115.713 65.3266C115.635 65.3992 115.526 65.4985 115.389 65.622C115.064 65.9164 114.578 66.352 114.023 66.8572C113.649 67.1985 113.243 67.5718 112.845 67.949C112.411 68.3603 111.895 68.8637 111.385 69.3565C111.113 69.6191 110.845 69.8777 110.591 70.1175C110.167 70.5197 109.791 70.8656 109.545 71.0677C108.858 71.633 108.074 72.3358 107.357 72.9753C107.075 73.2259 106.803 73.4684 106.555 73.6849C106.204 73.9918 105.897 74.2517 105.674 74.4204C105.223 74.762 104.855 75.0933 104.304 75.5868C103.915 75.9346 103.446 76.3543 102.763 76.9403C102.479 77.1845 102.225 77.4053 101.988 77.6126C101.578 77.9717 101.243 78.2724 100.931 78.5511C100.251 79.1589 99.7229 79.6288 98.8656 80.297C98.1631 80.8446 97.4267 81.43 96.7462 81.9917C96.5153 82.1822 96.2761 82.3825 96.0613 82.5659C95.6933 82.8804 95.2389 83.2565 94.7705 83.6438C94.1379 84.1669 93.4462 84.738 92.8041 85.2897C92.2473 85.7672 91.8137 86.1674 91.3847 86.5588C91.2522 86.6797 91.1432 86.7807 91.0038 86.9055C90.7642 87.1032 90.5277 87.2982 90.295 87.4899C90.295 87.4899 90.295 87.4899 90.295 87.4899C90.1796 87.5793 90.1317 87.5989 90.0309 87.6277C90.0083 87.6331 89.9853 87.6369 89.9628 87.6391C89.9282 87.6375 89.893 87.6318 89.8577 87.6218C89.8304 87.614 89.8026 87.6036 89.7752 87.5903C89.7039 87.5558 89.6321 87.5005 89.5741 87.4259C89.5246 87.3623 89.4868 87.2851 89.4709 87.2063C89.4663 87.1842 89.4634 87.1617 89.4622 87.1395C89.4596 87.0893 89.4656 87.042 89.4793 86.995C89.5099 86.9089 89.5151 86.89 89.5999 86.7793C89.9133 86.4016 90.2234 86.0074 90.5241 85.6241C90.8933 85.1543 91.2668 84.6787 91.726 84.1331C92.0304 83.7716 92.3997 83.3468 92.7508 82.944C92.9569 82.7076 93.1675 82.4657 93.3603 82.2424C93.6614 81.8937 93.9418 81.5631 94.1498 81.3018C94.2784 81.1403 94.377 80.9906 94.4747 80.8421C94.4751 80.8414 94.4755 80.8407 94.4759 80.84C94.4825 80.83 94.4892 80.8198 94.4959 80.8098C95.3696 79.7848 96.2482 78.7593 97.1264 77.7389C97.1319 77.733 97.1373 77.727 97.1428 77.721C97.2167 77.6403 97.2906 77.5596 97.364 77.4792C97.7493 77.0578 98.1254 76.647 98.3838 76.3921C98.664 76.1156 99.3154 75.3742 100.003 74.595C100.378 74.1694 100.763 73.7339 101.106 73.3534C101.175 73.2773 101.241 73.2036 101.306 73.1328C101.53 72.8865 101.723 72.6271 101.919 72.3645C102.102 72.1188 102.288 71.8684 102.516 71.6087C102.629 71.4792 102.756 71.3436 102.891 71.1995C103.01 71.0729 103.136 70.9385 103.266 70.7941C103.388 70.6598 103.637 70.3502 103.96 69.9526C104.16 69.705 104.387 69.4256 104.625 69.1371C104.713 69.0367 104.802 68.9368 104.89 68.8371C105.459 68.1937 106.036 67.5445 106.613 66.8973C106.763 66.7523 106.896 66.6362 107.015 66.5465C107.099 66.4826 107.177 66.4335 107.256 66.3832C107.364 66.3148 107.475 66.2444 107.611 66.1344C107.718 66.0475 107.827 65.9384 107.894 65.8477C107.924 65.8066 107.943 65.7718 107.961 65.7403C107.981 65.7042 107.999 65.672 108.028 65.6393C108.049 65.6157 108.075 65.5952 108.107 65.5699C108.159 65.5296 108.226 65.4772 108.31 65.3831C108.516 65.1516 108.761 64.8726 108.992 64.6088C109.101 64.4846 109.21 64.3594 109.324 64.23C109.707 63.7935 110.094 63.3564 110.395 63.0326C110.749 62.6519 111.218 62.1053 111.697 61.5629C112.021 61.1955 112.365 60.813 112.665 60.499C112.741 60.419 112.818 60.3414 112.893 60.2666C113.115 60.0471 113.36 59.8215 113.589 59.6154C113.967 59.2749 114.337 58.9532 114.633 58.6569C114.694 58.5966 114.756 58.5064 114.832 58.3961C114.886 58.3175 114.95 58.2268 115.026 58.1272C115.22 57.9547 115.407 57.7904 115.601 57.62C115.813 57.4346 116.022 57.2535 116.237 57.0683C116.254 57.0584 116.271 57.0487 116.288 57.0387C116.288 57.0386 116.288 57.0384 116.289 57.0383C116.674 56.8142 117.204 56.5079 117.817 55.9196C117.973 55.7697 118.059 55.6598 118.136 55.5617C118.212 55.4651 118.28 55.3786 118.399 55.2754C118.439 55.2408 118.483 55.2059 118.529 55.1706C118.639 55.0866 118.765 55.0005 118.899 54.9087C119.168 54.7251 119.466 54.5239 119.734 54.2778C119.752 54.261 119.772 54.2429 119.793 54.2241C119.986 54.0472 120.275 53.7844 120.546 53.5027C120.86 53.2503 121.176 52.9987 121.492 52.7479C122.076 52.2847 122.662 51.8244 123.251 51.3659C123.672 51.0386 124.092 50.713 124.514 50.3883C125.528 49.6083 126.549 48.8337 127.571 48.0684C127.657 48.004 127.742 47.94 127.828 47.8763C128.575 47.3177 129.261 46.7376 129.731 46.2574C130.198 45.7789 130.416 45.4356 130.321 45.3055C130.231 45.171 129.833 45.2587 129.224 45.5397C128.613 45.8226 127.836 46.2813 127.064 46.8135C126.976 46.8742 126.888 46.9353 126.799 46.9967C125.744 47.7263 124.69 48.466 123.643 49.2143C123.532 49.2938 123.421 49.3736 123.309 49.4537C123.243 49.499 123.176 49.5448 123.11 49.5904C122.619 49.9283 122.149 50.2251 121.679 50.5238C121.571 50.5923 121.464 50.6611 121.355 50.7306Z" fill="#AB904E"/>
<path d="M126.011 85.6501C132.456 85.6501 142.803 87.283 148.902 88.3554C149.981 88.545 149.981 89.995 148.902 90.1846C142.803 91.257 132.456 92.89 126.011 92.89C119.649 92.89 101.952 91.2993 90.7427 90.2268C89.5443 90.1122 89.5443 88.4279 90.7427 88.3132C101.952 87.2407 119.649 85.6501 126.011 85.6501Z" fill="#AB904E"/>
<path d="M138.737 85.7953C138.439 85.7304 138.053 85.6651 137.63 85.6034C136.699 85.4668 135.594 85.352 134.885 85.2843C134.866 85.2824 134.848 85.2806 134.829 85.2787C134.586 85.2554 134.353 85.2307 134.083 85.2027C133.989 85.193 133.891 85.1829 133.785 85.1724C133.164 85.1119 132.297 85.0266 130.733 84.9446C130.457 84.9222 130.189 84.9017 129.914 84.8824C129.651 84.8639 129.397 84.8475 129.132 84.832C128.103 84.7721 127.041 84.7339 126.011 84.7376C124.021 84.7526 122.042 84.8713 120.073 85.0005C118.096 85.1339 116.142 85.2919 114.18 85.462C113.428 85.5274 112.669 85.5952 111.922 85.6635C111.85 85.6687 111.777 85.674 111.703 85.6794C110.619 85.7579 109.336 85.8542 108.296 85.9494C107.965 85.9797 107.656 86.01 107.389 86.0391C105.977 86.1933 105.019 86.3093 104.233 86.4061C103.631 86.4666 103.029 86.5274 102.428 86.5884C100.47 86.7869 98.513 86.9881 96.5584 87.1886C94.6027 87.3892 92.6412 87.5898 90.6938 87.7861C90.6933 87.7862 90.6928 87.7862 90.6923 87.7863C90.5092 87.7987 90.209 87.8804 90.0117 88.0091C89.7959 88.1405 89.6131 88.3357 89.4959 88.5579C89.3776 88.7803 89.3202 89.0262 89.3207 89.27C89.3213 89.5139 89.3798 89.7592 89.4988 89.9805C89.6167 90.2017 89.7998 90.3955 90.0151 90.5252C90.2123 90.6525 90.5106 90.7325 90.6932 90.7439C90.6932 90.7439 90.6932 90.7439 90.6932 90.7439C91.4738 90.8178 92.2139 90.8877 92.932 90.9555C94.9328 91.1444 96.7055 91.311 98.3735 91.4677C98.6366 91.4962 98.8939 91.5243 99.1355 91.5511C99.8129 91.6258 100.439 91.6965 101.028 91.7627C102.149 91.8889 103.106 91.996 103.891 92.0718C104.559 92.1365 105.264 92.1976 105.937 92.2517C107.14 92.3485 108.284 92.4268 109.201 92.4878C109.435 92.5033 109.654 92.5178 109.857 92.5313C110.567 92.5954 111.269 92.658 111.95 92.7182C112.345 92.7531 112.736 92.7874 113.121 92.8208C113.192 92.8197 113.263 92.8184 113.336 92.817C114.236 92.7987 115.329 92.8817 116.94 92.9935C117.071 93.0025 117.204 93.0116 117.341 93.0209C117.94 93.0614 118.604 93.1042 119.333 93.1435C119.913 93.1748 120.2 93.1568 120.437 93.1425C120.507 93.1383 120.572 93.1343 120.638 93.1318C120.863 93.1231 121.093 93.1585 121.362 93.1996C121.577 93.2322 121.815 93.2684 122.088 93.2882C122.259 93.3008 122.453 93.3071 122.658 93.3014C124.326 93.2524 124.944 93.3405 125.418 93.4106C125.557 93.4306 125.68 93.4482 125.802 93.4579C125.869 93.4633 125.939 93.4668 126.011 93.4686C126.679 93.4789 127.488 93.431 128.121 93.3692C128.553 93.3282 129.284 93.2989 129.996 93.2706C130.281 93.2596 130.566 93.2491 130.826 93.24C131.165 93.2285 131.627 93.1903 132.167 93.1407C132.681 93.0936 133.271 93.0356 133.901 92.982C133.952 92.9776 134.004 92.9732 134.056 92.9689C135.795 92.8226 136.708 92.7237 137.445 92.6468C137.553 92.6353 137.657 92.6241 137.76 92.613C137.856 92.6026 137.95 92.5924 138.044 92.5821C138.66 92.5151 139.421 92.4227 140.189 92.325C140.659 92.2653 141.133 92.2034 141.575 92.1457C142.002 92.0899 142.397 92.0383 142.744 91.9946C143.613 91.8512 144.475 91.7034 145.336 91.5511C146.28 91.3844 147.21 91.2145 148.139 91.0405C148.436 90.9847 148.744 90.9196 149.02 90.8535C149.199 90.82 149.5 90.7024 149.675 90.5616C149.884 90.4071 150.047 90.1981 150.143 89.9785C150.249 89.7401 150.281 89.4926 150.26 89.27C150.246 89.1166 150.207 88.9738 150.151 88.8471C150.115 88.7652 150.071 88.6905 150.024 88.6239C149.871 88.4074 149.677 88.2804 149.514 88.2186C149.12 88.0843 148.928 88.2054 148.912 88.2985C148.892 88.4048 149.048 88.5211 149.177 88.7177C149.231 88.8017 149.275 88.9002 149.292 89.0081C149.297 89.0415 149.3 89.0757 149.3 89.1104C149.299 89.1639 149.292 89.2181 149.278 89.27C149.257 89.3456 149.22 89.4156 149.173 89.4695C149.128 89.5195 149.077 89.5559 149.015 89.5821C148.94 89.6123 148.931 89.6109 148.805 89.6296C148.524 89.6614 148.212 89.7043 147.915 89.7512C146.987 89.8984 146.056 90.0416 145.113 90.1829C144.188 90.3215 143.266 90.4557 142.334 90.5878C142.009 90.6339 141.689 90.6786 141.363 90.7239C140.108 90.898 138.845 91.0664 137.578 91.2268C136.857 91.3181 136.135 91.4068 135.411 91.4925C134.862 91.5574 134.312 91.6199 133.762 91.6795C132.68 91.7966 131.594 91.9029 130.502 91.9915C130.332 92.0053 130.162 92.0186 129.994 92.0313C129.966 92.0325 129.939 92.0336 129.91 92.0348C128.543 92.092 127.201 92.1089 126.226 92.0997C126.152 92.0991 126.08 92.0986 126.011 92.0981C125.63 92.0932 125.305 92.1075 125.03 92.1189C124.817 92.1274 124.623 92.1338 124.426 92.1264C124.32 92.1225 124.172 92.1156 123.988 92.1064C123.55 92.0847 122.899 92.0489 122.149 92.014C121.643 91.9905 121.092 91.9677 120.544 91.9528C119.946 91.9368 119.226 91.9281 118.516 91.9158C118.139 91.9093 117.766 91.902 117.417 91.8926C116.833 91.8769 116.322 91.8554 116.005 91.8246C115.12 91.7384 114.069 91.6813 113.109 91.626C112.733 91.6045 112.369 91.583 112.04 91.561C111.575 91.5297 111.174 91.4965 110.898 91.4583C110.337 91.3809 109.842 91.3546 109.104 91.3141C108.583 91.2853 107.955 91.2504 107.057 91.1818C106.684 91.1533 106.348 91.1297 106.034 91.109C105.49 91.0732 105.04 91.0485 104.622 91.0249C103.712 90.9737 103.006 90.9329 101.928 90.7993C101.044 90.6896 100.109 90.5829 99.2308 90.4989C98.9328 90.4703 98.622 90.4428 98.3404 90.4207C97.8578 90.3828 97.2706 90.3275 96.6656 90.2701C95.8483 90.1926 94.9554 90.1074 94.1112 90.0434C93.3799 89.9874 92.7903 89.9637 92.2102 89.9371C92.031 89.929 91.8825 89.9233 91.6956 89.913C91.3864 89.8834 91.0814 89.854 90.7812 89.825C90.7812 89.825 90.7812 89.825 90.7812 89.825C90.6364 89.8067 90.5887 89.7866 90.4971 89.7357C90.4772 89.7235 90.4583 89.71 90.4408 89.6956C90.4176 89.67 90.3967 89.6411 90.3788 89.6091C90.3649 89.5843 90.3527 89.5573 90.3427 89.5284C90.3166 89.4537 90.305 89.3638 90.3168 89.27C90.3267 89.1901 90.3546 89.1087 90.399 89.0418C90.4115 89.0229 90.4253 89.005 90.4402 88.9884C90.4738 88.9511 90.5115 88.9218 90.5544 88.8982C90.6369 88.859 90.654 88.8493 90.7922 88.831C91.2809 88.7856 91.7789 88.7261 92.2625 88.6677C92.8558 88.5966 93.4563 88.5244 94.1667 88.4633C94.6376 88.423 95.1991 88.3836 95.7322 88.3472C96.0451 88.3257 96.3651 88.3036 96.6593 88.282C97.1188 88.2484 97.5508 88.2129 97.8827 88.1752C98.0878 88.1519 98.2633 88.1157 98.4374 88.0798C98.4382 88.0796 98.439 88.0794 98.4397 88.0792C98.4516 88.0768 98.4634 88.0743 98.4753 88.0719C99.8179 87.965 101.164 87.8611 102.507 87.7606C102.515 87.7602 102.523 87.7599 102.531 87.7595C102.64 87.7547 102.75 87.7498 102.858 87.7449C103.429 87.7194 103.985 87.6948 104.348 87.6973C104.742 87.6999 105.727 87.6363 106.764 87.5714C107.33 87.536 107.91 87.5002 108.422 87.4736C108.524 87.4683 108.624 87.4634 108.719 87.4589C109.052 87.4435 109.372 87.3966 109.696 87.349C109.999 87.3045 110.307 87.2591 110.652 87.2367C110.824 87.2255 111.01 87.2193 111.207 87.2129C111.381 87.2073 111.565 87.2014 111.759 87.1915C111.94 87.1822 112.335 87.14 112.844 87.0866C113.161 87.0535 113.519 87.0163 113.891 86.9802C114.025 86.972 114.158 86.9638 114.291 86.9556C115.148 86.9032 116.015 86.8517 116.881 86.8024C117.09 86.8063 117.266 86.818 117.413 86.8384C117.518 86.8531 117.608 86.8731 117.699 86.8936C117.824 86.9215 117.952 86.9503 118.126 86.9688C118.263 86.9831 118.417 86.9825 118.529 86.9657C118.579 86.958 118.617 86.947 118.652 86.9372C118.692 86.9258 118.727 86.9158 118.771 86.9132C118.802 86.9114 118.836 86.9156 118.876 86.9206C118.941 86.9285 119.026 86.9388 119.152 86.9315C119.461 86.9138 119.831 86.8896 120.181 86.8664C120.346 86.8555 120.512 86.8445 120.684 86.8333C121.263 86.7955 121.846 86.7603 122.288 86.7442C122.807 86.7248 123.526 86.6705 124.248 86.6255C124.736 86.5944 125.25 86.5674 125.685 86.5575C125.795 86.555 125.904 86.5542 126.011 86.5547C126.323 86.5563 126.655 86.57 126.963 86.5862C127.471 86.6127 127.96 86.6466 128.379 86.6468C128.464 86.6468 128.572 86.6272 128.704 86.6029C128.798 86.5858 128.907 86.5664 129.032 86.5502C129.291 86.5654 129.539 86.5809 129.797 86.5981C130.078 86.6169 130.353 86.6365 130.636 86.6576C130.655 86.6625 130.674 86.6674 130.693 86.6725C130.693 86.6726 130.694 86.6727 130.694 86.6728C131.125 86.7868 131.717 86.9453 132.566 86.9624C132.782 86.9669 132.921 86.9502 133.045 86.9351C133.167 86.9204 133.276 86.9073 133.433 86.9186C133.486 86.9224 133.541 86.9284 133.599 86.9362C133.736 86.9546 133.886 86.9827 134.046 87.0129C134.366 87.0732 134.718 87.1412 135.082 87.157C135.107 87.1581 135.134 87.1592 135.162 87.1605C135.423 87.1722 135.814 87.1908 136.204 87.1828C136.605 87.227 137.006 87.2723 137.407 87.3185C138.148 87.4041 138.888 87.493 139.628 87.5851C140.157 87.6509 140.685 87.7181 141.213 87.7869C142.481 87.9522 143.751 88.1262 145.014 88.3077C145.121 88.323 145.227 88.3383 145.332 88.3535C146.255 88.4869 147.15 88.5618 147.822 88.5546C148.491 88.5466 148.888 88.4584 148.912 88.2985C148.944 88.1401 148.601 87.9207 147.972 87.6888C147.339 87.4565 146.465 87.2314 145.544 87.0623C145.439 87.043 145.333 87.0237 145.227 87.0044C143.965 86.7745 142.696 86.552 141.427 86.3411C141.292 86.3187 141.157 86.2963 141.022 86.2741C140.943 86.2591 140.863 86.2442 140.784 86.2296C140.198 86.1215 139.655 85.9988 139.112 85.878C138.988 85.8503 138.863 85.8226 138.737 85.7953Z" fill="#AB904E"/>
<path d="M62.7463 59.6269C58.1886 55.0692 49.7178 48.9078 44.6463 45.3529C43.7498 44.7245 42.7245 45.7498 43.3529 46.6463C46.9078 51.7178 53.0692 60.1886 57.6269 64.7463C62.125 69.2445 75.7637 80.6335 84.4481 87.8013C85.3766 88.5676 86.5676 87.3766 85.8013 86.4481C78.6335 77.7637 67.2445 64.125 62.7463 59.6269Z" fill="#AB904E"/>
<path d="M53.6445 50.7306C53.9013 50.8956 54.2202 51.1221 54.5628 51.3774C55.3177 51.9391 56.1806 52.6397 56.7295 53.0928C56.7441 53.1048 56.7588 53.1168 56.7734 53.1289C56.9617 53.2842 57.144 53.4315 57.3547 53.6027C57.428 53.6622 57.5045 53.7245 57.5867 53.7918C58.0687 54.1882 58.7419 54.7408 59.9059 55.7888C60.1165 55.9677 60.3208 56.1431 60.5288 56.3238C60.7282 56.4971 60.919 56.6647 61.1176 56.8414C61.8878 57.5268 62.6655 58.2504 63.3914 58.9817C64.7877 60.3991 66.1031 61.8824 67.4038 63.3659C68.7074 64.858 69.9777 66.3518 71.2445 67.8592C71.73 68.4371 72.2192 69.0221 72.6987 69.5983C72.746 69.6529 72.7941 69.7086 72.8428 69.7649C73.5537 70.5867 74.3926 71.5619 75.0607 72.3646C75.2732 72.6199 75.4706 72.8603 75.6386 73.0694C76.5281 74.177 77.1231 74.936 77.6106 75.5605C77.9933 76.0286 78.3763 76.4977 78.7583 76.9659C80.0021 78.4905 81.2438 80.0167 82.4842 81.5406C83.7253 83.0653 84.9703 84.5942 86.2085 86.11C86.2089 86.1104 86.2092 86.1108 86.2095 86.1112C86.3301 86.2494 86.4847 86.5195 86.5332 86.75C86.5929 86.9955 86.5841 87.2628 86.5098 87.5028C86.4363 87.7437 86.303 87.9581 86.1302 88.1302C85.9574 88.3022 85.7425 88.4343 85.5019 88.5067C85.2621 88.5797 84.9957 88.5873 84.7516 88.5267C84.5222 88.4773 84.2547 88.3229 84.1175 88.2019C84.1175 88.2019 84.1175 88.2019 84.1175 88.2019C83.5133 87.7022 82.9406 87.2283 82.3848 86.7684C80.8365 85.4873 79.4652 84.3516 78.1749 83.2829C77.9688 83.117 77.7669 82.955 77.5772 82.8031C77.0453 82.3769 76.5529 81.9844 76.0896 81.6147C75.2074 80.911 74.4551 80.3102 73.8464 79.8088C73.3284 79.3822 72.7864 78.9267 72.2726 78.4893C71.3535 77.7072 70.4887 76.9531 69.7972 76.3478C69.6213 76.1939 69.4557 76.0488 69.3029 75.915C68.7553 75.458 68.2149 75.0063 67.6904 74.5669C67.3867 74.3125 67.0859 74.0601 66.7902 73.8117C66.7407 73.7608 66.6912 73.7094 66.641 73.6572C66.0169 73.0072 65.1858 72.2935 63.9674 71.2331C63.8687 71.1472 63.7682 71.0597 63.6643 70.9689C63.2124 70.5743 62.7126 70.1349 62.1693 69.6473C61.7368 69.259 61.547 69.0438 61.3895 68.866C61.3431 68.8136 61.2998 68.7647 61.2552 68.7165C61.1022 68.5513 60.9139 68.4131 60.6951 68.2523C60.5198 68.1232 60.3257 67.9803 60.1189 67.8015C59.9892 67.6895 59.8476 67.5569 59.7067 67.4079C58.5617 66.1937 58.0626 65.8192 57.678 65.5337C57.5651 65.4491 57.4658 65.3746 57.3724 65.2951C57.3217 65.2519 57.2697 65.2048 57.2177 65.1555C56.7376 64.6899 56.1997 64.0843 55.7954 63.5925C55.5191 63.2583 55.023 62.7207 54.5394 62.1971C54.3461 61.9882 54.1521 61.7793 53.9743 61.5887C53.7425 61.3406 53.443 60.9871 53.0964 60.5704C52.766 60.1733 52.3901 59.7155 51.9827 59.2321C51.9493 59.1926 51.9158 59.1529 51.882 59.113C50.756 57.7801 50.1801 57.0643 49.7138 56.4893C49.6453 56.4046 49.5794 56.3227 49.5148 56.2425C49.4543 56.1673 49.3948 56.0934 49.3355 56.0195C48.9476 55.5368 48.4743 54.9329 48.0004 54.3208C47.7108 53.9467 47.4193 53.5677 47.1474 53.2142C46.8852 52.8732 46.642 52.557 46.4278 52.281C45.9145 51.5648 45.4096 50.8509 44.9081 50.1341C44.3591 49.3493 43.8217 48.5716 43.2875 47.7913C43.1169 47.5419 42.9449 47.2778 42.7968 47.0361C42.6941 46.8861 42.5641 46.5897 42.5398 46.3663C42.5015 46.1095 42.534 45.8464 42.6211 45.6231C42.715 45.3797 42.8674 45.1822 43.0396 45.0396C43.1583 44.9413 43.2868 44.8679 43.416 44.8179C43.4994 44.7856 43.5827 44.7632 43.6632 44.7495C43.9248 44.7048 44.1518 44.7522 44.3109 44.8239C44.684 45.0072 44.734 45.2285 44.6795 45.3055C44.6187 45.3951 44.4265 45.3674 44.1957 45.4147C44.0982 45.4358 43.9975 45.4745 43.9095 45.5391C43.8822 45.559 43.8561 45.5813 43.8316 45.6059C43.7939 45.6439 43.7606 45.6872 43.734 45.734C43.6952 45.8021 43.6717 45.8776 43.6674 45.9495C43.6634 46.0162 43.6743 46.0785 43.6989 46.1403C43.7313 46.2153 43.7382 46.2203 43.8143 46.3228C43.9907 46.5441 44.1804 46.7946 44.3573 47.0378C44.91 47.7986 45.4669 48.5582 46.0336 49.3246C46.5897 50.0767 47.1466 50.8234 47.7124 51.576C47.9097 51.8385 48.1039 52.096 48.3025 52.3585C49.0668 53.3692 49.841 54.3815 50.6233 55.3907C51.0686 55.9651 51.5164 56.5384 51.9682 57.1113C52.3105 57.5453 52.6546 57.9778 53.0019 58.4095C53.684 59.2572 54.3764 60.0998 55.086 60.9347C55.1968 61.0651 55.3072 61.1943 55.4171 61.3222C55.436 61.3427 55.4548 61.3631 55.4743 61.3843C56.4001 62.391 57.3375 63.3524 58.0335 64.0352C58.0862 64.0871 58.1372 64.1374 58.1868 64.1864C58.4596 64.4522 58.6787 64.6915 58.8651 64.8941C59.0099 65.0508 59.1428 65.1928 59.2871 65.3266C59.3652 65.3992 59.4742 65.4985 59.6107 65.622C59.9359 65.9164 60.422 66.352 60.9766 66.8572C61.3512 67.1985 61.7567 67.5718 62.1549 67.949C62.5889 68.3603 63.1046 68.8637 63.6148 69.3565C63.8865 69.6191 64.1555 69.8777 64.4087 70.1175C64.8331 70.5197 65.2093 70.8656 65.455 71.0677C66.1422 71.633 66.9258 72.3358 67.6434 72.9753C67.9245 73.2259 68.1973 73.4684 68.445 73.6849C68.7962 73.9918 69.103 74.2517 69.3256 74.4204C69.7769 74.762 70.1453 75.0933 70.696 75.5868C71.0846 75.9346 71.5536 76.3543 72.2366 76.9403C72.5212 77.1845 72.7753 77.4053 73.0119 77.6126C73.4216 77.9717 73.7573 78.2724 74.0694 78.5511C74.7495 79.1589 75.2771 79.6288 76.1344 80.297C76.8369 80.8446 77.5733 81.43 78.2538 81.9917C78.4847 82.1822 78.7239 82.3825 78.9387 82.5659C79.3067 82.8804 79.7611 83.2565 80.2295 83.6438C80.8621 84.1669 81.5538 84.738 82.1959 85.2897C82.7527 85.7672 83.1863 86.1674 83.6153 86.5588C83.7478 86.6797 83.8568 86.7807 83.9962 86.9055C84.2358 87.1032 84.4723 87.2982 84.705 87.4899C84.705 87.4899 84.705 87.4899 84.705 87.4899C84.8204 87.5793 84.8683 87.5989 84.9691 87.6277C84.9917 87.6331 85.0147 87.6369 85.0372 87.6391C85.0718 87.6375 85.107 87.6318 85.1423 87.6218C85.1696 87.614 85.1974 87.6036 85.2248 87.5903C85.2961 87.5558 85.3679 87.5005 85.4259 87.4259C85.4754 87.3623 85.5132 87.2851 85.5291 87.2063C85.5337 87.1842 85.5366 87.1617 85.5378 87.1395C85.5404 87.0893 85.5344 87.042 85.5207 86.995C85.4901 86.9089 85.4849 86.89 85.4001 86.7793C85.0867 86.4016 84.7766 86.0074 84.4759 85.6241C84.1067 85.1543 83.7332 84.6787 83.274 84.1331C82.9696 83.7716 82.6003 83.3468 82.2492 82.944C82.0431 82.7076 81.8325 82.4657 81.6397 82.2424C81.3386 81.8937 81.0582 81.5631 80.8502 81.3018C80.7216 81.1403 80.623 80.9906 80.5253 80.8421C80.5249 80.8414 80.5245 80.8407 80.5241 80.84C80.5175 80.83 80.5108 80.8198 80.5041 80.8098C79.6304 79.7848 78.7518 78.7593 77.8736 77.7389C77.8681 77.733 77.8627 77.727 77.8572 77.721C77.7833 77.6403 77.7094 77.5596 77.636 77.4792C77.2507 77.0578 76.8746 76.647 76.6162 76.3921C76.336 76.1156 75.6846 75.3742 74.9972 74.595C74.6218 74.1694 74.2368 73.7339 73.8939 73.3534C73.8253 73.2773 73.7585 73.2036 73.694 73.1328C73.4696 72.8865 73.2765 72.6271 73.0813 72.3645C72.8985 72.1188 72.7122 71.8684 72.4843 71.6087C72.3706 71.4792 72.2437 71.3436 72.1086 71.1995C71.99 71.0729 71.864 70.9385 71.7336 70.7941C71.6124 70.6598 71.3626 70.3502 71.0404 69.9526C70.8397 69.705 70.6129 69.4256 70.3754 69.1371C70.2867 69.0367 70.1983 68.9368 70.1102 68.8371C69.5409 68.1937 68.9645 67.5445 68.387 66.8973C68.2365 66.7523 68.1039 66.6362 67.9853 66.5465C67.9006 66.4826 67.8232 66.4335 67.7439 66.3832C67.6361 66.3148 67.5249 66.2444 67.3888 66.1344C67.2817 66.0475 67.1735 65.9384 67.1065 65.8477C67.0763 65.8066 67.057 65.7718 67.0394 65.7403C67.0193 65.7042 67.0014 65.672 66.9723 65.6393C66.9512 65.6157 66.9248 65.5952 66.8925 65.5699C66.841 65.5296 66.7741 65.4772 66.6902 65.3831C66.4838 65.1516 66.2391 64.8726 66.008 64.6088C65.8992 64.4846 65.7896 64.3594 65.676 64.23C65.2931 63.7935 64.9057 63.3564 64.6046 63.0326C64.2513 62.6519 63.7816 62.1053 63.3028 61.5629C62.9794 61.1955 62.6351 60.813 62.3351 60.499C62.2586 60.419 62.1822 60.3414 62.1066 60.2666C61.8848 60.0471 61.6399 59.8215 61.4108 59.6154C61.033 59.2749 60.6632 58.9532 60.3667 58.6569C60.3063 58.5966 60.2439 58.5064 60.168 58.3961C60.1136 58.3175 60.0503 58.2268 59.9736 58.1272C59.7796 57.9547 59.5933 57.7904 59.3986 57.62C59.1866 57.4346 58.9779 57.2535 58.7628 57.0683C58.746 57.0584 58.7293 57.0487 58.7122 57.0387C58.7119 57.0386 58.7116 57.0384 58.7113 57.0383C58.3259 56.8142 57.7956 56.5079 57.1831 55.9196C57.0267 55.7697 56.9405 55.6598 56.8638 55.5617C56.788 55.4651 56.72 55.3786 56.6008 55.2754C56.5608 55.2408 56.5174 55.2059 56.4712 55.1706C56.3611 55.0866 56.2352 55.0005 56.1008 54.9087C55.832 54.7251 55.5345 54.5239 55.266 54.2778C55.2477 54.261 55.228 54.2429 55.2075 54.2241C55.014 54.0472 54.7249 53.7844 54.4545 53.5027C54.1396 53.2503 53.824 52.9987 53.5077 52.7479C52.9235 52.2847 52.3376 51.8244 51.7487 51.3659C51.3283 51.0386 50.9077 50.713 50.4857 50.3883C49.472 49.6083 48.4513 48.8337 47.4293 48.0684C47.3433 48.004 47.2577 47.94 47.1725 47.8763C46.4252 47.3177 45.7392 46.7376 45.2692 46.2574C44.8019 45.7789 44.5835 45.4356 44.6795 45.3055C44.769 45.171 45.1669 45.2587 45.7758 45.5397C46.3873 45.8226 47.1644 46.2813 47.9357 46.8135C48.0237 46.8742 48.112 46.9353 48.2008 46.9967C49.2555 47.7263 50.3098 48.466 51.3565 49.2143C51.4677 49.2938 51.579 49.3736 51.6906 49.4537C51.7571 49.499 51.8239 49.5448 51.8902 49.5904C52.3809 49.9283 52.8512 50.2251 53.3208 50.5238C53.4285 50.5923 53.5365 50.6611 53.6445 50.7306Z" fill="#AB904E"/>
<path d="M91.0038 50.2391C91.0038 43.7936 89.3708 33.447 88.2984 27.3472C88.1088 26.269 86.6588 26.269 86.4692 27.3472C85.3968 33.447 83.7638 43.7936 83.7638 50.2391C83.7638 56.6005 85.3545 74.2977 86.427 85.5069C86.5416 86.7054 88.226 86.7054 88.3406 85.5069C89.4131 74.2977 91.0038 56.6005 91.0038 50.2391Z" fill="#AB904E"/>
<path d="M90.8585 37.5125C90.9234 37.8108 90.9887 38.1965 91.0504 38.6192C91.187 39.5502 91.3018 40.6558 91.3695 41.3643C91.3714 41.3831 91.3732 41.402 91.3751 41.4209C91.3984 41.6638 91.4231 41.8969 91.4511 42.1669C91.4608 42.2608 91.4709 42.3589 91.4814 42.4647C91.542 43.0858 91.6272 43.9526 91.7092 45.5167C91.7316 45.7922 91.7521 46.0607 91.7714 46.3354C91.7899 46.599 91.8063 46.8525 91.8218 47.1178C91.8817 48.1471 91.92 49.2086 91.9162 50.2391C91.9012 52.2287 91.7825 54.2076 91.6533 56.1764C91.5199 58.1532 91.3619 60.1077 91.1918 62.0694C91.1265 62.8213 91.0586 63.5809 90.9903 64.3274C90.9851 64.3995 90.9798 64.4729 90.9744 64.5471C90.8959 65.6309 90.7996 66.9137 90.7044 67.9536C90.6742 68.2844 90.6438 68.594 90.6147 68.8607C90.4605 70.2728 90.3445 71.2302 90.2477 72.0165C90.1873 72.6182 90.1264 73.2207 90.0654 73.8218C89.8669 75.7794 89.6657 77.7366 89.4652 79.6912C89.2647 81.6469 89.064 83.6084 88.8677 85.5558C88.8676 85.5563 88.8676 85.5569 88.8675 85.5573C88.8551 85.7404 88.7734 86.0407 88.6447 86.2379C88.5133 86.4537 88.3181 86.6366 88.0959 86.7537C87.8735 86.8721 87.6276 86.9294 87.3838 86.9289C87.1399 86.9283 86.8946 86.8698 86.6733 86.7508C86.4521 86.6329 86.2584 86.4499 86.1286 86.2345C86.0013 86.0373 85.9214 85.739 85.9099 85.5564C85.9099 85.5564 85.9099 85.5564 85.9099 85.5564C85.836 84.7758 85.7661 84.0358 85.6983 83.3176C85.5094 81.3169 85.3428 79.5442 85.1861 77.8761C85.1576 77.6131 85.1295 77.3557 85.1027 77.1142C85.028 76.4368 84.9573 75.811 84.8912 75.222C84.7649 74.1006 84.6578 73.1438 84.582 72.3588C84.5173 71.6909 84.4562 70.9856 84.4021 70.313C84.3053 69.1101 84.227 67.9653 84.166 67.0484C84.1505 66.8151 84.136 66.5954 84.1225 66.3928C84.0585 65.6824 83.9958 64.9809 83.9356 64.2993C83.9007 63.9047 83.8665 63.5135 83.833 63.1288C83.8341 63.0578 83.8354 62.9864 83.8368 62.914C83.8551 62.0131 83.7721 60.9207 83.6603 59.3094C83.6513 59.1789 83.6422 59.0459 83.6329 58.9083C83.5924 58.3097 83.5496 57.6456 83.5103 56.9166C83.4791 56.3362 83.497 56.0498 83.5113 55.8128C83.5155 55.7429 83.5195 55.6777 83.522 55.6121C83.5307 55.3871 83.4953 55.1562 83.4542 54.8878C83.4216 54.6725 83.3854 54.4342 83.3656 54.1616C83.3531 53.9907 83.3467 53.7968 83.3524 53.5918C83.4014 51.9236 83.3133 51.3059 83.2432 50.8321C83.2232 50.6923 83.2056 50.5695 83.1959 50.4472C83.1906 50.3808 83.187 50.3108 83.1852 50.2391C83.1749 49.5705 83.2228 48.7618 83.2846 48.1281C83.3256 47.6965 83.3549 46.9655 83.3832 46.2534C83.3942 45.9689 83.4047 45.6841 83.4138 45.4236C83.4253 45.0842 83.4635 44.6225 83.5131 44.0828C83.5602 43.5684 83.6182 42.9788 83.6719 42.3489C83.6762 42.2974 83.6806 42.2456 83.6849 42.1935C83.8312 40.4548 83.9301 39.5415 84.007 38.8051C84.0185 38.6968 84.0297 38.5923 84.0408 38.4899C84.0512 38.3939 84.0614 38.2996 84.0717 38.2054C84.1387 37.5898 84.2311 36.8281 84.3289 36.0602C84.3885 35.5909 84.4504 35.1168 84.5081 34.6746C84.5639 34.2481 84.6155 33.8525 84.6592 33.5059C84.8026 32.6365 84.9505 31.7746 85.1027 30.9132C85.2694 29.97 85.4393 29.0401 85.6133 28.1106C85.6691 27.8137 85.7342 27.5053 85.8003 27.2296C85.8338 27.051 85.9514 26.7495 86.0922 26.5743C86.2467 26.3656 86.4558 26.2026 86.6753 26.1063C86.9137 26.0006 87.1612 25.9687 87.3838 25.9897C87.5372 26.004 87.68 26.043 87.8067 26.099C87.8886 26.1351 87.9633 26.1782 88.0299 26.2254C88.2464 26.3788 88.3734 26.5728 88.4352 26.7361C88.5695 27.1294 88.4484 27.3213 88.3554 27.3372C88.249 27.3576 88.1327 27.2021 87.9361 27.0723C87.8521 27.0183 87.7536 26.9745 87.6457 26.9579C87.6124 26.9527 87.5781 26.9499 87.5434 26.9501C87.4899 26.9502 87.4357 26.9573 87.3838 26.9716C87.3082 26.9923 87.2382 27.0291 87.1843 27.0769C87.1343 27.1212 87.0979 27.173 87.0717 27.2341C87.0415 27.31 87.0429 27.3185 87.0242 27.4448C86.9925 27.726 86.9495 28.0372 86.9026 28.3343C86.7554 29.2631 86.6122 30.194 86.4709 31.1366C86.3323 32.0617 86.1981 32.9835 86.066 33.9156C86.0199 34.2408 85.9752 34.5602 85.9299 34.8863C85.7558 36.1414 85.5874 37.4047 85.427 38.6714C85.3357 39.3925 85.247 40.1145 85.1613 40.8391C85.0964 41.388 85.0339 41.9372 84.9743 42.4879C84.8572 43.5697 84.7509 44.6551 84.6623 45.7472C84.6485 45.9177 84.6352 46.0872 84.6225 46.2554C84.6213 46.2833 84.6202 46.3109 84.619 46.3396C84.5618 47.7062 84.5449 49.0488 84.5541 50.0238C84.5547 50.0978 84.5552 50.1694 84.5557 50.2391C84.5606 50.62 84.5463 50.9442 84.5349 51.2192C84.5264 51.4324 84.52 51.6267 84.5274 51.8234C84.5314 51.9299 84.5382 52.0772 84.5474 52.2611C84.5691 52.6992 84.6049 53.3509 84.6398 54.1004C84.6633 54.6066 84.6861 55.1573 84.701 55.7055C84.717 56.3033 84.7257 57.0239 84.738 57.7331C84.7445 58.1109 84.7518 58.484 84.7612 58.8326C84.7769 59.4171 84.7984 59.9277 84.8292 60.2444C84.9154 61.13 84.9725 62.1811 85.0278 63.1407C85.0494 63.5166 85.0708 63.8809 85.0928 64.2093C85.1241 64.6746 85.1573 65.0753 85.1955 65.352C85.2729 65.9127 85.2993 66.4074 85.3397 67.1457C85.3685 67.6665 85.4034 68.2949 85.472 69.1922C85.5005 69.5661 85.5241 69.902 85.5448 70.2158C85.5806 70.7595 85.6054 71.2094 85.629 71.6272C85.6801 72.5379 85.7209 73.2432 85.8546 74.3219C85.9642 75.2058 86.0709 76.1405 86.1549 77.0189C86.1835 77.3168 86.211 77.6277 86.2332 77.9092C86.271 78.3918 86.3263 78.9791 86.3837 79.5841C86.4612 80.4013 86.5464 81.2942 86.6104 82.1384C86.6665 82.8697 86.6901 83.4593 86.7167 84.0395C86.7248 84.2186 86.7305 84.3672 86.7408 84.554C86.7704 84.8632 86.7998 85.1682 86.8288 85.4684C86.8288 85.4684 86.8288 85.4684 86.8288 85.4684C86.8472 85.6132 86.8672 85.6609 86.9181 85.7526C86.9303 85.7724 86.9438 85.7913 86.9582 85.8088C86.9838 85.8321 87.0127 85.8529 87.0447 85.8709C87.0695 85.8847 87.0965 85.8969 87.1254 85.9069C87.2001 85.933 87.2901 85.9447 87.3838 85.9328C87.4637 85.9229 87.5451 85.8951 87.612 85.8506C87.6309 85.8381 87.6488 85.8244 87.6654 85.8095C87.7028 85.7758 87.732 85.7382 87.7556 85.6952C87.7948 85.6127 87.8045 85.5957 87.8228 85.4574C87.8682 84.9687 87.9277 84.4707 87.9861 83.9871C88.0572 83.3938 88.1294 82.7934 88.1905 82.0829C88.2309 81.6121 88.2702 81.0506 88.3067 80.5174C88.3282 80.2045 88.3503 79.8846 88.3718 79.5903C88.4054 79.1309 88.4409 78.6988 88.4786 78.3669C88.5019 78.1618 88.5381 77.9863 88.574 77.8122C88.5742 77.8114 88.5744 77.8107 88.5746 77.8099C88.5771 77.7981 88.5795 77.7862 88.5819 77.7744C88.6888 76.4317 88.7927 75.0854 88.8932 73.7429C88.8936 73.7348 88.8939 73.7267 88.8943 73.7186C88.8991 73.6093 88.904 73.5 88.9089 73.3912C88.9344 72.8207 88.959 72.2643 88.9565 71.9014C88.9539 71.5078 89.0175 70.5229 89.0824 69.4859C89.1179 68.9195 89.1536 68.3393 89.1802 67.8278C89.1855 67.7255 89.1904 67.6261 89.1949 67.5305C89.2103 67.1977 89.2572 66.8777 89.3048 66.5539C89.3493 66.2509 89.3947 65.9421 89.4171 65.5973C89.4283 65.4254 89.4345 65.2398 89.4409 65.0424C89.4465 64.869 89.4524 64.6849 89.4624 64.4905C89.4716 64.3098 89.5138 63.9143 89.5672 63.4053C89.6003 63.0883 89.6375 62.7304 89.6736 62.3584C89.6818 62.2248 89.6901 62.0915 89.6982 61.9588C89.7506 61.1013 89.8021 60.2346 89.8514 59.3687C89.8475 59.1597 89.8358 58.9838 89.8154 58.8365C89.8007 58.7315 89.7807 58.642 89.7602 58.5504C89.7323 58.4258 89.7035 58.2973 89.685 58.1233C89.6707 57.9862 89.6713 57.8326 89.6881 57.721C89.6958 57.6706 89.7068 57.6323 89.7166 57.5976C89.728 57.5579 89.738 57.5225 89.7406 57.4787C89.7424 57.4472 89.7382 57.414 89.7333 57.3733C89.7253 57.3084 89.715 57.224 89.7223 57.0981C89.74 56.7885 89.7642 56.4182 89.7874 56.0682C89.7983 55.9034 89.8093 55.7374 89.8205 55.5656C89.8584 54.9862 89.8935 54.4032 89.9096 53.9613C89.929 53.4423 89.9833 52.7237 90.0283 52.0016C90.0594 51.5131 90.0864 50.9992 90.0963 50.565C90.0988 50.4544 90.0997 50.3454 90.0991 50.2391C90.0975 49.9271 90.0838 49.5944 90.0676 49.2866C90.0411 48.7788 90.0072 48.2898 90.007 47.8707C90.007 47.7853 90.0266 47.6774 90.0509 47.5457C90.0681 47.4516 90.0874 47.3427 90.1036 47.218C90.0884 46.9589 90.0729 46.711 90.0557 46.4529C90.0369 46.1718 90.0174 45.8962 89.9962 45.6132C89.9913 45.5942 89.9864 45.5756 89.9813 45.5565C89.9812 45.5562 89.9811 45.5559 89.981 45.5556C89.867 45.1245 89.7085 44.533 89.6914 43.6839C89.6869 43.4673 89.7036 43.3287 89.7187 43.2051C89.7334 43.0831 89.7465 42.9739 89.7352 42.8166C89.7314 42.7639 89.7254 42.7086 89.7176 42.6509C89.6992 42.5136 89.6711 42.3637 89.6409 42.2038C89.5806 41.8839 89.5126 41.5312 89.4968 41.1673C89.4957 41.1425 89.4946 41.1158 89.4933 41.0881C89.4816 40.8261 89.463 40.4359 89.471 40.0455C89.4268 39.6444 89.3816 39.2433 89.3353 38.8423C89.2497 38.1016 89.1608 37.3619 89.0687 36.6212C89.0029 36.0925 88.9357 35.5649 88.8669 35.0369C88.7016 33.7685 88.5276 32.4991 88.3461 31.2353C88.3308 31.1289 88.3155 31.0231 88.3003 30.9178C88.1669 29.9945 88.092 29.0992 88.0992 28.4273C88.1072 27.7585 88.1954 27.3614 88.3554 27.3372C88.5137 27.3054 88.7331 27.6487 88.965 28.278C89.1973 28.9104 89.4224 29.7843 89.5915 30.7061C89.6108 30.8111 89.6301 30.9168 89.6494 31.023C89.8793 32.2847 90.1018 33.5533 90.3127 34.8225C90.3351 34.9573 90.3575 35.0925 90.3797 35.2281C90.3947 35.3071 90.4096 35.3867 90.4242 35.4658C90.5323 36.0518 90.655 36.5941 90.7758 37.1375C90.8035 37.262 90.8312 37.387 90.8585 37.5125Z" fill="#AB904E"/>
</svg>
