<svg width="384" height="422" viewBox="0 0 384 422" fill="none" xmlns="http://www.w3.org/2000/svg">
<path d="M190.718 29.1807L191.309 28.3744L190.718 27.9405L190.127 28.3744L190.718 29.1807ZM189.943 169.859C190.292 170.287 190.922 170.351 191.35 170.002C191.778 169.653 191.842 169.023 191.493 168.595L189.943 169.859ZM212.776 191.538C212.379 191.155 211.746 191.166 211.362 191.564C210.979 191.962 210.991 192.595 211.389 192.978L212.776 191.538ZM352.187 213.373C352.513 212.927 352.416 212.302 351.971 211.975C351.525 211.649 350.899 211.746 350.573 212.192L352.187 213.373ZM205.246 240.568L205.962 241.266L205.962 241.266L205.246 240.568ZM215.073 232.297C215.475 231.919 215.494 231.286 215.115 230.884C214.736 230.482 214.103 230.463 213.701 230.842L215.073 232.297ZM316.59 190.01C316.055 189.872 315.51 190.195 315.373 190.73C315.236 191.265 315.558 191.81 316.093 191.947L316.59 190.01ZM350.573 213.832C350.899 214.278 351.525 214.374 351.971 214.048C352.416 213.722 352.513 213.096 352.187 212.65L350.573 213.832ZM158.791 320.243C158.715 320.79 159.097 321.295 159.643 321.372C160.19 321.448 160.696 321.067 160.772 320.52L158.791 320.243ZM190.718 256.797L189.943 256.165L189.943 256.165L190.718 256.797ZM190.718 396.843L190.126 397.649L190.718 398.083L191.309 397.649L190.718 396.843ZM160.89 344.138C160.805 343.593 160.293 343.219 159.748 343.304C159.202 343.389 158.828 343.901 158.913 344.446L160.89 344.138ZM213.625 234.003C214.026 233.623 214.043 232.99 213.663 232.59C213.283 232.189 212.65 232.172 212.249 232.552L213.625 234.003ZM236.302 211.973C235.855 212.297 235.755 212.922 236.079 213.369C236.404 213.816 237.029 213.916 237.476 213.592L236.302 211.973ZM292.508 190.204C293.058 190.151 293.461 189.663 293.409 189.114C293.357 188.564 292.869 188.16 292.319 188.213L292.508 190.204ZM176.19 185.456L175.474 184.758L175.474 184.758L176.19 185.456ZM30.863 212.192C30.5367 211.746 29.9109 211.649 29.4653 211.976C29.0197 212.302 28.923 212.928 29.2493 213.373L30.863 212.192ZM220.017 118.263C220.166 117.731 219.856 117.179 219.324 117.03C218.792 116.881 218.24 117.191 218.091 117.723L220.017 118.263ZM221.473 93.237C221.478 93.7892 221.93 94.2328 222.482 94.2278C223.034 94.2227 223.478 93.7709 223.473 93.2186L221.473 93.237ZM143.983 213.609C144.43 213.933 145.056 213.834 145.38 213.386C145.704 212.939 145.605 212.314 145.157 211.99L143.983 213.609ZM89.9828 188.3C89.4336 188.242 88.941 188.639 88.8825 189.189C88.8241 189.738 89.2219 190.23 89.771 190.289L89.9828 188.3ZM63.6861 192.395C64.2173 192.244 64.5252 191.691 64.374 191.159C64.2227 190.628 63.6695 190.32 63.1383 190.472L63.6861 192.395ZM29.2492 212.65C28.9229 213.096 29.0196 213.722 29.4652 214.048C29.9108 214.374 30.5365 214.278 30.8628 213.832L29.2492 212.65ZM169.662 191.208C170.01 191.638 170.639 191.704 171.069 191.357C171.498 191.01 171.565 190.38 171.218 189.951L169.662 191.208ZM192.735 212.902C192.329 212.527 191.696 212.552 191.321 212.958C190.947 213.363 190.972 213.996 191.377 214.371L192.735 212.902ZM212.167 190.622C211.719 190.945 211.618 191.57 211.941 192.018C212.264 192.466 212.889 192.567 213.337 192.244L212.167 190.622ZM278.949 161.795C279.489 161.679 279.833 161.148 279.718 160.608C279.603 160.068 279.072 159.723 278.532 159.838L278.949 161.795ZM304.389 157.136C303.837 157.129 303.384 157.572 303.378 158.124C303.371 158.676 303.814 159.129 304.366 159.136L304.389 157.136ZM133.266 308.28C133.185 308.826 133.563 309.334 134.109 309.415C134.655 309.496 135.164 309.119 135.245 308.572L133.266 308.28ZM170.987 232.336C171.333 231.906 171.265 231.276 170.835 230.93C170.405 230.583 169.776 230.651 169.429 231.081L170.987 232.336ZM134.477 334.804C134.425 334.254 133.937 333.851 133.387 333.903C132.837 333.956 132.434 334.444 132.486 334.994L134.477 334.804ZM249.682 105.109C249.641 105.66 250.054 106.139 250.605 106.18C251.156 106.222 251.636 105.808 251.677 105.258L249.682 105.109ZM247.393 129.362C247.541 128.83 247.229 128.279 246.697 128.131C246.165 127.983 245.614 128.294 245.466 128.826L247.393 129.362ZM213.686 230.925C213.33 230.503 212.699 230.449 212.277 230.805C211.855 231.161 211.801 231.792 212.157 232.214L213.686 230.925ZM170.071 191.819C170.52 192.14 171.145 192.036 171.466 191.586C171.787 191.137 171.683 190.512 171.233 190.191L170.071 191.819ZM102.885 159.315C102.342 159.21 101.818 159.565 101.714 160.108C101.609 160.65 101.964 161.174 102.507 161.278L102.885 159.315ZM75.4033 159.275C75.9548 159.245 76.3775 158.773 76.3475 158.222C76.3174 157.67 75.846 157.248 75.2946 157.278L75.4033 159.275ZM190.718 29.1807C190.127 28.3744 190.126 28.3749 190.125 28.3757C190.124 28.3762 190.123 28.3772 190.121 28.3782C190.118 28.3803 190.115 28.3832 190.11 28.3869C190.1 28.3943 190.085 28.4049 190.067 28.4187C190.03 28.4463 189.977 28.4867 189.907 28.5397C189.769 28.6459 189.567 28.8029 189.308 29.0103C188.79 29.425 188.045 30.0412 187.125 30.8549C185.285 32.4819 182.744 34.8997 179.922 38.0754C174.281 44.4238 167.505 53.8186 162.985 65.9934C153.915 90.4221 154.018 125.801 189.943 169.859L190.718 169.227L191.493 168.595C155.962 125.02 156.065 90.3757 164.859 66.6895C169.271 54.8069 175.893 45.6213 181.417 39.4038C184.178 36.2964 186.661 33.9348 188.45 32.3531C189.344 31.5624 190.064 30.967 190.558 30.5712C190.805 30.3733 190.996 30.2253 191.123 30.1277C191.187 30.079 191.235 30.0428 191.266 30.0193C191.282 30.0076 191.293 29.999 191.301 29.9937C191.304 29.991 191.307 29.9891 191.308 29.988C191.309 29.9874 191.309 29.9872 191.31 29.9869C191.31 29.9869 191.309 29.987 190.718 29.1807ZM212.083 192.258L211.389 192.978C211.408 192.997 211.428 193.016 211.448 193.035L212.142 192.315L212.835 191.595C212.816 191.576 212.796 191.557 212.776 191.538L212.083 192.258ZM212.142 192.315L211.448 193.035C255.265 235.232 289.538 241.649 313.403 236.749C337.194 231.865 350.316 215.793 351.996 213.624L351.206 213.012L350.415 212.399C348.849 214.421 336.1 230.048 313.001 234.79C289.976 239.518 256.34 233.491 212.835 191.595L212.142 192.315ZM351.206 213.012L351.996 213.624C352.057 213.546 352.104 213.484 352.135 213.442C352.151 213.421 352.163 213.405 352.172 213.393C352.176 213.387 352.18 213.383 352.182 213.379C352.183 213.378 352.184 213.376 352.185 213.375C352.186 213.375 352.186 213.374 352.186 213.374C352.186 213.374 352.187 213.374 352.187 213.373C352.187 213.373 352.187 213.373 352.187 213.373C352.187 213.373 352.187 213.373 352.187 213.373C352.187 213.373 352.187 213.373 352.187 213.373C352.187 213.373 352.187 213.373 351.38 212.782C350.573 212.192 350.573 212.192 350.573 212.192C350.573 212.192 350.573 212.192 350.573 212.192C350.573 212.192 350.573 212.192 350.573 212.192C350.573 212.191 350.573 212.191 350.573 212.191C350.573 212.191 350.573 212.191 350.573 212.191C350.573 212.191 350.573 212.191 350.573 212.191C350.573 212.191 350.573 212.192 350.572 212.193C350.571 212.194 350.569 212.197 350.566 212.201C350.56 212.209 350.551 212.222 350.537 212.239C350.511 212.274 350.47 212.328 350.415 212.399L351.206 213.012ZM205.246 240.568L205.962 241.266C208.767 238.388 211.532 235.657 214.259 233.067L213.57 232.342L212.882 231.617C210.136 234.225 207.352 236.974 204.53 239.87L205.246 240.568ZM213.57 232.342L214.259 233.067C214.497 232.841 214.735 232.615 214.973 232.391L214.287 231.664L213.601 230.936C213.361 231.162 213.122 231.389 212.882 231.617L213.57 232.342ZM214.287 231.664L214.973 232.391C215.006 232.36 215.04 232.329 215.073 232.297L214.387 231.57L213.701 230.842C213.668 230.873 213.634 230.905 213.601 230.936L214.287 231.664ZM316.342 190.978L316.093 191.947C337.24 197.371 348.923 211.697 350.415 213.624L351.206 213.012L351.996 212.399C350.391 210.327 338.366 195.595 316.59 190.01L316.342 190.978ZM351.206 213.012L350.415 213.624C350.47 213.695 350.511 213.749 350.537 213.784C350.551 213.802 350.56 213.814 350.566 213.822C350.569 213.826 350.571 213.829 350.572 213.831C350.573 213.832 350.573 213.832 350.573 213.832C350.573 213.832 350.573 213.832 350.573 213.832C350.573 213.832 350.573 213.832 350.573 213.832C350.573 213.832 350.573 213.832 350.573 213.832C350.573 213.832 350.573 213.832 350.573 213.832C350.573 213.832 350.573 213.832 350.573 213.832C350.573 213.832 350.573 213.832 351.38 213.241C352.187 212.65 352.187 212.65 352.187 212.65C352.187 212.65 352.187 212.65 352.187 212.65C352.187 212.65 352.187 212.65 352.187 212.65C352.187 212.65 352.187 212.65 352.187 212.65C352.186 212.65 352.186 212.65 352.186 212.649C352.186 212.649 352.186 212.649 352.185 212.648C352.184 212.647 352.183 212.646 352.182 212.644C352.18 212.641 352.176 212.636 352.172 212.63C352.163 212.619 352.151 212.602 352.135 212.581C352.104 212.539 352.057 212.478 351.996 212.399L351.206 213.012ZM159.782 320.381L160.772 320.52C163.302 302.403 172.063 281.257 191.493 257.429L190.718 256.797L189.943 256.165C170.331 280.217 161.382 301.694 158.791 320.243L159.782 320.381ZM190.718 256.797L191.493 257.429C195.781 252.17 200.588 246.781 205.962 241.266L205.246 240.568L204.53 239.87C199.117 245.425 194.27 250.858 189.943 256.165L190.718 256.797ZM190.718 396.843C191.309 396.036 191.31 396.037 191.31 396.037C191.31 396.037 191.31 396.037 191.309 396.036C191.309 396.036 191.308 396.036 191.307 396.035C191.305 396.033 191.301 396.03 191.296 396.026C191.285 396.018 191.268 396.006 191.246 395.989C191.2 395.955 191.132 395.903 191.041 395.833C190.859 395.692 190.589 395.48 190.242 395.197C189.547 394.63 188.544 393.779 187.321 392.651C184.875 390.395 181.554 387.033 178.068 382.625C171.095 373.806 163.488 360.825 160.89 344.138L159.901 344.292L158.913 344.446C161.58 361.568 169.38 374.862 176.5 383.866C180.06 388.369 183.456 391.807 185.965 394.121C187.22 395.279 188.254 396.156 188.978 396.746C189.339 397.041 189.623 397.265 189.818 397.415C189.916 397.491 189.991 397.548 190.043 397.587C190.069 397.607 190.089 397.621 190.103 397.632C190.11 397.637 190.116 397.641 190.119 397.644C190.121 397.645 190.123 397.647 190.124 397.647C190.125 397.648 190.125 397.648 190.126 397.648C190.126 397.649 190.126 397.649 190.718 396.843ZM205.246 240.568L205.962 241.266C208.836 238.316 210.77 236.709 213.625 234.003L212.937 233.277L212.249 232.552C209.488 235.168 207.434 236.89 204.53 239.87L205.246 240.568ZM236.889 212.782L237.476 213.592C258.694 198.207 277.026 191.71 292.354 190.219L292.258 189.223L292.161 188.228C276.412 189.76 257.749 196.422 236.302 211.973L236.889 212.782ZM292.258 189.223L292.354 190.219C292.406 190.214 292.457 190.209 292.508 190.204L292.413 189.208L292.319 188.213C292.266 188.218 292.213 188.223 292.161 188.228L292.258 189.223ZM176.19 185.456L175.474 184.758C173.616 186.665 171.774 188.507 169.95 190.287L170.649 191.002L171.347 191.718C173.183 189.927 175.037 188.072 176.906 186.153L176.19 185.456ZM170.649 191.002L169.95 190.287C121.569 237.485 85.2651 240.425 62.0222 233.13L61.7228 234.085L61.4233 235.039C85.5713 242.618 122.611 239.262 171.347 191.718L170.649 191.002ZM61.7228 234.085L62.0222 233.13C42.9709 227.151 32.4313 214.22 31.0209 212.399L30.2304 213.012L29.4398 213.624C30.9606 215.587 41.8104 228.883 61.4233 235.039L61.7228 234.085ZM30.2304 213.012L31.021 212.399C30.9658 212.328 30.925 212.274 30.8987 212.239C30.8855 212.222 30.8759 212.209 30.87 212.201C30.867 212.197 30.8649 212.194 30.8637 212.193C30.8632 212.192 30.8628 212.191 30.8627 212.191C30.8626 212.191 30.8626 212.191 30.8626 212.191C30.8627 212.191 30.8627 212.191 30.8628 212.191C30.8628 212.191 30.8628 212.191 30.8628 212.191C30.8629 212.191 30.8629 212.191 30.8629 212.191C30.8629 212.191 30.8629 212.192 30.8629 212.192C30.8629 212.192 30.863 212.192 30.0561 212.782C29.2493 213.373 29.2493 213.373 29.2493 213.373C29.2494 213.373 29.2494 213.373 29.2494 213.373C29.2494 213.373 29.2494 213.373 29.2494 213.373C29.2495 213.373 29.2495 213.373 29.2496 213.374C29.2497 213.374 29.2498 213.374 29.25 213.374C29.2502 213.374 29.2506 213.375 29.251 213.375C29.2517 213.376 29.2527 213.378 29.254 213.379C29.2564 213.383 29.2598 213.387 29.2641 213.393C29.2727 213.405 29.2849 213.421 29.3008 213.442C29.3326 213.484 29.3789 213.545 29.4398 213.624L30.2304 213.012ZM219.054 117.993L218.091 117.723C212.629 137.205 199.92 159.67 175.474 184.758L176.19 185.456L176.906 186.153C201.523 160.89 214.443 138.143 220.017 118.263L219.054 117.993ZM190.718 29.1807C190.127 29.987 190.126 29.9869 190.126 29.9868C190.126 29.9869 190.126 29.9869 190.127 29.9871C190.127 29.9875 190.128 29.9882 190.13 29.9893C190.133 29.9914 190.137 29.995 190.144 29.9999C190.157 30.0098 190.178 30.0253 190.206 30.0463C190.261 30.0883 190.346 30.1526 190.457 30.2389C190.679 30.4117 191.009 30.6727 191.43 31.0208C192.273 31.717 193.483 32.7612 194.938 34.1434C197.85 36.9085 201.742 41.0222 205.645 46.405C213.452 57.1717 221.287 72.9856 221.473 93.237L222.473 93.2278L223.473 93.2186C223.283 72.4398 215.24 56.2302 207.264 45.2309C203.276 39.7307 199.299 35.5258 196.315 32.693C194.823 31.2763 193.579 30.2017 192.704 29.4789C192.267 29.1175 191.921 28.844 191.684 28.6595C191.565 28.5672 191.473 28.4973 191.41 28.4497C191.379 28.4259 191.354 28.4077 191.338 28.3952C191.329 28.3889 191.323 28.384 191.318 28.3805C191.316 28.3788 191.314 28.3774 191.312 28.3764C191.312 28.3759 191.311 28.3754 191.31 28.3751C191.31 28.3747 191.309 28.3744 190.718 29.1807ZM190.718 396.843C191.309 397.649 191.31 397.649 191.311 397.648C191.312 397.647 191.313 397.646 191.315 397.645C191.318 397.643 191.321 397.64 191.326 397.637C191.336 397.629 191.351 397.619 191.369 397.605C191.406 397.577 191.459 397.537 191.529 397.484C191.667 397.378 191.869 397.221 192.128 397.013C192.646 396.598 193.391 395.982 194.311 395.169C196.151 393.542 198.692 391.124 201.514 387.948C207.155 381.6 213.931 372.205 218.451 360.03C227.521 335.601 227.418 300.222 191.493 256.165L190.718 256.797L189.943 257.429C225.474 301.004 225.371 335.648 216.577 359.334C212.165 371.217 205.543 380.402 200.019 386.62C197.258 389.727 194.775 392.089 192.986 393.67C192.092 394.461 191.372 395.056 190.878 395.452C190.631 395.65 190.44 395.798 190.313 395.896C190.249 395.945 190.201 395.981 190.17 396.004C190.154 396.016 190.143 396.024 190.135 396.03C190.132 396.033 190.129 396.034 190.128 396.036C190.127 396.036 190.127 396.036 190.126 396.037C190.126 396.037 190.126 396.036 190.718 396.843ZM144.57 212.799L145.157 211.99C124.021 196.659 105.588 189.961 89.9828 188.3L89.8769 189.294L89.771 190.289C104.964 191.906 123.072 198.442 143.983 213.609L144.57 212.799ZM63.4122 191.433L63.1383 190.472C42.4426 196.366 31.0039 210.38 29.4398 212.399L30.2304 213.012L31.0209 213.624C32.4735 211.749 43.5856 198.12 63.6861 192.395L63.4122 191.433ZM30.2304 213.012L29.4398 212.399C29.3789 212.478 29.3325 212.539 29.3007 212.581C29.2848 212.602 29.2726 212.619 29.264 212.63C29.2597 212.636 29.2563 212.641 29.2538 212.644C29.2526 212.646 29.2516 212.647 29.2508 212.648C29.2504 212.649 29.2501 212.649 29.2498 212.649C29.2497 212.65 29.2495 212.65 29.2494 212.65C29.2494 212.65 29.2493 212.65 29.2493 212.65C29.2493 212.65 29.2492 212.65 29.2492 212.65C29.2492 212.65 29.2492 212.65 29.2492 212.65C29.2492 212.65 29.2492 212.65 30.056 213.241C30.8628 213.832 30.8628 213.832 30.8628 213.832C30.8628 213.832 30.8628 213.832 30.8628 213.832C30.8627 213.832 30.8627 213.832 30.8627 213.832C30.8627 213.832 30.8626 213.832 30.8626 213.832C30.8626 213.832 30.8625 213.832 30.8625 213.832C30.8625 213.832 30.8625 213.832 30.8625 213.832C30.8627 213.832 30.863 213.832 30.8636 213.831C30.8648 213.829 30.8668 213.826 30.8698 213.822C30.8758 213.814 30.8854 213.802 30.8985 213.784C30.9249 213.749 30.9657 213.695 31.0209 213.624L30.2304 213.012ZM192.428 1L191.892 0.155355C191.749 0.24634 191.605 0.337411 191.462 0.428566L192 1.27178L192.538 2.11499C192.679 2.02479 192.821 1.93468 192.963 1.84465L192.428 1ZM192 1.27178L191.462 0.428563C146.674 28.9825 130.176 65.8249 132.175 102.943L133.174 102.889L134.172 102.835C132.216 66.5085 148.296 30.3206 192.538 2.11499L192 1.27178ZM133.174 102.889L132.175 102.943C133.838 133.828 148.3 164.785 169.662 191.208L170.44 190.579L171.218 189.951C150.037 163.752 135.806 133.185 134.172 102.835L133.174 102.889ZM192.056 213.636L191.377 214.371C198.455 220.91 205.942 226.98 213.709 232.48L214.287 231.664L214.865 230.848C207.169 225.399 199.749 219.382 192.735 212.902L192.056 213.636ZM214.287 231.664L213.709 232.48C243.446 253.534 277.37 266.269 308.201 264.749C339.108 263.224 366.802 247.37 383.903 211.505L383 211.074L382.097 210.644C365.311 245.85 338.27 261.263 308.102 262.751C277.858 264.243 244.369 251.737 214.865 230.848L214.287 231.664ZM212.752 191.433L213.337 192.244C213.429 192.178 213.52 192.112 213.612 192.046L213.028 191.234L212.445 190.422C212.352 190.489 212.26 190.556 212.167 190.622L212.752 191.433ZM213.028 191.234L213.612 192.046C234.201 177.246 256.812 166.511 278.949 161.795L278.74 160.817L278.532 159.838C256.075 164.624 233.213 175.493 212.445 190.422L213.028 191.234ZM304.378 158.136L304.366 159.136C336.038 159.503 364.626 174.712 382.097 211.356L383 210.926L383.903 210.495C366.098 173.152 336.813 157.512 304.389 157.136L304.378 158.136ZM134.255 308.426L135.245 308.572C139.195 281.871 152.394 255.416 170.987 232.336L170.208 231.708L169.429 231.081C150.672 254.365 137.28 281.143 133.266 308.28L134.255 308.426ZM192.428 421L192.963 420.155C192.821 420.065 192.679 419.975 192.538 419.885L192 420.728L191.462 421.571C191.605 421.663 191.749 421.754 191.892 421.845L192.428 421ZM192 420.728L192.538 419.885C154.638 395.723 137.42 365.711 134.477 334.804L133.482 334.899L132.486 334.994C135.496 366.6 153.121 397.127 191.462 421.571L192 420.728ZM191.573 1L191.037 1.84465C191.179 1.93468 191.321 2.02479 191.462 2.11499L192 1.27178L192.538 0.428566C192.395 0.337411 192.251 0.24634 192.108 0.155355L191.573 1ZM192 1.27178L191.462 2.11499C236.553 30.8617 252.394 67.9017 249.695 104.936L250.692 105.009L251.69 105.081C254.447 67.2475 238.19 29.5333 192.538 0.428563L192 1.27178ZM250.692 105.009L249.695 104.936C249.691 104.994 249.686 105.051 249.682 105.109L250.679 105.183L251.677 105.258C251.681 105.199 251.685 105.14 251.69 105.081L250.692 105.009ZM246.429 129.094L245.466 128.826C245.432 128.946 245.399 129.067 245.365 129.187L246.327 129.458L247.29 129.729C247.324 129.607 247.359 129.484 247.393 129.362L246.429 129.094ZM246.327 129.458L245.365 129.187C239.283 150.804 227.544 171.844 212.253 190.602L213.028 191.234L213.804 191.866C229.233 172.937 241.12 151.657 247.29 129.729L246.327 129.458ZM213.028 191.234L212.253 190.602C211.96 190.962 211.666 191.32 211.371 191.678L212.142 192.315L212.912 192.952C213.211 192.591 213.508 192.229 213.804 191.866L213.028 191.234ZM212.142 192.315L211.371 191.678C182.059 227.154 140.18 254.146 100.388 261.111C80.5056 264.591 61.1851 263.065 44.2059 255.153C27.2375 247.245 12.5232 232.919 1.90275 210.644L1.0001 211.074L0.0974542 211.505C10.8926 234.146 25.9215 248.838 43.361 256.965C60.7897 265.088 80.5416 266.615 100.733 263.081C141.09 256.017 183.366 228.713 212.912 192.952L212.142 192.315ZM191.572 421L192.108 421.845C192.251 421.754 192.395 421.663 192.537 421.571L192 420.728L191.463 419.885C191.321 419.975 191.179 420.065 191.037 420.155L191.572 421ZM192 420.728L192.538 421.571C234.149 395.049 251.759 362.035 252.818 328.332C253.876 294.689 238.436 260.548 214.338 231.701L213.57 232.342L212.803 232.983C236.702 261.593 251.857 295.271 250.819 328.269C249.784 361.208 232.61 393.658 191.463 419.885L192 420.728ZM213.57 232.342L214.338 231.701C214.121 231.442 213.904 231.183 213.686 230.925L212.922 231.57L212.157 232.214C212.373 232.47 212.588 232.726 212.803 232.983L213.57 232.342ZM170.652 191.005L171.233 190.191C171.233 190.191 171.233 190.191 171.233 190.191C171.233 190.191 171.233 190.191 171.233 190.191C171.233 190.191 171.233 190.191 171.233 190.191C171.233 190.191 171.233 190.191 171.233 190.191C171.233 190.191 171.233 190.191 171.233 190.191C171.233 190.191 171.233 190.191 171.233 190.191C171.233 190.191 171.233 190.191 171.233 190.191C171.233 190.191 171.233 190.191 171.233 190.191C171.233 190.191 171.233 190.191 171.233 190.191C171.233 190.191 171.233 190.191 171.233 190.191C171.233 190.191 171.233 190.191 171.233 190.191C171.233 190.191 171.233 190.191 171.233 190.191C171.233 190.191 171.233 190.191 171.233 190.191C171.233 190.191 171.233 190.191 171.233 190.191C171.233 190.191 171.233 190.191 171.233 190.191C171.233 190.191 171.233 190.191 171.233 190.191C171.233 190.191 171.233 190.191 171.233 190.191C171.233 190.191 171.233 190.191 171.233 190.191C171.233 190.191 171.233 190.191 171.233 190.191C171.233 190.191 171.233 190.191 171.233 190.191C171.233 190.191 171.233 190.191 171.233 190.191C171.233 190.191 171.233 190.191 171.233 190.191C171.233 190.191 171.233 190.191 171.233 190.191C171.233 190.191 171.233 190.191 171.233 190.191C171.233 190.191 171.233 190.191 171.233 190.191C171.233 190.191 171.233 190.191 171.233 190.191C171.233 190.191 171.233 190.191 171.233 190.191C171.233 190.191 171.233 190.191 171.233 190.191C171.233 190.191 171.233 190.191 171.233 190.191C171.233 190.191 171.233 190.191 171.233 190.191C171.233 190.191 171.233 190.191 171.233 190.191C171.233 190.191 171.233 190.191 171.233 190.191C171.233 190.191 171.233 190.191 171.233 190.191C171.233 190.191 171.233 190.191 171.233 190.191C171.233 190.191 171.233 190.191 171.233 190.191C171.233 190.191 171.233 190.191 171.233 190.191C171.233 190.191 171.233 190.191 171.233 190.191C171.233 190.191 171.233 190.191 171.233 190.191C171.233 190.191 171.233 190.191 171.233 190.191C171.233 190.191 171.233 190.191 171.233 190.191C171.233 190.191 171.233 190.191 171.233 190.191C171.233 190.191 171.233 190.191 171.233 190.191C171.233 190.191 171.233 190.191 171.233 190.191C171.233 190.191 171.233 190.191 171.233 190.191C171.233 190.191 171.233 190.191 171.233 190.191C171.233 190.191 171.233 190.191 171.233 190.191C171.233 190.191 171.233 190.191 171.233 190.191C171.233 190.191 171.233 190.191 171.233 190.191C171.233 190.191 171.233 190.191 171.233 190.191C171.233 190.191 171.233 190.191 171.233 190.191C171.233 190.191 171.233 190.191 171.233 190.191C171.233 190.191 171.233 190.191 171.233 190.191C171.233 190.191 171.233 190.191 171.233 190.191C171.233 190.191 171.233 190.191 171.233 190.191C171.233 190.191 171.233 190.191 171.233 190.191C171.233 190.191 171.233 190.191 171.233 190.191C171.233 190.191 171.233 190.191 171.233 190.191C171.233 190.191 171.233 190.191 171.233 190.191C171.233 190.191 171.233 190.191 171.233 190.191C171.233 190.191 171.233 190.191 171.233 190.191C171.233 190.191 171.233 190.191 171.233 190.191C171.233 190.191 171.233 190.191 171.233 190.191C171.233 190.191 171.233 190.191 171.233 190.191C171.233 190.191 171.233 190.191 171.233 190.191C171.233 190.191 171.233 190.191 171.233 190.191C171.233 190.191 171.233 190.191 171.233 190.191C171.233 190.191 171.233 190.191 171.233 190.191C171.233 190.191 171.233 190.191 171.233 190.191C171.233 190.191 171.233 190.191 171.233 190.191C171.233 190.191 171.233 190.191 171.233 190.191C171.233 190.191 171.233 190.191 171.233 190.191C171.233 190.191 171.233 190.191 171.233 190.191C171.233 190.191 171.233 190.191 171.233 190.191C171.233 190.191 171.233 190.191 171.233 190.191C171.233 190.191 171.233 190.191 171.233 190.191C171.233 190.191 171.233 190.191 171.233 190.191C171.233 190.191 171.233 190.191 171.233 190.191C171.233 190.191 171.233 190.191 171.233 190.191C171.233 190.191 171.233 190.191 171.233 190.191C171.233 190.191 171.233 190.191 171.233 190.191C171.233 190.191 171.233 190.191 171.233 190.191C171.233 190.191 171.233 190.191 171.233 190.191C171.233 190.191 171.233 190.191 171.233 190.191C171.233 190.191 171.233 190.191 171.233 190.191C171.233 190.191 171.233 190.191 171.233 190.191C171.233 190.191 171.233 190.191 171.233 190.191C171.233 190.191 171.233 190.191 171.233 190.191C171.233 190.191 171.233 190.191 171.233 190.191C171.233 190.191 171.233 190.191 171.233 190.191C171.233 190.191 171.233 190.191 171.233 190.191C171.233 190.191 171.233 190.191 171.233 190.191C171.233 190.191 171.233 190.191 171.233 190.191C171.233 190.191 171.233 190.191 171.233 190.191C171.233 190.191 171.233 190.191 171.233 190.191C171.233 190.191 171.233 190.191 171.233 190.191C171.233 190.191 171.233 190.191 171.233 190.191C171.233 190.191 171.233 190.191 171.233 190.191C171.233 190.191 171.233 190.191 171.233 190.191C171.233 190.191 171.233 190.191 171.233 190.191C171.233 190.191 171.233 190.191 171.233 190.191C171.233 190.191 171.233 190.191 171.233 190.191C171.233 190.191 171.233 190.191 171.233 190.191C171.233 190.191 171.233 190.191 171.233 190.191C171.233 190.191 171.233 190.191 171.233 190.191C171.233 190.191 171.233 190.191 171.233 190.191C171.233 190.191 171.233 190.191 171.233 190.191C171.233 190.191 171.233 190.191 171.233 190.191C171.233 190.191 171.233 190.191 171.233 190.191C171.233 190.191 171.233 190.191 171.233 190.191C171.233 190.191 171.233 190.191 171.233 190.191C171.233 190.191 171.233 190.191 171.233 190.191C171.233 190.191 171.233 190.191 171.233 190.191C171.233 190.191 171.233 190.191 171.233 190.191C171.233 190.191 171.233 190.191 171.233 190.191C171.233 190.191 171.233 190.191 171.233 190.191C171.233 190.191 171.233 190.191 171.233 190.191C171.233 190.191 171.233 190.191 171.233 190.191C171.233 190.191 171.233 190.191 171.233 190.191C171.233 190.191 171.233 190.191 171.233 190.191C171.233 190.191 171.232 190.191 171.232 190.191C171.232 190.191 171.232 190.191 171.232 190.191C171.232 190.191 171.232 190.191 171.232 190.191C171.232 190.191 171.232 190.191 171.232 190.191C171.232 190.191 171.232 190.191 171.232 190.191C171.232 190.191 171.232 190.191 171.232 190.191C171.232 190.191 171.232 190.191 171.232 190.191C171.232 190.191 171.232 190.191 171.232 190.191C171.232 190.191 171.232 190.191 171.232 190.191C171.232 190.191 171.232 190.191 171.232 190.191C171.232 190.191 171.232 190.191 171.232 190.191C171.232 190.191 171.232 190.191 171.232 190.191C171.232 190.191 171.232 190.191 171.232 190.191C171.232 190.191 171.232 190.191 171.232 190.191C171.232 190.191 171.232 190.191 171.232 190.191C171.232 190.191 171.232 190.191 171.232 190.191C171.232 190.191 171.232 190.191 171.232 190.191C171.232 190.191 171.232 190.191 171.232 190.191C171.232 190.191 171.232 190.191 171.232 190.191C171.232 190.191 171.232 190.191 171.232 190.191C171.232 190.191 171.232 190.191 171.232 190.191C171.232 190.191 171.232 190.191 171.232 190.191C171.232 190.191 171.232 190.191 171.232 190.191C171.232 190.191 171.232 190.191 171.232 190.191C171.232 190.191 171.232 190.191 171.232 190.191C171.232 190.191 171.232 190.191 171.232 190.191C171.232 190.191 171.232 190.191 171.232 190.191C171.232 190.191 171.232 190.191 171.232 190.191C171.232 190.191 171.232 190.191 171.232 190.191C171.232 190.191 171.232 190.191 171.232 190.191C171.232 190.191 171.232 190.191 171.232 190.191C171.232 190.191 171.232 190.191 171.232 190.191C171.232 190.191 171.232 190.191 171.232 190.191C171.232 190.191 171.232 190.191 171.232 190.191C171.232 190.191 171.232 190.191 171.232 190.19C171.232 190.19 171.232 190.19 171.232 190.19C171.232 190.19 171.232 190.19 171.232 190.19C171.232 190.19 171.232 190.19 171.232 190.19C171.232 190.19 171.232 190.19 171.232 190.19C171.232 190.19 171.232 190.19 171.232 190.19C171.232 190.19 171.232 190.19 171.232 190.19C171.232 190.19 171.232 190.19 171.232 190.19C171.232 190.19 171.232 190.19 171.232 190.19C171.232 190.19 171.232 190.19 171.232 190.19C171.232 190.19 171.232 190.19 171.232 190.19C171.232 190.19 171.232 190.19 171.232 190.19C171.232 190.19 171.232 190.19 171.232 190.19C171.232 190.19 171.232 190.19 171.232 190.19C171.232 190.19 171.232 190.19 171.232 190.19C171.232 190.19 171.232 190.19 171.232 190.19C171.232 190.19 171.232 190.19 171.232 190.19C171.232 190.19 171.232 190.19 171.232 190.19C171.232 190.19 171.232 190.19 171.232 190.19C171.232 190.19 171.232 190.19 171.232 190.19C171.232 190.19 171.232 190.19 171.232 190.19C171.232 190.19 171.232 190.19 171.232 190.19C171.232 190.19 171.232 190.19 171.232 190.19C171.232 190.19 171.232 190.19 171.232 190.19C171.232 190.19 171.232 190.19 171.232 190.19C171.232 190.19 171.232 190.19 171.232 190.19C171.232 190.19 171.232 190.19 171.232 190.19C171.232 190.19 171.232 190.19 171.232 190.19C171.232 190.19 171.232 190.19 171.232 190.19C171.232 190.19 171.232 190.19 171.232 190.19C171.232 190.19 171.232 190.19 171.232 190.19C171.232 190.19 171.232 190.19 171.232 190.19C171.232 190.19 171.232 190.19 171.232 190.19C171.232 190.19 171.232 190.19 171.232 190.19C171.232 190.19 171.232 190.19 171.232 190.19C171.232 190.19 171.232 190.19 171.232 190.19C171.232 190.19 171.232 190.19 171.232 190.19C171.232 190.19 171.232 190.19 171.232 190.19C171.232 190.19 171.232 190.19 171.232 190.19C171.232 190.19 171.232 190.19 171.232 190.19C171.232 190.19 171.232 190.19 171.232 190.19C171.232 190.19 171.232 190.19 171.232 190.19C171.232 190.19 171.232 190.19 171.232 190.19C171.232 190.19 171.232 190.19 171.232 190.19C171.232 190.19 171.232 190.19 171.232 190.19C171.232 190.19 171.232 190.19 171.232 190.19C171.232 190.19 171.232 190.19 171.232 190.19C171.232 190.19 171.232 190.19 171.232 190.19C171.232 190.19 171.232 190.19 171.232 190.19C171.232 190.19 171.232 190.19 171.232 190.19C171.232 190.19 171.232 190.19 171.232 190.19C171.232 190.19 171.232 190.19 171.232 190.19C171.232 190.19 171.232 190.19 171.232 190.19C171.232 190.19 171.232 190.19 171.232 190.19C171.232 190.19 171.232 190.19 171.232 190.19C171.232 190.19 171.232 190.19 171.232 190.19C171.232 190.19 171.232 190.19 171.232 190.19C171.232 190.19 171.232 190.19 171.232 190.19C171.232 190.19 171.232 190.19 171.232 190.19C171.232 190.19 171.232 190.19 171.232 190.19C171.232 190.19 171.232 190.19 171.232 190.19C171.232 190.19 171.232 190.19 171.232 190.19C171.232 190.19 171.232 190.19 171.232 190.19C171.232 190.19 171.232 190.19 171.232 190.19C171.232 190.19 171.232 190.19 171.232 190.19C171.232 190.19 171.232 190.19 171.232 190.19C171.232 190.19 171.232 190.19 171.232 190.19C171.232 190.19 171.232 190.19 171.232 190.19C171.232 190.19 171.232 190.19 171.232 190.19C171.232 190.19 171.232 190.19 171.232 190.19C171.232 190.19 171.232 190.19 171.232 190.19C171.232 190.19 171.232 190.19 171.232 190.19C171.232 190.19 171.232 190.19 171.232 190.19C171.232 190.19 171.232 190.19 171.232 190.19C171.232 190.19 171.232 190.19 171.232 190.19C171.232 190.19 171.232 190.19 171.232 190.19C171.232 190.19 171.232 190.19 171.232 190.19C171.232 190.19 171.232 190.19 171.232 190.19C171.232 190.19 171.232 190.19 171.232 190.19C171.232 190.19 171.232 190.19 171.232 190.19C171.232 190.19 171.232 190.19 171.232 190.19C171.232 190.19 171.232 190.19 171.232 190.19C171.232 190.19 171.232 190.19 171.232 190.19C171.232 190.19 171.232 190.19 171.232 190.19C171.232 190.19 171.232 190.19 171.232 190.19C171.232 190.19 171.232 190.19 171.232 190.19C171.232 190.19 171.232 190.19 171.232 190.19C171.232 190.19 171.232 190.19 171.232 190.19C171.232 190.19 171.232 190.19 171.232 190.19C171.232 190.19 171.232 190.19 171.232 190.19C171.232 190.19 171.232 190.19 171.232 190.19C171.232 190.19 171.232 190.19 171.232 190.19C171.232 190.19 171.232 190.19 171.232 190.19C171.232 190.19 171.232 190.19 171.232 190.19C171.232 190.19 171.232 190.19 171.232 190.19C171.232 190.19 171.232 190.19 171.232 190.19C171.232 190.19 171.232 190.19 171.232 190.19C171.232 190.19 171.232 190.19 171.232 190.19C171.232 190.19 171.232 190.19 171.232 190.19C171.232 190.19 171.232 190.19 171.232 190.19C171.232 190.19 171.232 190.19 171.232 190.19C171.232 190.19 171.232 190.19 171.232 190.19C171.232 190.19 171.232 190.19 171.232 190.19C171.232 190.19 171.232 190.19 171.232 190.19C171.232 190.19 171.232 190.19 171.232 190.19C171.232 190.19 171.232 190.19 171.232 190.19C171.232 190.19 171.232 190.19 171.232 190.19C171.232 190.19 171.232 190.19 171.232 190.19C171.232 190.19 171.232 190.19 171.232 190.19C171.232 190.19 171.232 190.19 171.232 190.19C171.232 190.19 171.232 190.19 171.232 190.19C171.232 190.19 171.232 190.19 171.231 190.19C171.231 190.19 171.231 190.19 171.231 190.19C171.231 190.19 171.231 190.19 171.231 190.19C171.231 190.19 171.231 190.19 171.231 190.19C171.231 190.19 171.231 190.19 171.231 190.19C171.231 190.19 171.231 190.19 171.231 190.19C171.231 190.19 171.231 190.19 171.231 190.19C171.231 190.19 171.231 190.19 171.231 190.19C171.231 190.19 171.231 190.19 171.231 190.19C171.231 190.19 171.231 190.19 171.231 190.19C171.231 190.19 171.231 190.19 171.231 190.19C171.231 190.19 171.231 190.19 171.231 190.19C171.231 190.19 171.231 190.19 171.231 190.19C171.231 190.19 171.231 190.19 171.231 190.19C171.231 190.19 171.231 190.19 171.231 190.19C171.231 190.19 171.231 190.19 171.231 190.19C171.231 190.19 171.231 190.19 171.231 190.19C171.231 190.19 171.231 190.19 171.231 190.19C171.231 190.19 171.231 190.19 171.231 190.19C171.231 190.19 171.231 190.19 171.231 190.19C171.231 190.19 171.231 190.19 171.231 190.19C171.231 190.19 171.231 190.19 171.231 190.19C171.231 190.19 171.231 190.19 171.231 190.19C171.231 190.19 171.231 190.19 171.231 190.19C171.231 190.19 171.231 190.19 171.231 190.19C171.231 190.19 171.231 190.19 171.231 190.19C171.231 190.19 171.231 190.19 171.231 190.19C171.231 190.19 171.231 190.19 171.231 190.19C171.231 190.19 171.231 190.19 171.231 190.19C171.231 190.19 171.231 190.19 171.231 190.19C171.231 190.19 171.231 190.19 171.231 190.19C171.231 190.19 171.231 190.19 171.231 190.19C171.231 190.19 171.231 190.19 171.231 190.19C171.231 190.19 171.231 190.19 171.231 190.19C171.231 190.19 171.231 190.19 171.231 190.19C171.231 190.19 171.231 190.19 171.231 190.19C171.231 190.19 171.231 190.19 171.231 190.19C171.231 190.19 171.231 190.19 171.231 190.19C171.231 190.19 171.231 190.19 171.231 190.19C171.231 190.19 171.231 190.19 171.231 190.19C171.231 190.19 171.231 190.19 171.231 190.19C171.231 190.19 171.231 190.19 171.231 190.19C171.231 190.19 171.231 190.19 171.231 190.19C171.231 190.19 171.231 190.19 171.231 190.19C171.231 190.19 171.231 190.19 171.231 190.19C171.231 190.19 171.231 190.19 171.231 190.19C171.231 190.19 171.231 190.19 171.231 190.19C171.231 190.19 171.231 190.19 171.231 190.19C171.231 190.19 171.231 190.19 171.231 190.19C171.231 190.19 171.231 190.19 171.231 190.19C171.231 190.19 171.231 190.19 171.231 190.19C171.231 190.19 171.231 190.19 171.231 190.19C171.231 190.19 171.231 190.19 171.231 190.19C171.231 190.19 171.231 190.19 171.231 190.19C171.231 190.19 171.231 190.19 171.231 190.19C171.231 190.19 171.231 190.19 171.231 190.19C171.231 190.19 171.231 190.19 171.231 190.19C171.231 190.19 171.231 190.19 171.231 190.19C171.231 190.19 171.231 190.19 171.231 190.19C171.231 190.19 171.231 190.19 171.231 190.19C171.231 190.19 171.231 190.19 171.231 190.19C171.231 190.19 171.231 190.19 171.231 190.19C171.231 190.19 171.231 190.19 171.231 190.19C171.231 190.19 171.231 190.19 171.231 190.19C171.231 190.19 171.231 190.19 171.231 190.19C171.231 190.19 171.231 190.19 171.231 190.19C171.231 190.19 171.231 190.19 171.231 190.19C171.231 190.19 171.231 190.19 171.231 190.19C171.231 190.19 171.231 190.19 171.231 190.19C171.231 190.19 171.231 190.19 171.231 190.19C171.231 190.19 171.231 190.19 171.231 190.19C171.231 190.19 171.231 190.19 171.231 190.19C171.231 190.19 171.231 190.19 171.231 190.19C171.231 190.19 171.231 190.19 171.231 190.19C171.231 190.19 171.231 190.19 171.231 190.19C171.231 190.19 171.231 190.19 171.231 190.19C171.231 190.19 171.231 190.19 171.231 190.19C171.231 190.19 171.231 190.19 171.231 190.19C171.231 190.19 171.231 190.19 171.231 190.19C171.231 190.19 171.231 190.19 171.231 190.19C171.231 190.19 171.231 190.19 171.231 190.19C171.231 190.19 171.231 190.19 171.231 190.19C171.231 190.19 171.231 190.19 171.231 190.19C171.231 190.19 171.231 190.19 171.231 190.19C171.231 190.19 171.231 190.19 171.231 190.19C171.231 190.19 171.231 190.19 171.231 190.19C171.231 190.19 171.231 190.19 171.231 190.19C171.231 190.19 171.231 190.19 171.231 190.19C171.231 190.19 171.231 190.19 171.231 190.19C171.231 190.19 171.231 190.19 171.231 190.19C171.231 190.19 171.231 190.19 171.231 190.19C171.231 190.19 171.231 190.19 171.231 190.19C171.231 190.19 171.231 190.19 171.231 190.19C171.231 190.189 171.231 190.189 171.231 190.189C171.231 190.189 171.231 190.189 171.231 190.189C171.231 190.189 171.231 190.189 171.231 190.189C171.231 190.189 171.231 190.189 171.231 190.189C171.231 190.189 171.231 190.189 171.231 190.189C171.231 190.189 171.231 190.189 171.231 190.189C171.231 190.189 171.231 190.189 171.231 190.189C171.231 190.189 171.231 190.189 171.231 190.189C171.231 190.189 171.231 190.189 171.231 190.189C171.231 190.189 171.231 190.189 171.231 190.189C171.231 190.189 171.231 190.189 171.231 190.189C171.231 190.189 171.231 190.189 171.231 190.189C171.231 190.189 171.231 190.189 171.231 190.189C171.231 190.189 171.231 190.189 171.231 190.189C171.231 190.189 171.231 190.189 171.231 190.189C171.231 190.189 171.231 190.189 171.231 190.189C171.231 190.189 171.231 190.189 171.231 190.189C171.231 190.189 171.231 190.189 171.231 190.189C171.231 190.189 171.231 190.189 171.231 190.189C171.231 190.189 171.231 190.189 171.231 190.189C171.231 190.189 171.231 190.189 171.231 190.189C171.231 190.189 171.231 190.189 171.231 190.189C171.231 190.189 171.231 190.189 171.231 190.189C171.231 190.189 171.231 190.189 171.231 190.189C171.231 190.189 171.231 190.189 171.231 190.189C171.231 190.189 171.231 190.189 171.231 190.189C171.231 190.189 171.231 190.189 171.231 190.189C171.231 190.189 171.231 190.189 171.231 190.189C171.231 190.189 171.231 190.189 171.231 190.189C171.231 190.189 171.231 190.189 171.231 190.189C171.231 190.189 171.231 190.189 171.231 190.189C171.231 190.189 171.231 190.189 171.231 190.189C171.231 190.189 171.231 190.189 171.231 190.189C171.231 190.189 171.231 190.189 171.231 190.189C171.231 190.189 171.231 190.189 171.231 190.189C171.231 190.189 171.231 190.189 171.231 190.189C171.231 190.189 171.231 190.189 171.231 190.189C171.231 190.189 171.231 190.189 171.231 190.189C171.231 190.189 171.231 190.189 171.231 190.189C171.231 190.189 171.231 190.189 171.231 190.189C171.231 190.189 171.231 190.189 171.231 190.189C171.231 190.189 171.231 190.189 171.231 190.189C171.231 190.189 171.231 190.189 171.231 190.189C171.231 190.189 171.231 190.189 171.231 190.189C171.231 190.189 171.231 190.189 171.231 190.189C171.231 190.189 171.231 190.189 171.231 190.189C171.231 190.189 171.231 190.189 171.231 190.189C171.231 190.189 171.231 190.189 171.231 190.189C171.231 190.189 171.231 190.189 171.231 190.189C171.231 190.189 171.231 190.189 171.231 190.189C171.231 190.189 171.231 190.189 171.231 190.189C171.231 190.189 171.231 190.189 171.231 190.189C171.231 190.189 171.231 190.189 171.23 190.189C171.23 190.189 171.23 190.189 171.23 190.189C171.23 190.189 171.23 190.189 171.23 190.189C171.23 190.189 171.23 190.189 171.23 190.189C171.23 190.189 171.23 190.189 171.23 190.189C171.23 190.189 171.23 190.189 171.23 190.189C171.23 190.189 171.23 190.189 171.23 190.189C171.23 190.189 171.23 190.189 171.23 190.189C171.23 190.189 171.23 190.189 171.23 190.189C171.23 190.189 171.23 190.189 171.23 190.189C171.23 190.189 171.23 190.189 171.23 190.189C171.23 190.189 171.23 190.189 171.23 190.189C171.23 190.189 171.23 190.189 171.23 190.189C171.23 190.189 171.23 190.189 171.23 190.189C171.23 190.189 171.23 190.189 171.23 190.189C171.23 190.189 171.23 190.189 171.23 190.189C171.23 190.189 171.23 190.189 171.23 190.189C171.23 190.189 171.23 190.189 171.23 190.189C171.23 190.189 171.23 190.189 171.23 190.189C171.23 190.189 171.23 190.189 171.23 190.189C171.23 190.189 171.23 190.189 171.23 190.189C171.23 190.189 171.23 190.189 171.23 190.189C171.23 190.189 171.23 190.189 171.23 190.189C171.23 190.189 171.23 190.189 171.23 190.189C171.23 190.189 171.23 190.189 171.23 190.189C171.23 190.189 171.23 190.189 171.23 190.189C171.23 190.189 171.23 190.189 171.23 190.189C171.23 190.189 171.23 190.189 171.23 190.189C171.23 190.189 171.23 190.189 171.23 190.189C171.23 190.189 171.23 190.189 171.23 190.189C171.23 190.189 171.23 190.189 171.23 190.189C171.23 190.189 171.23 190.189 171.23 190.189C171.23 190.189 171.23 190.189 171.23 190.189C171.23 190.189 171.23 190.189 171.23 190.189C171.23 190.189 171.23 190.189 171.23 190.189C171.23 190.189 171.23 190.189 171.23 190.189C171.23 190.189 171.23 190.189 171.23 190.189C171.23 190.189 171.23 190.189 171.23 190.189C171.23 190.189 171.23 190.189 171.23 190.189C171.23 190.189 171.23 190.189 171.23 190.189C171.23 190.189 171.23 190.189 171.23 190.189C171.23 190.189 171.23 190.189 171.23 190.189C171.23 190.189 171.23 190.189 171.23 190.189C171.23 190.189 171.23 190.189 171.23 190.189C171.23 190.189 171.23 190.189 171.23 190.189C171.23 190.189 171.23 190.189 171.23 190.189C171.23 190.189 171.23 190.189 171.23 190.189C171.23 190.189 171.23 190.189 171.23 190.189C171.23 190.189 171.23 190.189 171.23 190.189C171.23 190.189 171.23 190.189 171.23 190.189C171.23 190.189 171.23 190.189 171.23 190.189C171.23 190.189 171.23 190.189 171.23 190.189C171.23 190.189 171.23 190.189 171.23 190.189C171.23 190.189 171.23 190.189 171.23 190.189C171.23 190.189 171.23 190.189 171.23 190.189C171.23 190.189 171.23 190.189 171.23 190.189C171.23 190.189 171.23 190.189 171.23 190.189C171.23 190.189 171.23 190.189 171.23 190.189C171.23 190.189 171.23 190.189 171.23 190.189C171.23 190.189 171.23 190.189 171.23 190.189C171.23 190.189 171.23 190.189 171.23 190.189C171.23 190.189 171.23 190.189 171.23 190.189C171.23 190.189 171.23 190.189 171.23 190.189C171.23 190.189 171.23 190.189 171.23 190.189C171.23 190.189 171.23 190.189 171.23 190.189C171.23 190.189 171.23 190.189 171.23 190.189C171.23 190.189 171.23 190.189 171.23 190.189C171.23 190.189 171.23 190.189 171.23 190.189C171.23 190.189 171.23 190.189 171.23 190.189C171.23 190.189 171.23 190.189 171.23 190.189C171.23 190.189 171.23 190.189 171.23 190.189C171.23 190.189 171.23 190.189 171.23 190.189C171.23 190.189 171.23 190.189 171.23 190.189C171.23 190.189 171.23 190.189 171.23 190.189C171.23 190.189 171.23 190.189 171.23 190.189C171.23 190.189 171.23 190.189 171.23 190.189C171.23 190.189 171.23 190.189 171.23 190.189C171.23 190.189 171.23 190.189 171.23 190.189C171.23 190.189 171.23 190.189 171.23 190.189C171.23 190.189 171.23 190.189 171.23 190.189C171.23 190.189 171.23 190.189 171.23 190.189C171.23 190.189 171.23 190.189 171.23 190.189C171.23 190.189 171.23 190.189 171.23 190.189C171.23 190.189 171.23 190.189 171.23 190.189C171.23 190.189 171.23 190.189 171.23 190.189C171.23 190.189 171.23 190.189 171.23 190.189C171.23 190.189 171.23 190.189 171.23 190.189C171.23 190.189 171.23 190.189 171.23 190.189C171.23 190.189 171.23 190.189 171.23 190.189C171.23 190.189 171.23 190.189 171.23 190.189C171.23 190.189 171.23 190.189 171.23 190.189C171.23 190.189 171.23 190.189 171.23 190.189C171.23 190.189 171.23 190.189 171.23 190.189C171.23 190.189 171.23 190.189 171.23 190.189C171.23 190.189 171.23 190.189 171.23 190.189C171.23 190.189 171.23 190.189 171.23 190.189C171.23 190.189 171.23 190.189 171.23 190.189C171.23 190.189 171.23 190.189 171.23 190.189C171.23 190.189 171.23 190.189 171.23 190.189C171.23 190.189 171.23 190.189 171.23 190.189C171.23 190.189 171.23 190.189 171.23 190.189C171.23 190.189 171.23 190.189 171.23 190.189C171.23 190.189 171.23 190.189 171.23 190.189L170.649 191.002L170.067 191.816C170.067 191.816 170.067 191.816 170.067 191.816C170.067 191.816 170.067 191.816 170.067 191.816C170.067 191.816 170.067 191.816 170.067 191.816C170.067 191.816 170.067 191.816 170.067 191.816C170.067 191.816 170.067 191.816 170.067 191.816C170.067 191.816 170.067 191.816 170.067 191.816C170.067 191.816 170.067 191.816 170.067 191.816C170.067 191.816 170.067 191.816 170.067 191.816C170.067 191.816 170.067 191.816 170.067 191.816C170.067 191.816 170.067 191.816 170.067 191.816C170.067 191.816 170.067 191.816 170.067 191.816C170.067 191.816 170.067 191.816 170.067 191.816C170.067 191.816 170.067 191.816 170.067 191.816C170.067 191.816 170.067 191.816 170.067 191.816C170.067 191.816 170.067 191.816 170.067 191.816C170.067 191.816 170.067 191.816 170.067 191.816C170.067 191.816 170.067 191.816 170.067 191.816C170.067 191.816 170.067 191.816 170.067 191.816C170.067 191.816 170.067 191.816 170.067 191.816C170.067 191.816 170.067 191.816 170.067 191.816C170.067 191.816 170.067 191.816 170.067 191.816C170.067 191.816 170.067 191.816 170.067 191.816C170.067 191.816 170.067 191.816 170.067 191.816C170.067 191.816 170.067 191.816 170.067 191.816C170.067 191.816 170.067 191.816 170.067 191.816C170.067 191.816 170.067 191.816 170.068 191.816C170.068 191.816 170.068 191.816 170.068 191.816C170.068 191.816 170.068 191.816 170.068 191.816C170.068 191.816 170.068 191.816 170.068 191.816C170.068 191.816 170.068 191.816 170.068 191.816C170.068 191.816 170.068 191.816 170.068 191.816C170.068 191.816 170.068 191.816 170.068 191.816C170.068 191.816 170.068 191.816 170.068 191.816C170.068 191.816 170.068 191.816 170.068 191.816C170.068 191.816 170.068 191.816 170.068 191.816C170.068 191.816 170.068 191.816 170.068 191.816C170.068 191.816 170.068 191.816 170.068 191.816C170.068 191.816 170.068 191.816 170.068 191.816C170.068 191.816 170.068 191.816 170.068 191.816C170.068 191.816 170.068 191.816 170.068 191.816C170.068 191.816 170.068 191.816 170.068 191.816C170.068 191.816 170.068 191.816 170.068 191.816C170.068 191.816 170.068 191.816 170.068 191.816C170.068 191.816 170.068 191.816 170.068 191.816C170.068 191.816 170.068 191.816 170.068 191.816C170.068 191.816 170.068 191.816 170.068 191.816C170.068 191.816 170.068 191.816 170.068 191.816C170.068 191.816 170.068 191.816 170.068 191.816C170.068 191.816 170.068 191.816 170.068 191.816C170.068 191.816 170.068 191.816 170.068 191.816C170.068 191.816 170.068 191.816 170.068 191.816C170.068 191.816 170.068 191.816 170.068 191.816C170.068 191.816 170.068 191.816 170.068 191.816C170.068 191.816 170.068 191.816 170.068 191.816C170.068 191.816 170.068 191.816 170.068 191.816C170.068 191.816 170.068 191.816 170.068 191.816C170.068 191.816 170.068 191.816 170.068 191.816C170.068 191.816 170.068 191.816 170.068 191.816C170.068 191.816 170.068 191.816 170.068 191.816C170.068 191.816 170.068 191.816 170.068 191.817C170.068 191.817 170.068 191.817 170.068 191.817C170.068 191.817 170.068 191.817 170.068 191.817C170.068 191.817 170.068 191.817 170.068 191.817C170.068 191.817 170.068 191.817 170.068 191.817C170.068 191.817 170.068 191.817 170.068 191.817C170.068 191.817 170.068 191.817 170.068 191.817C170.068 191.817 170.068 191.817 170.068 191.817C170.068 191.817 170.068 191.817 170.068 191.817C170.068 191.817 170.068 191.817 170.068 191.817C170.068 191.817 170.068 191.817 170.068 191.817C170.068 191.817 170.068 191.817 170.068 191.817C170.068 191.817 170.068 191.817 170.068 191.817C170.068 191.817 170.068 191.817 170.068 191.817C170.068 191.817 170.068 191.817 170.068 191.817C170.068 191.817 170.068 191.817 170.068 191.817C170.068 191.817 170.068 191.817 170.068 191.817C170.068 191.817 170.068 191.817 170.068 191.817C170.068 191.817 170.068 191.817 170.068 191.817C170.068 191.817 170.068 191.817 170.068 191.817C170.068 191.817 170.068 191.817 170.068 191.817C170.068 191.817 170.068 191.817 170.068 191.817C170.068 191.817 170.068 191.817 170.068 191.817C170.068 191.817 170.068 191.817 170.068 191.817C170.068 191.817 170.068 191.817 170.068 191.817C170.068 191.817 170.068 191.817 170.068 191.817C170.068 191.817 170.068 191.817 170.068 191.817C170.068 191.817 170.068 191.817 170.068 191.817C170.068 191.817 170.068 191.817 170.068 191.817C170.068 191.817 170.068 191.817 170.068 191.817C170.068 191.817 170.068 191.817 170.068 191.817C170.068 191.817 170.068 191.817 170.068 191.817C170.068 191.817 170.068 191.817 170.068 191.817C170.068 191.817 170.068 191.817 170.068 191.817C170.068 191.817 170.068 191.817 170.068 191.817C170.068 191.817 170.068 191.817 170.068 191.817C170.068 191.817 170.068 191.817 170.068 191.817C170.068 191.817 170.068 191.817 170.068 191.817C170.068 191.817 170.068 191.817 170.068 191.817C170.068 191.817 170.068 191.817 170.068 191.817C170.068 191.817 170.068 191.817 170.068 191.817C170.068 191.817 170.068 191.817 170.068 191.817C170.068 191.817 170.068 191.817 170.068 191.817C170.068 191.817 170.068 191.817 170.068 191.817C170.068 191.817 170.068 191.817 170.068 191.817C170.068 191.817 170.068 191.817 170.068 191.817C170.068 191.817 170.068 191.817 170.068 191.817C170.068 191.817 170.068 191.817 170.068 191.817C170.068 191.817 170.068 191.817 170.068 191.817C170.068 191.817 170.068 191.817 170.068 191.817C170.068 191.817 170.068 191.817 170.068 191.817C170.068 191.817 170.068 191.817 170.068 191.817C170.068 191.817 170.068 191.817 170.068 191.817C170.068 191.817 170.068 191.817 170.068 191.817C170.068 191.817 170.068 191.817 170.068 191.817C170.068 191.817 170.068 191.817 170.068 191.817C170.068 191.817 170.068 191.817 170.068 191.817C170.068 191.817 170.068 191.817 170.068 191.817C170.068 191.817 170.068 191.817 170.068 191.817C170.068 191.817 170.068 191.817 170.068 191.817C170.068 191.817 170.068 191.817 170.068 191.817C170.068 191.817 170.068 191.817 170.068 191.817C170.068 191.817 170.068 191.817 170.068 191.817C170.068 191.817 170.068 191.817 170.068 191.817C170.068 191.817 170.068 191.817 170.068 191.817C170.068 191.817 170.068 191.817 170.068 191.817C170.068 191.817 170.068 191.817 170.068 191.817C170.068 191.817 170.068 191.817 170.068 191.817C170.068 191.817 170.068 191.817 170.068 191.817C170.068 191.817 170.068 191.817 170.068 191.817C170.068 191.817 170.068 191.817 170.068 191.817C170.068 191.817 170.068 191.817 170.068 191.817C170.068 191.817 170.068 191.817 170.068 191.817C170.068 191.817 170.068 191.817 170.068 191.817C170.068 191.817 170.068 191.817 170.068 191.817C170.068 191.817 170.068 191.817 170.068 191.817C170.068 191.817 170.068 191.817 170.068 191.817C170.068 191.817 170.068 191.817 170.068 191.817C170.068 191.817 170.068 191.817 170.068 191.817C170.068 191.817 170.068 191.817 170.068 191.817C170.068 191.817 170.068 191.817 170.068 191.817C170.068 191.817 170.068 191.817 170.068 191.817C170.068 191.817 170.068 191.817 170.068 191.817C170.068 191.817 170.068 191.817 170.068 191.817C170.068 191.817 170.068 191.817 170.068 191.817C170.068 191.817 170.068 191.817 170.068 191.817C170.068 191.817 170.068 191.817 170.068 191.817C170.068 191.817 170.068 191.817 170.068 191.817C170.068 191.817 170.068 191.817 170.068 191.817C170.068 191.817 170.068 191.817 170.068 191.817C170.068 191.817 170.068 191.817 170.068 191.817C170.068 191.817 170.068 191.817 170.068 191.817C170.068 191.817 170.068 191.817 170.068 191.817C170.068 191.817 170.068 191.817 170.068 191.817C170.068 191.817 170.068 191.817 170.068 191.817C170.068 191.817 170.068 191.817 170.068 191.817C170.068 191.817 170.068 191.817 170.068 191.817C170.068 191.817 170.068 191.817 170.068 191.817C170.068 191.817 170.068 191.817 170.068 191.817C170.068 191.817 170.068 191.817 170.068 191.817C170.068 191.817 170.068 191.817 170.068 191.817C170.068 191.817 170.068 191.817 170.068 191.817C170.068 191.817 170.068 191.817 170.068 191.817C170.068 191.817 170.068 191.817 170.068 191.817C170.068 191.817 170.068 191.817 170.068 191.817C170.068 191.817 170.068 191.817 170.068 191.817C170.068 191.817 170.068 191.817 170.068 191.817C170.068 191.817 170.068 191.817 170.068 191.817C170.068 191.817 170.068 191.817 170.068 191.817C170.068 191.817 170.068 191.817 170.068 191.817C170.068 191.817 170.068 191.817 170.068 191.817C170.068 191.817 170.068 191.817 170.068 191.817C170.069 191.817 170.069 191.817 170.069 191.817C170.069 191.817 170.069 191.817 170.069 191.817C170.069 191.817 170.069 191.817 170.069 191.817C170.069 191.817 170.069 191.817 170.069 191.817C170.069 191.817 170.069 191.817 170.069 191.817C170.069 191.817 170.069 191.817 170.069 191.817C170.069 191.817 170.069 191.817 170.069 191.817C170.069 191.817 170.069 191.817 170.069 191.817C170.069 191.817 170.069 191.817 170.069 191.817C170.069 191.817 170.069 191.817 170.069 191.817C170.069 191.817 170.069 191.817 170.069 191.817C170.069 191.817 170.069 191.817 170.069 191.817C170.069 191.817 170.069 191.817 170.069 191.817C170.069 191.817 170.069 191.817 170.069 191.817C170.069 191.817 170.069 191.817 170.069 191.817C170.069 191.817 170.069 191.817 170.069 191.817C170.069 191.817 170.069 191.817 170.069 191.817C170.069 191.817 170.069 191.817 170.069 191.817C170.069 191.817 170.069 191.817 170.069 191.817C170.069 191.817 170.069 191.817 170.069 191.817C170.069 191.817 170.069 191.817 170.069 191.817C170.069 191.817 170.069 191.817 170.069 191.817C170.069 191.817 170.069 191.817 170.069 191.817C170.069 191.817 170.069 191.817 170.069 191.817C170.069 191.817 170.069 191.817 170.069 191.817C170.069 191.817 170.069 191.817 170.069 191.817C170.069 191.817 170.069 191.817 170.069 191.817C170.069 191.817 170.069 191.817 170.069 191.817C170.069 191.817 170.069 191.817 170.069 191.817C170.069 191.817 170.069 191.817 170.069 191.817C170.069 191.817 170.069 191.817 170.069 191.817C170.069 191.817 170.069 191.817 170.069 191.817C170.069 191.817 170.069 191.817 170.069 191.817C170.069 191.817 170.069 191.817 170.069 191.817C170.069 191.817 170.069 191.817 170.069 191.817C170.069 191.817 170.069 191.817 170.069 191.817C170.069 191.817 170.069 191.817 170.069 191.817C170.069 191.817 170.069 191.817 170.069 191.817C170.069 191.817 170.069 191.817 170.069 191.817C170.069 191.817 170.069 191.817 170.069 191.817C170.069 191.817 170.069 191.817 170.069 191.817C170.069 191.817 170.069 191.817 170.069 191.817C170.069 191.817 170.069 191.817 170.069 191.817C170.069 191.817 170.069 191.817 170.069 191.817C170.069 191.817 170.069 191.817 170.069 191.817C170.069 191.817 170.069 191.817 170.069 191.817C170.069 191.817 170.069 191.817 170.069 191.817C170.069 191.817 170.069 191.817 170.069 191.817C170.069 191.817 170.069 191.817 170.069 191.817C170.069 191.817 170.069 191.817 170.069 191.817C170.069 191.817 170.069 191.817 170.069 191.817C170.069 191.817 170.069 191.817 170.069 191.817C170.069 191.817 170.069 191.817 170.069 191.817C170.069 191.817 170.069 191.817 170.069 191.817C170.069 191.817 170.069 191.817 170.069 191.817C170.069 191.817 170.069 191.817 170.069 191.817C170.069 191.817 170.069 191.817 170.069 191.817C170.069 191.817 170.069 191.817 170.069 191.817C170.069 191.817 170.069 191.817 170.069 191.817C170.069 191.817 170.069 191.817 170.069 191.817C170.069 191.817 170.069 191.817 170.069 191.817C170.069 191.817 170.069 191.817 170.069 191.817C170.069 191.817 170.069 191.817 170.069 191.817C170.069 191.817 170.069 191.817 170.069 191.817C170.069 191.817 170.069 191.817 170.069 191.817C170.069 191.817 170.069 191.817 170.069 191.817C170.069 191.817 170.069 191.817 170.069 191.817C170.069 191.817 170.069 191.817 170.069 191.817C170.069 191.817 170.069 191.817 170.069 191.817C170.069 191.817 170.069 191.817 170.069 191.817C170.069 191.817 170.069 191.817 170.069 191.817C170.069 191.817 170.069 191.817 170.069 191.817C170.069 191.817 170.069 191.817 170.069 191.817C170.069 191.817 170.069 191.817 170.069 191.817C170.069 191.817 170.069 191.817 170.069 191.817C170.069 191.817 170.069 191.817 170.069 191.817C170.069 191.817 170.069 191.817 170.069 191.817C170.069 191.817 170.069 191.817 170.069 191.817C170.069 191.817 170.069 191.817 170.069 191.817C170.069 191.817 170.069 191.817 170.069 191.817C170.069 191.817 170.069 191.817 170.069 191.817C170.069 191.817 170.069 191.817 170.069 191.817C170.069 191.817 170.069 191.817 170.069 191.817C170.069 191.817 170.069 191.817 170.069 191.817C170.069 191.817 170.069 191.817 170.069 191.817C170.069 191.817 170.069 191.817 170.069 191.817C170.069 191.817 170.069 191.817 170.069 191.817C170.069 191.817 170.069 191.817 170.069 191.817C170.069 191.817 170.069 191.817 170.069 191.817C170.069 191.817 170.069 191.817 170.069 191.817C170.069 191.817 170.069 191.817 170.069 191.817C170.069 191.817 170.069 191.817 170.069 191.817C170.069 191.818 170.069 191.818 170.069 191.818C170.069 191.818 170.069 191.818 170.069 191.818C170.069 191.818 170.069 191.818 170.069 191.818C170.069 191.818 170.069 191.818 170.069 191.818C170.069 191.818 170.069 191.818 170.069 191.818C170.069 191.818 170.069 191.818 170.069 191.818C170.069 191.818 170.069 191.818 170.069 191.818C170.069 191.818 170.069 191.818 170.069 191.818C170.069 191.818 170.069 191.818 170.069 191.818C170.069 191.818 170.069 191.818 170.069 191.818C170.069 191.818 170.069 191.818 170.069 191.818C170.069 191.818 170.069 191.818 170.069 191.818C170.069 191.818 170.069 191.818 170.069 191.818C170.069 191.818 170.069 191.818 170.069 191.818C170.069 191.818 170.069 191.818 170.069 191.818C170.069 191.818 170.069 191.818 170.069 191.818C170.069 191.818 170.069 191.818 170.069 191.818C170.069 191.818 170.069 191.818 170.069 191.818C170.069 191.818 170.069 191.818 170.069 191.818C170.069 191.818 170.069 191.818 170.069 191.818C170.069 191.818 170.069 191.818 170.069 191.818C170.069 191.818 170.069 191.818 170.069 191.818C170.069 191.818 170.069 191.818 170.069 191.818C170.069 191.818 170.069 191.818 170.069 191.818C170.069 191.818 170.069 191.818 170.069 191.818C170.069 191.818 170.069 191.818 170.069 191.818C170.069 191.818 170.069 191.818 170.069 191.818C170.069 191.818 170.069 191.818 170.069 191.818C170.069 191.818 170.069 191.818 170.069 191.818C170.069 191.818 170.069 191.818 170.069 191.818C170.069 191.818 170.069 191.818 170.069 191.818C170.069 191.818 170.069 191.818 170.069 191.818C170.069 191.818 170.069 191.818 170.069 191.818C170.069 191.818 170.069 191.818 170.069 191.818C170.069 191.818 170.069 191.818 170.069 191.818C170.069 191.818 170.069 191.818 170.069 191.818C170.069 191.818 170.069 191.818 170.069 191.818C170.069 191.818 170.069 191.818 170.069 191.818C170.069 191.818 170.069 191.818 170.069 191.818C170.069 191.818 170.069 191.818 170.069 191.818C170.069 191.818 170.069 191.818 170.069 191.818C170.069 191.818 170.069 191.818 170.069 191.818C170.069 191.818 170.069 191.818 170.069 191.818C170.069 191.818 170.069 191.818 170.069 191.818C170.069 191.818 170.069 191.818 170.069 191.818C170.069 191.818 170.069 191.818 170.069 191.818C170.069 191.818 170.069 191.818 170.069 191.818C170.069 191.818 170.069 191.818 170.069 191.818C170.069 191.818 170.069 191.818 170.069 191.818C170.069 191.818 170.069 191.818 170.069 191.818C170.069 191.818 170.069 191.818 170.069 191.818C170.069 191.818 170.069 191.818 170.069 191.818C170.069 191.818 170.069 191.818 170.069 191.818C170.069 191.818 170.07 191.818 170.07 191.818C170.07 191.818 170.07 191.818 170.07 191.818C170.07 191.818 170.07 191.818 170.07 191.818C170.07 191.818 170.07 191.818 170.07 191.818C170.07 191.818 170.07 191.818 170.07 191.818C170.07 191.818 170.07 191.818 170.07 191.818C170.07 191.818 170.07 191.818 170.07 191.818C170.07 191.818 170.07 191.818 170.07 191.818C170.07 191.818 170.07 191.818 170.07 191.818C170.07 191.818 170.07 191.818 170.07 191.818C170.07 191.818 170.07 191.818 170.07 191.818C170.07 191.818 170.07 191.818 170.07 191.818C170.07 191.818 170.07 191.818 170.07 191.818C170.07 191.818 170.07 191.818 170.07 191.818C170.07 191.818 170.07 191.818 170.07 191.818C170.07 191.818 170.07 191.818 170.07 191.818C170.07 191.818 170.07 191.818 170.07 191.818C170.07 191.818 170.07 191.818 170.07 191.818C170.07 191.818 170.07 191.818 170.07 191.818C170.07 191.818 170.07 191.818 170.07 191.818C170.07 191.818 170.07 191.818 170.07 191.818C170.07 191.818 170.07 191.818 170.07 191.818C170.07 191.818 170.07 191.818 170.07 191.818C170.07 191.818 170.07 191.818 170.07 191.818C170.07 191.818 170.07 191.818 170.07 191.818C170.07 191.818 170.07 191.818 170.07 191.818C170.07 191.818 170.07 191.818 170.07 191.818C170.07 191.818 170.07 191.818 170.07 191.818C170.07 191.818 170.07 191.818 170.07 191.818C170.07 191.818 170.07 191.818 170.07 191.818C170.07 191.818 170.07 191.818 170.07 191.818C170.07 191.818 170.07 191.818 170.07 191.818C170.07 191.818 170.07 191.818 170.07 191.818C170.07 191.818 170.07 191.818 170.07 191.818C170.07 191.818 170.07 191.818 170.07 191.818C170.07 191.818 170.07 191.818 170.07 191.818C170.07 191.818 170.07 191.818 170.07 191.818C170.07 191.818 170.07 191.818 170.07 191.818C170.07 191.818 170.07 191.818 170.07 191.818C170.07 191.818 170.07 191.818 170.07 191.818C170.07 191.818 170.07 191.818 170.07 191.818C170.07 191.818 170.07 191.818 170.07 191.818C170.07 191.818 170.07 191.818 170.07 191.818C170.07 191.818 170.07 191.818 170.07 191.818C170.07 191.818 170.07 191.818 170.07 191.818C170.07 191.818 170.07 191.818 170.07 191.818C170.07 191.818 170.07 191.818 170.07 191.818C170.07 191.818 170.07 191.818 170.07 191.818C170.07 191.818 170.07 191.818 170.07 191.818C170.07 191.818 170.07 191.818 170.07 191.818C170.07 191.818 170.07 191.818 170.07 191.818C170.07 191.818 170.07 191.818 170.07 191.818C170.07 191.818 170.07 191.818 170.07 191.818C170.07 191.818 170.07 191.818 170.07 191.818C170.07 191.818 170.07 191.818 170.07 191.818C170.07 191.818 170.07 191.818 170.07 191.818C170.07 191.818 170.07 191.818 170.07 191.818C170.07 191.818 170.07 191.818 170.07 191.818C170.07 191.818 170.07 191.818 170.07 191.818C170.07 191.818 170.07 191.818 170.07 191.818C170.07 191.818 170.07 191.818 170.07 191.818C170.07 191.818 170.07 191.818 170.07 191.818C170.07 191.818 170.07 191.818 170.07 191.818C170.07 191.818 170.07 191.818 170.07 191.818C170.07 191.818 170.07 191.818 170.07 191.818C170.07 191.818 170.07 191.818 170.07 191.818C170.07 191.818 170.07 191.818 170.07 191.818C170.07 191.818 170.07 191.818 170.07 191.818C170.07 191.818 170.07 191.818 170.07 191.818C170.07 191.818 170.07 191.818 170.07 191.818C170.07 191.818 170.07 191.818 170.07 191.818C170.07 191.818 170.07 191.818 170.07 191.818C170.07 191.818 170.07 191.818 170.07 191.818C170.07 191.818 170.07 191.818 170.07 191.818C170.07 191.818 170.07 191.818 170.07 191.818C170.07 191.818 170.07 191.818 170.07 191.818C170.07 191.818 170.07 191.818 170.07 191.818C170.07 191.818 170.07 191.818 170.07 191.818C170.07 191.818 170.07 191.818 170.07 191.818C170.07 191.818 170.07 191.818 170.07 191.818C170.07 191.818 170.07 191.818 170.07 191.818C170.07 191.818 170.07 191.818 170.07 191.818C170.07 191.818 170.07 191.818 170.07 191.818C170.07 191.818 170.07 191.818 170.07 191.818C170.07 191.818 170.07 191.818 170.07 191.818C170.07 191.818 170.07 191.818 170.07 191.818C170.07 191.818 170.07 191.818 170.07 191.818C170.07 191.818 170.07 191.818 170.07 191.818C170.07 191.818 170.07 191.818 170.07 191.818C170.07 191.818 170.07 191.818 170.07 191.818C170.07 191.818 170.07 191.818 170.07 191.818C170.07 191.818 170.07 191.818 170.07 191.818C170.07 191.818 170.07 191.818 170.07 191.818C170.07 191.818 170.07 191.818 170.07 191.818C170.07 191.818 170.07 191.818 170.07 191.818C170.07 191.818 170.07 191.818 170.07 191.818C170.07 191.818 170.07 191.818 170.07 191.818C170.07 191.818 170.07 191.818 170.07 191.818C170.07 191.818 170.07 191.818 170.07 191.818C170.07 191.818 170.07 191.818 170.07 191.818C170.07 191.818 170.07 191.818 170.07 191.818C170.07 191.818 170.07 191.818 170.07 191.818C170.07 191.818 170.07 191.818 170.07 191.818C170.07 191.818 170.07 191.818 170.07 191.818C170.07 191.818 170.07 191.818 170.07 191.818C170.07 191.818 170.07 191.818 170.07 191.818C170.07 191.818 170.07 191.818 170.07 191.818C170.07 191.818 170.07 191.818 170.07 191.818C170.07 191.818 170.07 191.818 170.07 191.818C170.07 191.818 170.07 191.818 170.07 191.818C170.07 191.818 170.07 191.818 170.07 191.818C170.07 191.818 170.07 191.818 170.07 191.818C170.07 191.818 170.07 191.818 170.07 191.818C170.07 191.818 170.07 191.818 170.07 191.818C170.07 191.818 170.07 191.818 170.07 191.818C170.07 191.818 170.07 191.818 170.07 191.818C170.07 191.818 170.07 191.818 170.07 191.818C170.07 191.818 170.07 191.818 170.07 191.818C170.07 191.818 170.07 191.818 170.07 191.818C170.07 191.818 170.07 191.818 170.07 191.818C170.07 191.818 170.07 191.818 170.07 191.818C170.07 191.818 170.07 191.818 170.07 191.818C170.07 191.818 170.07 191.818 170.07 191.818C170.07 191.818 170.07 191.818 170.07 191.818C170.07 191.818 170.07 191.818 170.07 191.818C170.07 191.818 170.07 191.818 170.07 191.818C170.07 191.818 170.07 191.818 170.07 191.818C170.07 191.818 170.07 191.818 170.07 191.818C170.07 191.818 170.07 191.818 170.07 191.818C170.07 191.818 170.07 191.818 170.07 191.818C170.07 191.818 170.07 191.818 170.07 191.818C170.07 191.818 170.07 191.818 170.07 191.818C170.07 191.818 170.07 191.818 170.07 191.818C170.07 191.818 170.07 191.818 170.07 191.818C170.07 191.818 170.07 191.818 170.07 191.818C170.07 191.818 170.07 191.818 170.07 191.818C170.07 191.818 170.07 191.818 170.07 191.818C170.07 191.818 170.07 191.818 170.07 191.818C170.07 191.818 170.07 191.818 170.07 191.818C170.07 191.818 170.07 191.818 170.07 191.818C170.07 191.818 170.07 191.818 170.07 191.818C170.07 191.818 170.07 191.818 170.07 191.818C170.07 191.818 170.07 191.818 170.07 191.818C170.07 191.818 170.07 191.818 170.07 191.818C170.07 191.818 170.07 191.818 170.07 191.818C170.07 191.818 170.07 191.818 170.071 191.818C170.071 191.818 170.071 191.818 170.071 191.818C170.071 191.818 170.071 191.818 170.071 191.818C170.071 191.818 170.071 191.818 170.071 191.818C170.071 191.818 170.071 191.818 170.071 191.818C170.071 191.818 170.071 191.819 170.071 191.819C170.071 191.819 170.071 191.819 170.071 191.819C170.071 191.819 170.071 191.819 170.071 191.819C170.071 191.819 170.071 191.819 170.071 191.819C170.071 191.819 170.071 191.819 170.071 191.819C170.071 191.819 170.071 191.819 170.071 191.819C170.071 191.819 170.071 191.819 170.071 191.819C170.071 191.819 170.071 191.819 170.071 191.819C170.071 191.819 170.071 191.819 170.071 191.819C170.071 191.819 170.071 191.819 170.071 191.819C170.071 191.819 170.071 191.819 170.071 191.819C170.071 191.819 170.071 191.819 170.071 191.819C170.071 191.819 170.071 191.819 170.071 191.819C170.071 191.819 170.071 191.819 170.071 191.819C170.071 191.819 170.071 191.819 170.071 191.819C170.071 191.819 170.071 191.819 170.071 191.819C170.071 191.819 170.071 191.819 170.071 191.819C170.071 191.819 170.071 191.819 170.071 191.819C170.071 191.819 170.071 191.819 170.071 191.819C170.071 191.819 170.071 191.819 170.071 191.819C170.071 191.819 170.071 191.819 170.071 191.819C170.071 191.819 170.071 191.819 170.071 191.819C170.071 191.819 170.071 191.819 170.071 191.819C170.071 191.819 170.071 191.819 170.071 191.819C170.071 191.819 170.071 191.819 170.071 191.819C170.071 191.819 170.071 191.819 170.071 191.819C170.071 191.819 170.071 191.819 170.071 191.819C170.071 191.819 170.071 191.819 170.071 191.819C170.071 191.819 170.071 191.819 170.071 191.819C170.071 191.819 170.071 191.819 170.071 191.819C170.071 191.819 170.071 191.819 170.071 191.819C170.071 191.819 170.071 191.819 170.071 191.819C170.071 191.819 170.071 191.819 170.071 191.819C170.071 191.819 170.071 191.819 170.071 191.819C170.071 191.819 170.071 191.819 170.071 191.819C170.071 191.819 170.071 191.819 170.071 191.819C170.071 191.819 170.071 191.819 170.071 191.819C170.071 191.819 170.071 191.819 170.071 191.819C170.071 191.819 170.071 191.819 170.071 191.819C170.071 191.819 170.071 191.819 170.071 191.819C170.071 191.819 170.071 191.819 170.071 191.819C170.071 191.819 170.071 191.819 170.071 191.819C170.071 191.819 170.071 191.819 170.071 191.819C170.071 191.819 170.071 191.819 170.071 191.819C170.071 191.819 170.071 191.819 170.071 191.819C170.071 191.819 170.071 191.819 170.071 191.819L170.652 191.005ZM170.649 191.002L171.231 190.189C149.815 174.854 126.189 163.837 103.088 159.354L102.897 160.335L102.707 161.317C125.472 165.735 148.835 176.612 170.066 191.816L170.649 191.002ZM102.897 160.335L103.088 159.354C103.02 159.341 102.952 159.328 102.885 159.315L102.696 160.297L102.507 161.278C102.573 161.291 102.64 161.304 102.707 161.317L102.897 160.335ZM75.3489 158.276L75.2946 157.278C44.5897 158.949 17.1041 174.826 0.0973499 210.495L1 210.926L1.90265 211.356C18.5972 176.341 45.4359 160.906 75.4033 159.275L75.3489 158.276ZM190.718 113.723V114.723C210.922 114.723 229.791 120.426 245.802 130.309L246.327 129.458L246.853 128.607C230.535 118.535 211.304 112.723 190.718 112.723V113.723ZM246.327 129.458L245.802 130.309C267.44 143.664 283.859 164.652 291.3 189.51L292.258 189.223L293.216 188.937C285.632 163.6 268.9 142.215 246.853 128.607L246.327 129.458ZM292.258 189.223L291.3 189.51C294.153 199.044 295.686 209.149 295.686 219.614H296.686H297.686C297.686 208.953 296.124 198.655 293.216 188.937L292.258 189.223ZM296.686 219.614H295.686C295.686 225.375 295.222 231.026 294.328 236.533L295.315 236.693L296.302 236.853C297.213 231.241 297.686 225.482 297.686 219.614H296.686ZM162.517 117.514L162.782 118.478C171.676 116.031 181.043 114.723 190.718 114.723V113.723V112.723C180.862 112.723 171.316 114.055 162.251 116.55L162.517 117.514ZM84.7494 219.614H85.7494C85.7494 197.858 92.3771 177.651 103.725 160.896L102.897 160.335L102.069 159.775C90.5041 176.85 83.7494 197.445 83.7494 219.614H84.7494ZM102.897 160.335L103.725 160.896C112.501 147.94 124.099 137.048 137.637 129.103L137.131 128.24L136.625 127.378C122.829 135.474 111.011 146.572 102.069 159.775L102.897 160.335ZM86.1206 236.693L87.1076 236.533C86.214 231.026 85.7494 225.375 85.7494 219.614H84.7494H83.7494C83.7494 225.482 84.2227 231.241 85.1335 236.853L86.1206 236.693ZM190.718 325.505V324.505C148.135 324.505 111.473 299.168 95.0097 262.754L94.0985 263.166L93.1873 263.578C109.963 300.682 147.322 326.505 190.718 326.505V325.505ZM221.483 320.974L221.193 320.016C211.55 322.935 201.318 324.505 190.718 324.505V325.505V326.505C201.517 326.505 211.943 324.906 221.773 321.931L221.483 320.974ZM287.286 263.279L286.375 262.866C278.409 280.43 265.74 295.412 249.974 306.206L250.539 307.031L251.104 307.856C267.169 296.858 280.078 281.592 288.197 263.692L287.286 263.279ZM189.863 89.812V90.812C211.69 90.812 232.239 96.2686 250.22 105.89L250.692 105.009L251.164 104.127C232.899 94.3536 212.027 88.812 189.863 88.812V89.812ZM250.692 105.009L250.22 105.89C290.506 127.447 317.906 169.907 317.906 218.76H318.906H319.906C319.906 169.14 292.074 126.017 251.164 104.127L250.692 105.009ZM221.483 343.809L221.239 342.839C211.2 345.366 200.689 346.708 189.863 346.708V347.708V348.708C200.855 348.708 211.53 347.345 221.727 344.779L221.483 343.809ZM61.7283 234.131L62.7213 234.013C62.7195 233.998 62.7177 233.982 62.7158 233.967L61.7228 234.085L60.7297 234.202C60.7316 234.218 60.7334 234.234 60.7353 234.249L61.7283 234.131ZM61.7228 234.085L62.7158 233.967C62.125 228.981 61.821 223.906 61.821 218.76H60.821H59.821C59.821 223.985 60.1296 229.138 60.7297 234.202L61.7228 234.085ZM189.863 347.708V346.708C134.963 346.708 88.1303 312.181 69.9299 263.669L68.9936 264.02L68.0573 264.371C86.5412 313.639 134.103 348.708 189.863 348.708V347.708ZM159.098 93.4993L159.336 94.4707C169.118 92.0799 179.342 90.812 189.863 90.812V89.812V88.812C179.18 88.812 168.797 90.0994 158.861 92.5279L159.098 93.4993ZM60.821 218.76H61.821C61.821 168.264 91.0942 124.598 133.613 103.787L133.174 102.889L132.734 101.991C89.5559 123.125 59.821 167.471 59.821 218.76H60.821ZM133.174 102.889L133.613 103.787C133.708 103.741 133.803 103.695 133.898 103.648L133.461 102.749L133.023 101.85C132.927 101.897 132.83 101.944 132.734 101.991L133.174 102.889ZM318.906 218.76H317.906C317.906 223.922 317.6 229.012 317.005 234.013L317.998 234.131L318.991 234.249C319.595 229.17 319.906 224.001 319.906 218.76H318.906ZM310.733 264.02L309.797 263.669C299.04 292.34 278.281 316.129 251.764 330.79L252.248 331.665L252.732 332.54C279.661 317.651 300.744 293.493 311.669 264.371L310.733 264.02Z" fill="#AB904E"/>
</svg>
