<svg width="210" height="210" viewBox="0 0 210 210" fill="none" xmlns="http://www.w3.org/2000/svg">
<path d="M117.742 175.5L104 193.5L91.2507 175.5C62.5601 169.777 38.0711 148.183 32.5 119.5L16 105L33 90C38.02 59.9344 61.4159 37.5203 91.2507 32.2055L104 16L117.742 32.2055C147.401 37.4481 170.919 60.5304 176.659 90L193.5 105L176.659 119.5C171.061 148.323 146.453 169.59 117.742 175.5Z" fill="#1F3138"/>
<path d="M120.079 187.11L104.13 208L89.3331 187.11C56.0359 180.468 27.6149 155.406 21.1493 122.118L2 105.29L21.7296 87.8817C27.5557 52.9887 54.7081 26.9756 89.3331 20.8076L104.13 2L120.079 20.8076C154.499 26.8918 181.794 53.6803 188.455 87.8817L208 105.29L188.455 122.118C181.958 155.569 153.399 180.251 120.079 187.11Z" fill="#1F3138"/>
<path d="M116.5 80.5C109.391 89.0125 104 106 104 106C104 106 120.534 97.7282 128 89C135.379 80.3733 141 63 141 63C141 63 124.037 71.4751 116.5 80.5Z" fill="#1F3138"/>
<path d="M116.5 130.5C109.391 121.987 104 105 104 105C104 105 120.534 113.272 128 122C135.379 130.627 141 148 141 148C141 148 124.037 139.525 116.5 130.5Z" fill="#1F3138"/>
<path d="M90.5 80.5C97.6088 89.0125 103 106 103 106C103 106 86.4659 97.7282 79 89C71.6209 80.3733 66 63 66 63C66 63 82.9633 71.4751 90.5 80.5Z" fill="#1F3138"/>
<path d="M90.5 130.5C97.6088 121.987 103 105 103 105C103 105 86.4659 113.272 79 122C71.6209 130.627 66 148 66 148C66 148 82.9633 139.525 90.5 130.5Z" fill="#1F3138"/>
<path d="M104 37L104 172M173 106L33 106M129 123L163 106M130 87L162 106M78 123L40 106L77 87M118.5 133C118.5 133 117.509 144.199 115 148C111.923 152.66 104 161 104 161C104 161 96.0772 152.66 93 148C90.4905 144.199 88.5 133 88.5 133M118.5 77C118.5 77 117.509 65.8005 115 62C111.923 57.3396 104 49 104 49C104 49 96.0772 57.3396 93 62C90.4905 65.8005 88.5 77 88.5 77M104 193.5L117.742 175.5C146.453 169.59 171.061 148.323 176.659 119.5L193.5 105L176.659 90C170.919 60.5304 147.401 37.4481 117.742 32.2055L104 16L91.2507 32.2055C61.4159 37.5203 38.02 59.9344 33 90L16 105L32.5 119.5C38.0711 148.183 62.5601 169.777 91.2507 175.5L104 193.5ZM104.13 208L120.079 187.11C153.399 180.251 181.958 155.569 188.455 122.118L208 105.29L188.455 87.8817C181.794 53.6803 154.499 26.8918 120.079 20.8076L104.13 2L89.3331 20.8076C54.7081 26.9756 27.5557 52.9887 21.7296 87.8817L2 105.29L21.1493 122.118C27.6149 155.406 56.0359 180.468 89.3331 187.11L104.13 208ZM104 106C104 106 109.391 89.0125 116.5 80.5C124.037 71.4751 141 63 141 63C141 63 135.379 80.3733 128 89C120.534 97.7282 104 106 104 106ZM104 105C104 105 109.391 121.987 116.5 130.5C124.037 139.525 141 148 141 148C141 148 135.379 130.627 128 122C120.534 113.272 104 105 104 105ZM103 106C103 106 97.6088 89.0125 90.5 80.5C82.9633 71.4751 66 63 66 63C66 63 71.6209 80.3733 79 89C86.4659 97.7282 103 106 103 106ZM103 105C103 105 97.6088 121.987 90.5 130.5C82.9633 139.525 66 148 66 148C66 148 71.6209 130.627 79 122C86.4659 113.272 103 105 103 105Z" stroke="#AB904E" stroke-width="2" stroke-linecap="round"/>
</svg>
