<svg width="349" height="384" viewBox="0 0 349 384" fill="none" xmlns="http://www.w3.org/2000/svg">
<path d="M173 1.5L229.5 62.3711M173 1.5L116.408 63.7178M173 1.5L172.75 62.3711M2 189.5L59.8166 125.936M2 189.5L59.8166 254.755M2 189.5H59.8166M173 382.5L172.75 254.755M173 382.5L230.75 318.628M173 382.5L116.408 318.628M347.5 189.5H288.5M347.5 189.5L288.5 125.936M347.5 189.5L288.5 254.755M288.5 189.5V125.936M288.5 189.5V254.755M288.5 189.5L229.5 125.936M288.5 189.5L229.5 254.755M288.5 125.936H229.5M288.5 125.936L229.5 190.345M288.5 125.936L229.5 62.3711M59.8166 125.936V189.5M59.8166 125.936H116M59.8166 125.936L116 190.345M59.8166 125.936L116.408 63.7178M59.8166 254.755H116M59.8166 254.755V190.345M59.8166 254.755L116 190.345M59.8166 254.755L116.408 318.628M288.5 254.755H229.5M288.5 254.755L229.5 190.345M288.5 254.755L230.75 318.628M59.8166 189.5V190.345M116 125.936H172.75M116 125.936V190.345M116 125.936L59.8166 190.345M116 125.936L172.75 62.3711M116 254.755V190.345M116 254.755H172.75M116 254.755L59.8166 190.345M116 254.755L172.75 317L229.5 254.755M229.5 125.936V190.345M229.5 125.936H172.75M229.5 125.936L172.75 62.3711M229.5 254.755V190.345M229.5 254.755H172.75M229.5 190.345L172.75 125.936M229.5 190.345L172.75 254.755M172.75 125.936L116 190.345M172.75 125.936L229.5 62.3711M172.75 125.936L116.408 63.7178M116 190.345L172.75 254.755M172.75 254.755L230.75 318.628M172.75 254.755L116.408 318.628M172.75 181.5V201.5M164.5 190.345H182" stroke="#AB904E" stroke-width="2"/>
</svg>
