<svg width="148" height="152" viewBox="0 0 148 152" fill="none" xmlns="http://www.w3.org/2000/svg">
<path d="M76.9141 1C96.1165 1 114.13 8.32529 127.031 21.7832C139.929 35.2372 147.745 54.8492 146.501 79.4746L146.5 79.4873V79.5C146.5 98.74 141.026 116.613 129.613 129.668C118.21 142.713 100.833 151 76.9141 151C57.6976 151 38.5955 144.29 24.3018 130.886C10.015 117.488 0.5 97.3739 0.5 70.5C0.5 51.3413 9.97935 33.9704 24.29 21.3779C38.602 8.78443 57.715 1 76.9141 1ZM76.3906 10.5C62.7976 10.5 46.3849 17.4381 33.915 28.5C21.6369 39.3919 13.0923 54.3651 14.9092 70.7822L15.0039 71.5645C16.5186 83.1765 23.4478 98.6398 34.1758 111.2C44.9049 123.762 59.5047 133.5 76.3906 133.5C97.2211 133.5 112.487 128.305 122.547 118.853C132.297 109.691 137.083 96.5979 137.373 80.5732L137.388 79.0137C138.466 57.5924 131.645 40.4589 120.322 28.6787C108.999 16.8983 93.2027 10.5 76.3906 10.5ZM76.3906 11.5C92.9488 11.5 108.479 17.8002 119.602 29.3721C130.72 40.94 137.46 57.8053 136.388 78.9883V79.0137C136.388 95.561 131.668 108.908 121.861 118.123C112.049 127.343 97.0669 132.5 76.3906 132.5C59.9061 132.5 45.5601 122.988 34.9365 110.55C24.644 98.4991 17.9117 83.7764 16.1504 72.5146L15.9951 71.4355C13.8715 55.1553 22.253 40.1824 34.5791 29.248C46.9083 18.311 63.0933 11.5 76.3906 11.5ZM97.6377 23.5195C81.4936 18.8782 66.7827 21.9508 54.9697 27.6621C43.165 33.3695 34.2308 41.7213 29.6045 47.6934L29.127 48.3096L29.8857 48.4873C35.8466 49.8782 39.4635 51.7766 41.4404 53.877C43.3878 55.946 43.7805 58.2485 43.2021 60.6055C42.6158 62.9948 41.0257 65.4497 38.9805 67.7188C36.9412 69.9812 34.4824 72.0228 32.2158 73.5889L31.916 73.7949L32.0205 74.1436C36.8688 90.3046 48.1485 100.731 60.2393 107.191C72.3227 113.648 85.2482 116.164 93.4795 116.5L94 116.521V116C94 109.641 94.9639 105.22 96.5049 102.284C98.0356 99.3683 100.135 97.9147 102.472 97.4531C104.833 96.9867 107.505 97.5208 110.169 98.7227C112.828 99.9223 115.439 101.769 117.656 103.863L118.07 104.254L118.404 103.794C139.797 74.3288 125.628 46.7577 115.859 36.6523L115.604 36.3887L115.276 36.5527C110.107 39.1373 106.301 40.1271 103.547 40.0752C100.825 40.0238 99.1375 38.9582 98.1201 37.3789C97.0814 35.7664 96.7004 33.5543 96.7617 31.1631C96.8228 28.7815 97.321 26.2815 97.9775 24.1475L98.1279 23.6602L97.6377 23.5195ZM55.4053 28.5625C66.9321 22.9896 81.2119 19.9845 96.8779 24.3447C96.274 26.4332 95.822 28.8269 95.7627 31.1367C95.699 33.6203 96.0848 36.0668 97.2793 37.9209C98.4952 39.8083 100.508 41.0182 103.528 41.0752C106.452 41.1303 110.322 40.1052 115.389 37.6104C124.891 47.659 138.275 74.2361 117.923 102.747C115.732 100.751 113.19 98.9889 110.58 97.8115C107.807 96.5605 104.916 95.9508 102.278 96.4717C99.6152 96.9976 97.2759 98.6634 95.6191 101.819C94.018 104.87 93.0556 109.308 93.0039 115.475C84.8823 115.062 72.3935 112.551 60.7109 106.309C48.8711 99.982 37.8904 89.8427 33.083 74.1982C35.3154 72.6266 37.712 70.6184 39.7227 68.3877C41.818 66.063 43.5301 63.4627 44.1729 60.8438C44.8234 58.1927 44.3724 55.5325 42.1689 53.1914C40.0876 50.98 36.4769 49.0919 30.874 47.6982C35.5397 41.8852 44.1492 34.0046 55.4053 28.5625ZM106.702 103.14C104.993 103.148 103.219 103.656 102.115 104.477C100.999 105.307 100.198 106.728 99.9023 108.235C99.6058 109.748 99.8038 111.425 100.789 112.75C101.808 114.12 103.607 114.61 105.31 114.603C107.019 114.595 108.792 114.086 109.896 113.266C111.012 112.436 111.813 111.014 112.108 109.507C112.405 107.994 112.207 106.318 111.222 104.993C110.203 103.623 108.404 103.132 106.702 103.14ZM106.707 104.14C108.269 104.133 109.675 104.59 110.419 105.59C111.196 106.635 111.384 108.004 111.127 109.314C110.869 110.63 110.177 111.811 109.299 112.464C108.408 113.126 106.859 113.595 105.305 113.603C103.743 113.61 102.335 113.153 101.592 112.153C100.815 111.108 100.627 109.738 100.884 108.428C101.142 107.112 101.834 105.932 102.712 105.279C103.603 104.617 105.152 104.147 106.707 104.14ZM33.7158 54.3125C32.8126 53.0981 31.0987 52.808 29.5137 52.9424C27.8997 53.0793 26.2012 53.6692 25.1152 54.4766C24.0194 55.2913 23.1593 56.6144 22.7646 57.9951C22.3711 59.372 22.4166 60.9036 23.2832 62.0693C24.1863 63.2841 25.9002 63.5738 27.4854 63.4395C29.0993 63.3026 30.7978 62.7126 31.8838 61.9053C32.9797 61.0905 33.8407 59.7675 34.2354 58.3867C34.6288 57.0099 34.5824 55.4781 33.7158 54.3125ZM29.5986 53.9385C31.0942 53.8117 32.3333 54.13 32.9131 54.9092C33.5292 55.7379 33.6165 56.9122 33.2734 58.1123C32.9315 59.3086 32.1856 60.4345 31.2871 61.1025C30.3787 61.7778 28.8684 62.3189 27.4014 62.4434C25.9053 62.5702 24.6656 62.2523 24.0859 61.4727C23.4699 60.644 23.3827 59.4705 23.7256 58.2705C24.0675 57.0742 24.8134 55.9473 25.7119 55.2793C26.6204 54.6039 28.1315 54.0629 29.5986 53.9385ZM111.5 31.5C111.5 32.5327 110.869 33.5267 109.878 34.2852C108.89 35.0411 107.62 35.4999 106.5 35.5C105.368 35.5 103.833 35.0323 102.581 34.2568C101.305 33.4661 100.5 32.4715 100.5 31.5C100.5 30.4673 101.131 29.4733 102.122 28.7148C103.11 27.959 104.38 27.5 105.5 27.5C106.632 27.5001 108.166 27.9678 109.418 28.7432C110.694 29.5339 111.5 30.5285 111.5 31.5ZM112.5 31.5C112.5 29.9862 111.298 28.7305 109.945 27.8926C108.568 27.0395 106.853 26.5 105.5 26.5C104.134 26.5 102.654 27.0483 101.514 27.9209C100.376 28.7911 99.5 30.0475 99.5 31.5C99.5 33.0138 100.702 34.2695 102.055 35.1074C103.432 35.9605 105.147 36.5 106.5 36.5C107.865 36.5 109.345 35.9516 110.485 35.0791C111.623 34.2089 112.5 32.9526 112.5 31.5Z" stroke="#F2F24F"/>
</svg>
