<svg width="407" height="293" viewBox="0 0 407 293" fill="none" xmlns="http://www.w3.org/2000/svg">
<path fill-rule="evenodd" clip-rule="evenodd" d="M92.9996 -1.49999C92.9996 -1.49999 83.7733 18.2522 76.9996 52.5C48.9996 78.5 -5.30035 140.7 1.49965 181.5C10.4998 158.167 32.8 108.9 50 98.5C26.1667 147.167 -6 244.5 57.5 291C51 277.833 39.6 244.7 46 217.5C47 233 50.7 268.2 57.5 285L61 278.5C56.1667 260.333 50.1 216.2 64.5 185C62.1667 200.333 59.4 237.7 67 264.5C66 248 65.2 211.1 70 195.5C74.5 218.5 88.4 270.2 108 293C104.667 271.5 107.9 217.4 147.5 173C139.667 200.167 128 262.2 144 293C146.167 274.5 158.1 227.3 188.5 186.5C187.667 197.333 187.5 222.6 193.5 237C192.833 220.333 201.1 175.3 239.5 128.5C238.333 136.833 237.1 158.1 241.5 176.5C247.811 151.223 344.5 17 367.5 9.53674e-06C390.5 -17 406.5 -20.5 406.5 -20.5C406.5 -20.5 140.278 -30.0057 127 -22C113.722 -13.9942 92.9996 -1.49999 92.9996 -1.49999ZM92.9996 98.5C93.1664 81.3334 100.2 41.4 127 19C111.514 47.9228 104.004 65.2628 92.9996 98.5Z" fill="#E3E869"/>
</svg>
