<svg width="1542" height="1080" viewBox="0 0 1542 1080" fill="none" xmlns="http://www.w3.org/2000/svg">
<path d="M158.5 3.5C133.3 7.5 102.667 5.16667 90.5 3.5L95.3 -0.5H1542.5V1079.5H334.5C284.9 1065.5 214.5 1010.33 185.5 984.5C166.3 962.5 182.5 883.333 193 846.5C171.4 856.9 151.333 937.833 144 977C120.4 977.4 97.5 961.5 89 953.5C77.4 926.3 57.1667 923.167 48.5 925C22.1 925 27.5 896.333 33.5 882C24.7 860 7.83333 840.5 0.5 833.5C10.1 817.5 44.8333 820.833 61 824.5C37 799.3 29.3333 771 28.5 760C18.5 738.5 139.126 681.478 185.5 679C194.7 663.8 202.333 663.333 205 665C223.8 653 230.5 661.333 231.5 667C235.1 660.2 258.333 660.5 269.5 661.5C282.7 666.7 304 667.333 313 667C339.4 651 367.333 622.167 379.5 609.5C395.1 605.9 439.167 612.667 459.5 618.5C451.5 600.5 407.5 419.5 364.5 396C362.5 388.5 335.057 388.708 339 376.5C315.8 377.7 308 356.667 307 346C299.4 354.4 303.833 363.833 307 367.5C273 360.7 279.5 334.667 287 322.5C263.4 331.3 254.5 318.833 253 311.5C281.8 307.1 287.667 289.667 287 281.5L217 166L205.5 167.5C209.9 162.7 210.667 159.167 210.5 158C126 212 94.6209 263.884 121 308.5C70.2 232.9 150 158 195.5 158L192.5 151L198 144.5C181.6 134.1 177.833 127.167 178 125H204.5C149 94.5 156.5 82 123 57.5C147.06 52.688 164.127 45.2212 171.03 41.3602C163.338 44.5971 135.161 45.1539 121 45C136.6 35.4 152.5 21.3333 158.5 15.5C144.5 23.5 127.667 27.1667 121 28C143.8 17.2 155.5 7.16667 158.5 3.5Z" fill="#E3E869"/>
</svg>
