<svg width="154" height="235" viewBox="0 0 154 235" fill="none" xmlns="http://www.w3.org/2000/svg">
<path d="M122.5 235C123.3 208.2 143.5 185.167 153.5 177V0H12C10.4 42.4 16.0005 79 19.0008 92C-3.79924 134 -1.1659 181.5 3.00077 200C-1.39923 165.2 13.8338 132.833 22.0003 121C20.4003 167 32.0003 199.833 38.0003 210.5C72.8003 146.1 103.834 115.333 115 108C115.334 113 113.8 126.4 105 140C96.2003 153.6 91.667 179 90.5003 190C94.1003 179.2 111.334 155.5 119.5 145C100.7 204.6 113.667 229.833 122.5 235Z" fill="#AB904E"/>
</svg>
