<svg width="607" height="606" viewBox="0 0 607 606" fill="none" xmlns="http://www.w3.org/2000/svg">
<path d="M25.0001 422C6.00006 395 -2.99994 326 12.5 277C10.0791 254.001 2.96934 211.001 2.34478 177C0.396548 132 2.20008 33.6 25.0001 -2.67029e-05C92.3334 -30.8334 269.6 -74 440 -2.67029e-05C440 32.651 436.872 86.3926 427.65 144.5C749.77 296.1 575 654 377 598.5C344.5 566.5 228 506.5 186 503.5C163.2 509.5 108 508.5 86.0001 506.5C77.5001 494.5 29.5001 449 25.0001 422Z" fill="white"/>
<path d="M307.5 406C333.5 381.6 360.333 345.833 370.5 331C375.789 321.525 380.701 311.48 385.26 301M427.65 144.5C436.872 86.3926 440 32.651 440 -2.67029e-05C269.6 -74 92.3334 -30.8334 25.0001 -2.67029e-05C2.20008 33.6 0.396548 132 2.34478 177C2.96934 211.001 10.0791 254.001 12.5 277C-2.99994 326 6.00006 395 25.0001 422C29.5001 449 77.5001 494.5 86.0001 506.5C108 508.5 163.2 509.5 186 503.5C228 506.5 344.5 566.5 377 598.5C575 654 749.77 296.1 427.65 144.5ZM427.65 144.5C423.32 171.781 417.647 200.025 410.323 227.5M385.26 301C385.673 306.833 392.5 314.6 416.5 299C431.833 289.167 461.3 268.9 456.5 266.5C450.882 253.667 433.782 227.9 410.323 227.5M385.26 301C395.218 278.107 403.489 253.138 410.323 227.5" stroke="#F2F24F" stroke-width="2"/>
</svg>
