<svg width="1920" height="138" viewBox="0 0 1920 138" fill="none" xmlns="http://www.w3.org/2000/svg">
<path d="M1926.5 1.5V69.5V137H1921V69.5V1.5H1926.5Z" fill="#1F3138"/>
<path d="M1084.5 1.5H1921M835.5 1.5H410.5H-1.5V69.5M1084.5 137H1451M833 137H625.75H418.5H366.125H313.75H209H-1.5V69.5M1544 137H1578M1666.5 137H1921M1154.5 69.5H1496.5M1926.5 69.5H1921M-1.5 69.5H766M1541 69.5H1571.5H1580M1627.5 69.5H1921M1921 69.5V1.5M1921 69.5V137M1921 1.5H1926.5V137H1921" stroke="#AB904E" stroke-width="2"/>
</svg>
