<svg width="389" height="306" viewBox="0 0 389 306" fill="none" xmlns="http://www.w3.org/2000/svg">
<path fill-rule="evenodd" clip-rule="evenodd" d="M252.828 206.49C236.583 215.863 217.733 221.226 197.63 221.226C177.527 221.226 158.677 215.863 142.432 206.49H252.828ZM256.292 204.407C258.509 203.017 260.673 201.551 262.781 200.013H132.479C134.587 201.551 136.751 203.017 138.968 204.407H256.292ZM120.569 189.966C122.723 192.058 124.961 194.063 127.279 195.975H267.981C270.299 194.063 272.537 192.058 274.691 189.966H120.569ZM278.02 186.592C279.995 184.502 281.89 182.336 283.699 180.098H111.561C113.37 182.336 115.265 184.502 117.24 186.592H278.02ZM101.753 165.811C103.381 168.634 105.131 171.378 106.995 174.037H288.265C290.129 171.378 291.879 168.634 293.508 165.811H101.753ZM296.541 160.183C298.026 157.226 299.382 154.193 300.602 151.092H94.658C95.8781 154.193 97.2343 157.226 98.7192 160.183H296.541ZM90.6284 138.753C91.1839 140.871 91.8006 142.964 92.4765 145.031H302.784C303.46 142.964 304.076 140.871 304.632 138.753H90.6284ZM305.86 133.558C306.55 130.29 307.095 126.968 307.489 123.601H87.7715C88.1654 126.968 88.7105 130.29 89.4 133.558L305.86 133.558ZM87.0171 110.613C87.0171 112.72 87.076 114.813 87.1922 116.89H308.068C308.184 114.813 308.243 112.72 308.243 110.613C308.243 109.309 308.22 108.01 308.176 106.717H87.0844C87.0397 108.01 87.0171 109.309 87.0171 110.613ZM307.72 99.7898C307.537 97.8994 307.306 96.023 307.028 94.1617H88.2321C87.9546 96.023 87.7234 97.8994 87.5399 99.7898H307.72ZM197.63 0C144.407 0 99.9642 37.5891 89.4 87.6678H305.86C295.296 37.5891 250.853 0 197.63 0Z" fill="url(#paint0_linear_43_192)"/>
<g filter="url(#filter0_d_43_192)">
<path d="M188.971 305.863L48.27 109.098L60.392 107.582L188.971 284.65L355.216 69.4849L379.243 66.8873L188.971 305.863Z" fill="#00F1FF"/>
</g>
<path fill-rule="evenodd" clip-rule="evenodd" d="M344.621 83.7715L360.627 68.8355L302.873 76.0313L305.901 87.6678C306.228 89.1755 306.371 90.0792 306.55 91.7806L344.621 83.7715ZM88.0786 121.933C87.088 114.967 86.7881 111.033 87.2134 103.918L58.877 107.799L59.7422 124.683L88.0786 121.933Z" fill="#00F1FF"/>
<g filter="url(#filter1_d_43_192)">
<path d="M369.348 160.293C366.049 160.705 364.197 159.288 363.792 156.044C363.634 154.779 363.783 153.281 364.237 151.549C364.739 149.755 365.461 147.934 366.403 146.085C367.346 144.236 368.442 142.508 369.694 140.9C370.938 139.237 372.248 137.873 373.623 136.808C375.046 135.681 376.417 135.035 377.737 134.871C378.177 134.816 378.493 134.888 378.686 135.088C378.926 135.225 379.129 135.507 379.294 135.933C379.431 136.139 379.544 136.377 379.634 136.645C379.723 136.913 379.84 137.177 379.984 137.439C380.252 137.796 380.492 138.157 380.705 138.521C380.918 138.886 381.052 139.288 381.107 139.728C381.176 140.278 381.1 140.79 380.88 141.264C380.653 141.683 380.368 142.082 380.024 142.46C379.536 143.023 378.79 143.758 377.786 144.665C376.775 145.517 375.658 146.411 374.435 147.345C373.259 148.218 372.101 149.004 370.959 149.705C369.873 150.399 368.98 150.846 368.278 151.045C367.88 151.876 367.477 152.904 367.071 154.127C366.714 155.289 366.593 156.337 366.71 157.271C366.771 157.766 366.936 158.193 367.204 158.55C367.527 158.901 367.964 159.042 368.513 158.973C369.393 158.863 370.497 158.307 371.823 157.304C373.198 156.239 374.608 155.002 376.051 153.593C377.488 152.13 378.795 150.738 379.97 149.419C381.194 148.038 382.095 146.976 382.673 146.234L384.962 143.1C385.251 142.729 385.588 142.52 385.973 142.472C386.303 142.43 386.485 142.547 386.519 142.822C386.56 143.152 386.179 143.898 385.374 145.059C384.563 146.166 383.576 147.433 382.414 148.863C381.3 150.23 380.259 151.505 379.289 152.687C378.313 153.814 377.677 154.535 377.381 154.852C376.35 155.985 375.154 157.14 373.792 158.315C372.424 159.435 370.943 160.094 369.348 160.293ZM369.413 148.725C369.922 148.327 370.682 147.701 371.692 146.849C372.758 145.991 373.841 145.046 374.941 144.015C376.041 142.984 376.948 141.978 377.663 140.995C378.433 140.005 378.777 139.181 378.695 138.521C378.674 138.356 378.63 138.222 378.561 138.119C378.499 138.071 378.386 138.057 378.221 138.077C377.506 138.167 376.702 138.658 375.808 139.551C374.914 140.444 374.041 141.503 373.188 142.726C372.329 143.894 371.552 145.052 370.857 146.2C370.211 147.285 369.729 148.127 369.413 148.725Z" fill="white"/>
</g>
<g filter="url(#filter2_d_43_192)">
<path d="M340.921 191.733C338.776 192 337.24 191.55 336.312 190.381C335.33 189.219 334.725 187.731 334.499 185.916C334.321 184.486 334.3 182.981 334.438 181.4C334.583 179.874 334.772 178.483 335.007 177.225C336.136 170.606 338 164.287 340.6 158.266C343.248 152.184 346.552 146.439 350.512 141.031C350.189 140.68 349.726 140.319 349.121 139.948C348.571 139.57 348.269 139.16 348.214 138.721C348.145 138.171 348.266 137.793 348.575 137.587C348.878 137.325 349.249 137.167 349.689 137.113C349.799 137.099 350.245 137.099 351.029 137.113C351.861 137.065 352.637 137.247 353.359 137.66L357.165 132.578C357.453 132.207 357.715 131.84 357.949 131.475C358.175 131.056 358.437 130.688 358.732 130.372C358.973 130.063 359.221 129.809 359.475 129.61C359.784 129.403 360.131 129.276 360.516 129.228C361.121 129.153 361.589 129.318 361.918 129.724C362.241 130.074 362.434 130.497 362.495 130.992C362.564 131.542 362.488 132.054 362.268 132.528C362.041 132.947 361.735 133.404 361.35 133.899C360.58 134.889 359.703 135.919 358.72 136.991C357.737 138.063 357.015 138.991 356.554 139.774C357.537 140.49 358.351 141.198 358.997 141.899C359.636 142.545 360.217 143.394 360.739 144.446C360.973 144.975 361.179 145.508 361.357 146.044C361.536 146.58 361.663 147.151 361.738 147.756C361.999 149.845 361.665 151.87 360.736 153.828C359.863 155.78 358.577 157.56 356.879 159.168C355.174 160.721 353.27 162.019 351.166 163.063C349.063 164.108 346.966 164.76 344.877 165.021C344.327 165.089 343.736 165.051 343.103 164.907C342.533 164.81 342.004 164.597 341.516 164.267C340.952 165.566 340.429 167.195 339.947 169.154C339.472 171.167 339.059 173.229 338.708 175.339C338.364 177.504 338.14 179.515 338.037 181.37C337.885 183.288 337.878 184.797 338.015 185.896C338.159 187.051 338.464 187.935 338.932 188.546C339.406 189.213 340.11 189.488 341.045 189.372C341.21 189.351 341.646 189.269 342.354 189.125C343.124 189.029 343.791 188.778 344.355 188.373C344.561 189.129 344.313 189.83 343.612 190.476C342.917 191.177 342.02 191.596 340.921 191.733ZM347.197 162.805C347.472 162.77 347.719 162.739 347.939 162.712C348.207 162.623 348.448 162.537 348.661 162.454C350.489 161.891 352.167 161.012 353.693 159.816C355.219 158.621 356.378 157.164 357.169 155.446C358.008 153.666 358.297 151.731 358.036 149.642C357.879 148.377 357.408 147.067 356.625 145.713C355.89 144.297 354.842 143.283 353.481 142.671C351.707 145.014 349.748 147.883 347.602 151.278C345.505 154.611 343.689 158.188 342.156 162.009C342.396 161.7 342.626 161.532 342.846 161.504C343.121 161.47 343.383 161.549 343.63 161.742C343.932 161.927 344.118 162.072 344.187 162.175C344.929 162.752 345.932 162.962 347.197 162.805Z" fill="white"/>
</g>
<g filter="url(#filter3_d_43_192)">
<path d="M331.044 166.578C330.549 166.64 329.944 166.492 329.23 166.134C328.57 165.77 327.986 165.34 327.477 164.845C326.962 164.295 326.673 163.773 326.612 163.278C326.509 162.453 326.674 161.315 327.107 159.865C327.534 158.36 328.046 156.872 328.645 155.401C329.298 153.924 329.804 152.828 330.161 152.113C329.474 152.869 328.618 154.065 327.593 155.7C326.617 157.274 325.544 158.971 324.375 160.792C323.254 162.552 322.133 164.088 321.013 165.4C319.947 166.706 318.974 167.413 318.094 167.523C316.885 167.674 315.843 167.385 314.971 166.656C314.146 165.866 313.658 164.865 313.507 163.656C313.302 162.006 313.55 160.188 314.251 158.202C314.946 156.161 315.926 154.168 317.191 152.223C318.505 150.216 319.948 148.361 321.523 146.657C323.152 144.946 324.765 143.544 326.36 142.451C328.009 141.352 329.522 140.717 330.896 140.545C332.381 140.36 333.635 140.567 334.659 141.165C335.677 141.708 336.271 142.667 336.442 144.042C336.47 144.262 336.466 144.681 336.432 145.3C336.452 145.912 336.297 146.238 335.967 146.279C335.802 146.3 335.497 146.087 335.05 145.64C334.658 145.186 334.129 144.749 333.463 144.33C332.796 143.91 331.995 143.759 331.06 143.876C329.521 144.068 327.971 144.847 326.41 146.215C324.898 147.52 323.481 149.149 322.161 151.1C320.834 152.997 319.706 154.925 318.778 156.883C317.849 158.842 317.165 160.519 316.725 161.914C316.608 162.32 316.494 162.753 316.384 163.213C316.329 163.667 316.329 164.114 316.384 164.553C316.445 165.048 316.614 165.279 316.889 165.244C317.164 165.21 317.703 164.836 318.508 164.121C319.367 163.4 319.972 162.877 320.323 162.554C322.076 160.94 323.695 159.146 325.18 157.174C326.72 155.195 328.061 153.185 329.203 151.144C329.567 150.484 329.904 149.828 330.214 149.175C330.523 148.522 330.836 147.896 331.152 147.298C331.379 146.879 331.63 146.653 331.905 146.618C332.51 146.543 333.139 146.883 333.792 147.639C334.499 148.389 334.891 149.066 334.966 149.671C335.001 149.946 334.966 150.118 334.863 150.186C334.815 150.248 334.671 150.434 334.43 150.743C333.708 151.671 333.027 152.928 332.388 154.516C331.803 156.097 331.304 157.694 330.891 159.31C330.527 160.863 330.272 162.179 330.127 163.258C330.093 163.43 330.065 163.657 330.045 163.939C330.072 164.159 330.22 164.224 330.488 164.135C331.017 163.901 331.822 163.186 332.901 161.991C334.029 160.733 335.222 159.328 336.48 157.775C337.786 156.16 338.941 154.676 339.945 153.322C341.004 151.961 341.695 151.01 342.018 150.467C342.115 150.343 342.211 150.219 342.307 150.096C342.451 149.91 342.606 149.807 342.771 149.786C343.156 149.738 343.372 149.907 343.42 150.292C343.448 150.512 343.09 151.226 342.348 152.436C341.598 153.59 340.653 154.965 339.511 156.559C338.363 158.099 337.187 159.641 335.984 161.187C334.774 162.679 333.705 163.957 332.776 165.022C331.896 166.025 331.319 166.544 331.044 166.578Z" fill="white"/>
</g>
<g filter="url(#filter4_d_43_192)">
<path d="M281.351 129.72C279.317 129.974 278.176 129.111 277.929 127.131C277.833 126.362 278.332 125.657 279.425 125.018C280.511 124.324 281.968 123.696 283.797 123.133C285.673 122.508 287.674 121.979 289.797 121.547C291.976 121.107 294.08 120.733 296.108 120.425C298.128 120.061 299.909 119.783 301.448 119.591C302.981 119.344 303.995 119.19 304.49 119.128L309.027 118.562C313.261 118.034 317.56 117.581 321.925 117.205C326.289 116.828 330.527 116.774 334.637 117.043C334.864 117.071 335.262 117.133 335.833 117.229C336.452 117.264 337.025 117.387 337.555 117.601C338.132 117.752 338.445 118.02 338.493 118.405C338.527 118.68 338.303 118.903 337.822 119.075C337.389 119.185 337.008 119.26 336.678 119.302C335.963 119.391 335.214 119.428 334.43 119.414C333.647 119.4 332.863 119.386 332.08 119.372C329.777 119.269 327.413 119.34 324.986 119.587C322.615 119.827 320.247 120.094 317.882 120.389C313.703 120.911 309.507 121.518 305.293 122.211C301.073 122.849 296.904 123.676 292.787 124.692C292.731 125.146 292.209 125.658 291.219 126.228C290.229 126.798 289.04 127.337 287.651 127.846C286.318 128.347 285.032 128.786 283.795 129.164C282.606 129.48 281.791 129.665 281.351 129.72ZM293.896 175.902C292.687 176.053 291.779 175.72 291.175 174.901C290.577 174.138 290.206 173.179 290.062 172.025C289.829 170.155 289.964 167.877 290.466 165.189C290.962 162.447 291.688 159.536 292.644 156.457C293.593 153.323 294.632 150.234 295.76 147.189C296.881 144.09 297.954 141.275 298.979 138.746C299.997 136.162 300.853 134.073 301.548 132.479C302.064 131.241 302.597 129.918 303.147 128.51C303.69 127.046 304.309 125.74 305.004 124.592C305.231 124.173 305.667 123.867 306.314 123.675C306.96 123.483 307.475 123.363 307.86 123.315C308.3 123.26 308.805 123.281 309.376 123.377C309.946 123.473 310.297 123.82 310.427 124.418C310.482 124.858 310.427 125.312 310.262 125.779C310.145 126.185 309.997 126.566 309.818 126.924C307.844 131.246 305.85 135.404 303.835 139.397C301.82 143.39 300.004 147.637 298.388 152.139C298.058 153.074 297.552 154.393 296.871 156.097C296.183 157.747 295.489 159.565 294.787 161.551C294.14 163.53 293.6 165.468 293.167 167.365C292.788 169.255 292.685 170.888 292.856 172.263C292.883 172.482 292.956 172.836 293.072 173.325C293.244 173.806 293.577 174.015 294.072 173.954C294.347 173.919 294.515 174.15 294.577 174.645C294.611 174.92 294.56 175.177 294.422 175.418C294.347 175.706 294.171 175.868 293.896 175.902Z" fill="white"/>
</g>
<g filter="url(#filter5_d_43_192)">
<path d="M234.599 146.273C233.334 146.431 232.643 146.043 232.527 145.108C232.444 144.448 232.713 143.688 233.331 142.829C233.95 141.97 234.926 141.29 236.26 140.789C237.057 140.466 237.704 140.274 238.198 140.212C238.742 140.088 239.25 139.913 239.725 139.687C239.635 140.759 239.308 141.944 238.744 143.243C238.235 144.535 237.448 145.387 236.382 145.8C235.853 146.033 235.259 146.191 234.599 146.273ZM223.834 187.572C222.624 187.723 221.69 187.393 221.03 186.582C220.377 185.826 219.986 184.925 219.855 183.88C219.759 183.11 219.883 181.866 220.228 180.148C220.579 178.485 221.06 176.526 221.673 174.272C222.34 172.011 223.107 169.653 223.974 167.2C224.84 164.746 225.721 162.403 226.615 160.169C225.687 161.234 224.69 162.42 223.624 163.725C222.613 165.024 221.647 166.233 220.726 167.354C220.678 167.415 220.554 167.543 220.355 167.735C220.21 167.92 220.056 168.024 219.891 168.044C219.506 168.092 219.293 167.951 219.251 167.621C219.217 167.346 219.296 167.085 219.489 166.838C220.768 165.003 222.102 163.161 223.491 161.313C224.935 159.457 226.317 157.554 227.637 155.602C228.056 154.935 228.41 154.417 228.699 154.046C229.036 153.613 229.589 153.348 230.359 153.252C230.689 153.211 231.194 153.232 231.875 153.314C232.603 153.335 233.208 153.483 233.689 153.758C234.225 154.026 234.359 154.429 234.091 154.965C233.768 155.507 233.266 156.408 232.585 157.665C231.904 158.923 231.186 160.325 230.429 161.871C229.666 163.363 228.954 164.82 228.294 166.242C227.682 167.603 227.204 168.696 226.86 169.52C225.711 172.4 224.937 174.926 224.538 177.098C224.194 179.263 224.097 180.95 224.248 182.16C224.433 183.644 224.883 184.342 225.598 184.253C226.313 184.164 227.409 183.329 228.887 181.749C230.366 180.168 232.033 178.313 233.889 176.183C234.577 175.427 235.443 174.313 236.488 172.843C237.589 171.365 238.73 169.771 239.913 168.06C241.15 166.342 242.268 164.779 243.265 163.37C243.08 161.885 242.857 160.545 242.596 159.349C242.39 158.146 242.119 156.867 241.782 155.513C241.109 155.932 240.524 156.173 240.029 156.234C239.534 156.296 239.26 156.107 239.205 155.667C239.129 155.062 239.401 154.33 240.02 153.471C240.26 153.162 240.755 152.654 241.505 151.946C242.254 151.238 242.821 150.86 243.206 150.812C243.646 150.757 243.99 150.826 244.237 151.019C244.54 151.204 244.818 151.421 245.072 151.668C245.326 151.916 245.581 152.61 245.835 153.751C246.089 154.892 246.315 156.037 246.514 157.185C246.768 158.326 246.922 159.116 246.977 159.556C248.105 158.299 249.006 157.237 249.679 156.371C250.408 155.498 251.309 154.437 252.382 153.186C252.918 152.561 253.643 151.66 254.558 150.485C255.472 149.31 256.194 148.383 256.724 147.702C256.937 146.726 257.198 145.912 257.508 145.259C257.762 144.613 258.085 144.07 258.477 143.63C258.924 143.184 259.423 142.926 259.973 142.857C260.419 142.858 260.804 143.033 261.127 143.384C261.505 143.727 261.725 144.147 261.787 144.642C261.896 145.521 261.656 146.277 261.064 146.91C260.528 147.535 259.93 148.335 259.27 149.311C258.658 150.225 258.276 151.641 258.124 153.559C258.097 153.785 258.055 154.126 258 154.579C257.945 155.033 257.78 155.277 257.505 155.311C256.721 155.297 256.265 154.768 256.134 153.723C256.107 153.503 256.076 153.256 256.042 152.981C256.056 152.644 256.073 152.335 256.093 152.053L247.255 161.783L247.739 165.66C247.91 167.035 248.109 168.406 248.335 169.774C248.617 171.135 248.895 172.021 249.17 172.434C249.362 172.633 249.524 172.809 249.654 172.96C249.833 173.049 250.032 173.08 250.252 173.053C251.022 172.957 251.93 172.397 252.975 171.373C254.013 170.294 255.109 169.013 256.265 167.528C257.413 165.989 258.482 164.487 259.472 163.024C260.51 161.498 261.384 160.216 262.092 159.179C262.855 158.134 263.319 157.602 263.484 157.581L263.649 157.56C263.924 157.526 264.082 157.674 264.123 158.004L264.144 158.169C264.178 158.444 264.106 158.76 263.927 159.117C263.432 160.073 262.854 161.038 262.194 162.014C261.527 162.935 260.888 163.852 260.276 164.766C259.526 165.921 258.749 167.079 257.945 168.24C257.188 169.34 256.374 170.419 255.5 171.477C255.019 172.095 254.442 172.837 253.768 173.703C253.149 174.562 252.461 175.318 251.705 175.971C251.011 176.672 250.251 177.074 249.426 177.177C248.931 177.238 248.299 177.094 247.529 176.743C246.822 176.44 246.306 176.114 245.983 175.763C245.653 175.358 245.334 174.588 245.025 173.453C244.716 172.319 244.441 171.013 244.201 169.535C243.961 168.058 243.731 166.662 243.512 165.349L239.004 172.194C237.732 174.084 236.268 175.998 234.611 177.935C233.015 179.921 231.424 181.712 229.836 183.306C228.302 184.893 226.917 186.099 225.68 186.923C225.054 187.281 224.439 187.497 223.834 187.572Z" fill="white"/>
</g>
<g filter="url(#filter6_d_43_192)">
<path d="M153.07 190.618C152.026 190.749 151.369 189.742 151.102 187.597C150.972 186.552 151.233 184.844 151.887 182.473C152.534 180.047 153.438 177.226 154.601 174.009C155.811 170.731 157.201 167.319 158.769 163.773C160.33 160.171 161.957 156.646 163.648 153.196C165.34 149.746 166.987 146.609 168.589 143.784C170.185 140.905 171.656 138.599 173.004 136.867C174.352 135.136 175.438 134.218 176.263 134.115C176.648 134.067 177.194 134.195 177.902 134.497C178.61 134.8 179.27 135.164 179.881 135.591C180.493 136.017 180.823 136.423 180.871 136.808C180.994 137.797 180.99 138.887 180.859 140.076C180.777 141.203 180.714 142.272 180.673 143.282C180.632 143.846 180.566 145.111 180.476 147.076C180.379 148.987 180.32 151.2 180.299 153.716C180.326 156.17 180.476 158.496 180.751 160.696C181.011 162.786 181.454 164.545 182.079 165.975C182.704 167.405 183.594 168.048 184.749 167.904C186.234 167.719 187.963 166.805 189.936 165.163C191.909 163.521 193.971 161.476 196.123 159.03C198.323 156.522 200.482 153.907 202.6 151.186C204.766 148.403 206.733 145.812 208.5 143.414C210.315 140.953 211.824 138.95 213.027 137.404C214.286 135.851 215.052 135.057 215.327 135.023C215.492 135.003 215.588 135.102 215.616 135.322C215.671 135.762 215.547 136.336 215.244 137.044C214.742 138.391 213.896 140.116 212.706 142.219C211.565 144.26 210.197 146.497 208.601 148.93C207.006 151.362 205.27 153.785 203.393 156.197C201.571 158.602 199.697 160.818 197.772 162.845C195.847 164.872 193.963 166.559 192.121 167.906C190.271 169.197 188.549 169.943 186.955 170.142C184.425 170.457 182.415 170.01 180.924 168.8C179.426 167.535 178.292 165.833 177.523 163.695C176.747 161.502 176.208 159.196 175.906 156.777C175.556 153.972 175.392 151.536 175.413 149.467C175.427 147.343 175.462 144.937 175.518 142.25C173.366 145.143 171.08 148.527 168.659 152.403C166.287 156.217 164.028 160.269 161.882 164.557C159.792 168.839 158.034 173.106 156.61 177.361C155.18 181.56 154.357 185.488 154.143 189.144C154.129 189.481 154.057 189.797 153.926 190.093C153.796 190.388 153.51 190.564 153.07 190.618ZM211.469 180.654C210.259 180.805 209.39 180.327 208.861 179.22C208.387 178.107 208.092 177.083 207.975 176.148C207.845 175.103 207.897 173.505 208.131 171.354C208.414 169.141 208.823 166.604 209.36 163.745C209.897 160.886 210.53 157.903 211.26 154.797C212.037 151.628 212.88 148.535 213.788 145.518C214.751 142.494 215.725 139.776 216.708 137.364C217.685 134.897 218.665 132.904 219.648 131.385C220.631 129.866 221.563 129.052 222.443 128.942C222.883 128.887 223.597 129.022 224.587 129.345C225.577 129.668 226.109 130.132 226.185 130.737C226.205 130.902 225.817 131.816 225.019 133.479C224.214 135.087 223.166 137.201 221.873 139.819C220.635 142.431 219.321 145.331 217.932 148.52C216.536 151.654 215.236 154.887 214.032 158.22C212.883 161.547 211.996 164.729 211.369 167.767C210.736 170.75 210.56 173.368 210.842 175.623L210.924 176.283C210.972 176.668 211.075 177.046 211.233 177.417C211.384 177.733 211.652 177.867 212.037 177.819C212.697 177.737 213.068 178.026 213.15 178.685C213.198 179.07 213.081 179.476 212.799 179.902C212.517 180.328 212.074 180.579 211.469 180.654Z" fill="white"/>
</g>
<g filter="url(#filter7_d_43_192)">
<path d="M88.9793 228.098C86.4498 228.413 85.0273 227.306 84.7118 224.777C84.6775 224.502 84.6707 224.223 84.6914 223.941C84.6571 223.667 84.6503 223.388 84.671 223.106C84.864 221.072 85.5622 219.058 86.7656 217.065C87.969 215.072 89.4335 213.159 91.1593 211.324C92.8918 209.544 94.6622 207.843 96.4703 206.222C98.3403 204.648 100.011 203.267 101.482 202.079C102.341 201.357 103.431 200.467 104.751 199.409C106.126 198.344 107.573 197.186 109.093 195.936C110.619 194.74 112.069 193.61 113.444 192.545C113.857 190.93 114.057 189.174 114.044 187.277C114.079 185.318 113.993 183.514 113.788 181.864L113.705 181.204C113.169 182.276 112.351 183.551 111.25 185.028C110.15 186.506 108.882 187.976 107.445 189.44C106.001 190.849 104.561 192.061 103.124 193.078C101.687 194.095 100.336 194.682 99.0716 194.84C98.1917 194.95 97.5526 194.75 97.1541 194.242C96.8105 193.726 96.5942 193.111 96.505 192.396C96.265 190.471 96.4305 188.44 97.0016 186.303C97.5726 184.165 98.2743 182.179 99.1064 180.344C99.9318 178.454 100.685 176.881 101.366 175.623C102.04 174.31 102.366 173.572 102.346 173.407C102.339 173.352 102.28 173.331 102.17 173.345C101.95 173.372 101.703 173.403 101.428 173.437C101.208 173.465 101.16 173.303 101.284 172.953C101.937 171.922 102.797 170.977 103.862 170.118C104.928 169.259 105.983 168.765 107.028 168.634C107.413 168.586 107.873 168.696 108.409 168.965C108.993 169.171 109.313 169.494 109.368 169.934C109.402 170.209 109.275 170.532 108.986 170.903C108.649 171.336 108.237 171.834 107.748 172.398C107.315 172.954 106.724 173.81 105.974 174.964C105.548 175.576 104.974 176.569 104.252 177.944C103.523 179.263 102.79 180.778 102.055 182.49C101.312 184.146 100.706 185.785 100.239 187.407C99.8189 188.967 99.6776 190.297 99.8148 191.397C99.8354 191.562 99.8594 191.754 99.8868 191.974C99.9624 192.132 100.12 192.28 100.361 192.418C101.138 192.377 102.059 191.927 103.124 191.068C104.183 190.154 105.273 189.041 106.394 187.728C107.562 186.354 108.642 184.935 109.632 183.471C110.67 181.946 111.557 180.55 112.293 179.286C113.077 177.96 113.617 176.915 113.913 176.152C114.38 174.977 115.219 174.314 116.429 174.163C117.309 174.053 117.828 174.184 117.986 174.555C118.199 174.92 118.346 175.432 118.429 176.092C118.696 178.236 118.795 180.15 118.726 181.834C118.705 183.456 118.491 185.326 118.085 187.443C121.227 183.98 124.184 180.372 126.955 176.62C126.996 176.503 127.089 176.352 127.233 176.166C127.433 175.974 127.587 175.871 127.697 175.857C128.027 175.816 128.213 175.96 128.254 176.29C128.309 176.73 128.199 177.191 127.924 177.672C127.504 178.338 127.03 179.012 126.5 179.692C126.026 180.365 125.551 181.039 125.077 181.712C123.936 183.307 122.767 184.904 121.57 186.506C120.367 188.052 119.074 189.553 117.693 191.01C115.993 197.979 113.393 204.223 109.893 209.741C106.455 215.308 101.852 220.266 96.0838 224.615C95.1145 225.35 94.0042 226.075 92.7531 226.789C91.5019 227.504 90.244 227.94 88.9793 228.098ZM90.6192 225.799C92.1039 225.614 93.6575 224.862 95.2799 223.542C96.8543 222.285 98.3943 220.753 99.9001 218.945C101.406 217.138 102.747 215.351 103.922 213.585C105.16 211.867 106.126 210.434 106.821 209.287C107.598 207.905 108.347 206.527 109.069 205.153C109.798 203.833 110.465 202.466 111.071 201.05C111.985 198.982 112.715 196.992 113.258 195.081C113.292 194.909 113.224 194.806 113.052 194.772C112.942 194.786 112.887 194.792 112.887 194.792C111.333 196.215 109.749 197.613 108.133 198.987C106.579 200.41 104.994 201.808 103.379 203.182C102.568 203.842 101.485 204.787 100.13 206.017C98.7829 207.302 97.3391 208.71 95.7991 210.243C94.2659 211.83 92.8186 213.434 91.4572 215.056C90.1027 216.733 89.0163 218.32 88.198 219.818C87.3865 221.372 87.0493 222.698 87.1865 223.798C87.2962 224.678 87.7291 225.238 88.4851 225.479C89.193 225.781 89.9043 225.888 90.6192 225.799Z" fill="white"/>
</g>
<g filter="url(#filter8_d_43_192)">
<path d="M30.1512 205.949C29.1064 206.079 28.4502 205.072 28.1828 202.928C28.0525 201.883 28.3141 200.175 28.9677 197.804C29.6145 195.378 30.5191 192.556 31.6816 189.34C32.8922 186.062 34.2815 182.65 35.8496 179.103C37.4109 175.502 39.0374 171.977 40.7292 168.527C42.421 165.077 44.068 161.939 45.6702 159.115C47.2657 156.235 48.7372 153.93 50.0848 152.198C51.4325 150.466 52.5187 149.549 53.3436 149.446C53.7285 149.398 54.2749 149.525 54.9827 149.828C55.6906 150.131 56.3504 150.495 56.962 150.922C57.5736 151.348 57.9034 151.753 57.9514 152.138C58.0749 153.128 58.0711 154.218 57.9402 155.407C57.8574 156.534 57.7953 157.603 57.7537 158.613C57.7123 159.177 57.6467 160.441 57.5568 162.407C57.4601 164.318 57.401 166.531 57.3797 169.047C57.4065 171.5 57.5571 173.827 57.8315 176.027C58.0921 178.116 58.5349 179.876 59.16 181.306C59.7851 182.736 60.675 183.378 61.8298 183.234C63.3145 183.049 65.0434 182.136 67.0165 180.493C68.9896 178.851 71.0521 176.807 73.2042 174.361C75.4043 171.852 77.5633 169.238 79.681 166.516C81.8469 163.733 83.8134 161.143 85.5805 158.744C87.3957 156.284 88.9049 154.281 90.1082 152.735C91.3665 151.182 92.1331 150.388 92.408 150.354C92.573 150.333 92.6692 150.433 92.6966 150.653C92.7515 151.093 92.6276 151.667 92.325 152.375C91.8228 153.722 90.9769 155.447 89.7873 157.55C88.6458 159.591 87.2773 161.827 85.6821 164.26C84.0868 166.693 82.3506 169.115 80.4735 171.527C78.6514 173.933 76.7778 176.149 74.8527 178.176C72.9276 180.203 71.0439 181.89 69.2014 183.236C67.3522 184.528 65.6302 185.273 64.0355 185.472C61.506 185.788 59.4957 185.341 58.0045 184.13C56.5065 182.865 55.3728 181.164 54.6036 179.026C53.8275 176.833 53.2886 174.527 52.9868 172.108C52.637 169.303 52.4727 166.866 52.4939 164.798C52.5083 162.674 52.5433 160.268 52.599 157.581C50.4469 160.474 48.1605 163.858 45.7401 167.734C43.3677 171.548 41.1087 175.599 38.9631 179.888C36.8724 184.169 35.1151 188.437 33.6911 192.691C32.2603 196.891 31.4379 200.818 31.2238 204.475C31.21 204.812 31.1377 205.128 31.007 205.424C30.8764 205.719 30.5911 205.894 30.1512 205.949ZM88.5499 195.985C87.3401 196.136 86.4708 195.658 85.9418 194.551C85.4679 193.438 85.1726 192.413 85.056 191.479C84.9257 190.434 84.9777 188.836 85.212 186.684C85.4944 184.471 85.904 181.935 86.4409 179.076C86.9779 176.217 87.611 173.234 88.3404 170.127C89.118 166.959 89.9608 163.866 90.8689 160.849C91.832 157.825 92.8054 155.107 93.7889 152.695C94.7656 150.227 95.7456 148.234 96.7289 146.716C97.7122 145.197 98.6438 144.383 99.5236 144.273C99.9635 144.218 100.678 144.352 101.668 144.676C102.658 144.999 103.19 145.463 103.266 146.068C103.286 146.233 102.898 147.147 102.1 148.81C101.295 150.418 100.246 152.531 98.9536 155.15C97.7156 157.761 96.402 160.662 95.0127 163.85C93.6166 166.984 92.3166 170.218 91.1129 173.551C89.9641 176.877 89.0766 180.06 88.4503 183.097C87.8171 186.08 87.6412 188.699 87.9223 190.953L88.0046 191.613C88.0527 191.998 88.1556 192.376 88.3136 192.748C88.4648 193.064 88.7328 193.198 89.1177 193.15C89.7776 193.068 90.1487 193.356 90.231 194.016C90.279 194.401 90.162 194.807 89.8801 195.233C89.5982 195.659 89.1548 195.91 88.5499 195.985Z" fill="white"/>
</g>
<defs>
<filter id="filter0_d_43_192" x="44.27" y="29.8873" width="338.973" height="275.976" filterUnits="userSpaceOnUse" color-interpolation-filters="sRGB">
<feFlood flood-opacity="0" result="BackgroundImageFix"/>
<feColorMatrix in="SourceAlpha" type="matrix" values="0 0 0 0 0 0 0 0 0 0 0 0 0 0 0 0 0 0 127 0" result="hardAlpha"/>
<feOffset dy="-33"/>
<feGaussianBlur stdDeviation="2"/>
<feComposite in2="hardAlpha" operator="out"/>
<feColorMatrix type="matrix" values="0 0 0 0 0 0 0 0 0 0 0 0 0 0 0 0 0 0 0.5 0"/>
<feBlend mode="normal" in2="BackgroundImageFix" result="effect1_dropShadow_43_192"/>
<feBlend mode="normal" in="SourceGraphic" in2="effect1_dropShadow_43_192" result="shape"/>
</filter>
<filter id="filter1_d_43_192" x="335.731" y="106.853" width="50.791" height="53.5095" filterUnits="userSpaceOnUse" color-interpolation-filters="sRGB">
<feFlood flood-opacity="0" result="BackgroundImageFix"/>
<feColorMatrix in="SourceAlpha" type="matrix" values="0 0 0 0 0 0 0 0 0 0 0 0 0 0 0 0 0 0 127 0" result="hardAlpha"/>
<feOffset dx="-24" dy="-24"/>
<feGaussianBlur stdDeviation="2"/>
<feComposite in2="hardAlpha" operator="out"/>
<feColorMatrix type="matrix" values="0 0 0 0 0 0 0 0 0 0 0 0 0 0 0 0 0 0 0.25 0"/>
<feBlend mode="normal" in2="BackgroundImageFix" result="effect1_dropShadow_43_192"/>
<feBlend mode="normal" in="SourceGraphic" in2="effect1_dropShadow_43_192" result="shape"/>
</filter>
<filter id="filter2_d_43_192" x="306.348" y="101.211" width="56.1716" height="90.5968" filterUnits="userSpaceOnUse" color-interpolation-filters="sRGB">
<feFlood flood-opacity="0" result="BackgroundImageFix"/>
<feColorMatrix in="SourceAlpha" type="matrix" values="0 0 0 0 0 0 0 0 0 0 0 0 0 0 0 0 0 0 127 0" result="hardAlpha"/>
<feOffset dx="-24" dy="-24"/>
<feGaussianBlur stdDeviation="2"/>
<feComposite in2="hardAlpha" operator="out"/>
<feColorMatrix type="matrix" values="0 0 0 0 0 0 0 0 0 0 0 0 0 0 0 0 0 0 0.25 0"/>
<feBlend mode="normal" in2="BackgroundImageFix" result="effect1_dropShadow_43_192"/>
<feBlend mode="normal" in="SourceGraphic" in2="effect1_dropShadow_43_192" result="shape"/>
</filter>
<filter id="filter3_d_43_192" x="285.438" y="112.48" width="57.9844" height="55.0823" filterUnits="userSpaceOnUse" color-interpolation-filters="sRGB">
<feFlood flood-opacity="0" result="BackgroundImageFix"/>
<feColorMatrix in="SourceAlpha" type="matrix" values="0 0 0 0 0 0 0 0 0 0 0 0 0 0 0 0 0 0 127 0" result="hardAlpha"/>
<feOffset dx="-24" dy="-24"/>
<feGaussianBlur stdDeviation="2"/>
<feComposite in2="hardAlpha" operator="out"/>
<feColorMatrix type="matrix" values="0 0 0 0 0 0 0 0 0 0 0 0 0 0 0 0 0 0 0.25 0"/>
<feBlend mode="normal" in2="BackgroundImageFix" result="effect1_dropShadow_43_192"/>
<feBlend mode="normal" in="SourceGraphic" in2="effect1_dropShadow_43_192" result="shape"/>
</filter>
<filter id="filter4_d_43_192" x="249.917" y="88.8749" width="88.5786" height="87.0626" filterUnits="userSpaceOnUse" color-interpolation-filters="sRGB">
<feFlood flood-opacity="0" result="BackgroundImageFix"/>
<feColorMatrix in="SourceAlpha" type="matrix" values="0 0 0 0 0 0 0 0 0 0 0 0 0 0 0 0 0 0 127 0" result="hardAlpha"/>
<feOffset dx="-24" dy="-24"/>
<feGaussianBlur stdDeviation="2"/>
<feComposite in2="hardAlpha" operator="out"/>
<feColorMatrix type="matrix" values="0 0 0 0 0 0 0 0 0 0 0 0 0 0 0 0 0 0 0.25 0"/>
<feBlend mode="normal" in2="BackgroundImageFix" result="effect1_dropShadow_43_192"/>
<feBlend mode="normal" in="SourceGraphic" in2="effect1_dropShadow_43_192" result="shape"/>
</filter>
<filter id="filter5_d_43_192" x="191.244" y="111.687" width="72.9084" height="75.9212" filterUnits="userSpaceOnUse" color-interpolation-filters="sRGB">
<feFlood flood-opacity="0" result="BackgroundImageFix"/>
<feColorMatrix in="SourceAlpha" type="matrix" values="0 0 0 0 0 0 0 0 0 0 0 0 0 0 0 0 0 0 127 0" result="hardAlpha"/>
<feOffset dx="-24" dy="-24"/>
<feGaussianBlur stdDeviation="2"/>
<feComposite in2="hardAlpha" operator="out"/>
<feColorMatrix type="matrix" values="0 0 0 0 0 0 0 0 0 0 0 0 0 0 0 0 0 0 0.25 0"/>
<feBlend mode="normal" in2="BackgroundImageFix" result="effect1_dropShadow_43_192"/>
<feBlend mode="normal" in="SourceGraphic" in2="effect1_dropShadow_43_192" result="shape"/>
</filter>
<filter id="filter6_d_43_192" x="123.07" y="100.93" width="103.116" height="89.6994" filterUnits="userSpaceOnUse" color-interpolation-filters="sRGB">
<feFlood flood-opacity="0" result="BackgroundImageFix"/>
<feColorMatrix in="SourceAlpha" type="matrix" values="0 0 0 0 0 0 0 0 0 0 0 0 0 0 0 0 0 0 127 0" result="hardAlpha"/>
<feOffset dx="-24" dy="-24"/>
<feGaussianBlur stdDeviation="2"/>
<feComposite in2="hardAlpha" operator="out"/>
<feColorMatrix type="matrix" values="0 0 0 0 0 0 0 0 0 0 0 0 0 0 0 0 0 0 0.25 0"/>
<feBlend mode="normal" in2="BackgroundImageFix" result="effect1_dropShadow_43_192"/>
<feBlend mode="normal" in="SourceGraphic" in2="effect1_dropShadow_43_192" result="shape"/>
</filter>
<filter id="filter7_d_43_192" x="56.6594" y="140.623" width="71.6082" height="87.5267" filterUnits="userSpaceOnUse" color-interpolation-filters="sRGB">
<feFlood flood-opacity="0" result="BackgroundImageFix"/>
<feColorMatrix in="SourceAlpha" type="matrix" values="0 0 0 0 0 0 0 0 0 0 0 0 0 0 0 0 0 0 127 0" result="hardAlpha"/>
<feOffset dx="-24" dy="-24"/>
<feGaussianBlur stdDeviation="2"/>
<feComposite in2="hardAlpha" operator="out"/>
<feColorMatrix type="matrix" values="0 0 0 0 0 0 0 0 0 0 0 0 0 0 0 0 0 0 0.25 0"/>
<feBlend mode="normal" in2="BackgroundImageFix" result="effect1_dropShadow_43_192"/>
<feBlend mode="normal" in="SourceGraphic" in2="effect1_dropShadow_43_192" result="shape"/>
</filter>
<filter id="filter8_d_43_192" x="0.150391" y="116.261" width="103.116" height="89.6994" filterUnits="userSpaceOnUse" color-interpolation-filters="sRGB">
<feFlood flood-opacity="0" result="BackgroundImageFix"/>
<feColorMatrix in="SourceAlpha" type="matrix" values="0 0 0 0 0 0 0 0 0 0 0 0 0 0 0 0 0 0 127 0" result="hardAlpha"/>
<feOffset dx="-24" dy="-24"/>
<feGaussianBlur stdDeviation="2"/>
<feComposite in2="hardAlpha" operator="out"/>
<feColorMatrix type="matrix" values="0 0 0 0 0 0 0 0 0 0 0 0 0 0 0 0 0 0 0.25 0"/>
<feBlend mode="normal" in2="BackgroundImageFix" result="effect1_dropShadow_43_192"/>
<feBlend mode="normal" in="SourceGraphic" in2="effect1_dropShadow_43_192" result="shape"/>
</filter>
<linearGradient id="paint0_linear_43_192" x1="197.63" y1="0" x2="197.63" y2="221.226" gradientUnits="userSpaceOnUse">
<stop offset="0.407168" stop-color="#FD9DFF"/>
<stop offset="0.614016" stop-color="white"/>
<stop offset="0.842955" stop-color="#00F1FF"/>
</linearGradient>
</defs>
</svg>
