<svg width="217" height="413" viewBox="0 0 217 413" fill="none" xmlns="http://www.w3.org/2000/svg">
<g opacity="0.5">
<path d="M37.0001 121.5C37.5355 121.168 38.1043 120.803 38.7097 120.409C50.1475 111.257 87.3763 54.3406 105.5 25.5C116.7 32.3 137.167 19.3333 146 12L217 0V107C95.171 80.5154 54.4995 110.146 38.7097 120.409C38.0516 120.936 37.4789 121.304 37.0001 121.5Z" fill="#F2F24F"/>
<path d="M24.0001 313C30.8001 308.2 34.1668 294 35.0001 287.5L73.0002 311.5C55.8002 329.1 65.0002 340.5 70.5001 348C16.5001 340.8 17.0001 321.667 24.0001 313Z" fill="#F2F24F"/>
<path d="M19.5002 392.5C-2.09983 418.1 -0.499833 388.5 3.00017 370.5C3.00017 363.3 14.0002 353.5 19.5002 349.5C32.7002 346.3 56.6667 378.5 67 395C69 411.4 46.5001 413.167 35.0001 412L19.5002 392.5Z" fill="#F2F24F"/>
</g>
</svg>
