<svg width="137" height="1080" viewBox="0 0 137 1080" fill="none" xmlns="http://www.w3.org/2000/svg">
<path d="M135.5 667V772V877V982H68.25H1V877V772V667H135.5Z" fill="#1F3138"/>
<path d="M1.5 413.5V309V204.5V100H68.5H135.5V204.5V309V413.5H1.5Z" fill="#1F3138"/>
<path d="M1.5 -4.5V100M135.5 -4.5V100M135.5 1087V982M1 1087V982M135.5 877V772M135.5 877L68.25 772M135.5 877V982M135.5 877L68.25 982M1 877V772M1 877L68.25 772M1 877V982M1 877L68.25 982M135.5 772V667H1V772M135.5 772H68.25M1 772H68.25M135.5 982H68.25M1 982H68.25M135.5 204.5V309M135.5 204.5V100M135.5 204.5L68.5 100M135.5 204.5L68.5 309M1.5 204.5V309M1.5 204.5V100M1.5 204.5L68.5 100M1.5 204.5L68.5 309M1.5 309V413.5H135.5V309M1.5 309H68.5M135.5 309H68.5M135.5 100H68.5M1.5 100H68.5M68.5 204.5C68.5 204.5 68.5 196.577 68.5 191.5M68.5 204.5V217.5M68.5 204.5H79.5M68.5 204.5H56.5M68.25 877C68.25 877 68.25 869.077 68.25 864M68.25 877V890M68.25 877H79.25M68.25 877H56.25" stroke="#AB904E" stroke-width="2"/>
</svg>
